<ttFont>
    <TTGlyph name="A" xMin="-27" yMin="0" xMax="674" yMax="715">
      <contour>
        <pt x="399" y="236" on="1"/>
        <pt x="361" y="237" on="0"/>
        <pt x="227" y="237" on="0"/>
        <pt x="186" y="236" on="1"/>
        <pt x="153" y="122" on="0"/>
        <pt x="141" y="69" on="0"/>
        <pt x="141" y="22" on="1"/>
        <pt x="141" y="0" on="1"/>
        <pt x="-27" y="0" on="1"/>
        <pt x="-27" y="22" on="1"/>
        <pt x="25" y="58" on="0"/>
        <pt x="179" y="518" on="0"/>
        <pt x="227" y="667" on="0"/>
        <pt x="231" y="700" on="1"/>
        <pt x="385" y="715" on="1"/>
        <pt x="385" y="677" on="0"/>
        <pt x="451" y="497" on="1"/>
        <pt x="574" y="161" on="0"/>
        <pt x="622" y="84" on="1"/>
        <pt x="645" y="45" on="0"/>
        <pt x="674" y="22" on="1"/>
        <pt x="674" y="0" on="1"/>
        <pt x="462" y="0" on="1"/>
        <pt x="462" y="22" on="1"/>
        <pt x="462" y="64" on="0"/>
      </contour>
      <contour>
        <pt x="288" y="574" on="1"/>
        <pt x="255" y="479" on="0"/>
        <pt x="205" y="309" on="1"/>
        <pt x="378" y="309" on="1"/>
        <pt x="372" y="326" on="0"/>
        <pt x="360" y="366" on="1"/>
        <pt x="334" y="455" on="0"/>
      </contour>
    </TTGlyph>
    <TTGlyph name="AE" xMin="-10" yMin="0" xMax="919" yMax="703">
      <contour>
        <pt x="648" y="629" on="1"/>
        <pt x="607" y="629" on="0"/>
        <pt x="584" y="627" on="1"/>
        <pt x="582" y="581" on="0"/>
        <pt x="582" y="382" on="1"/>
        <pt x="839" y="387" on="1"/>
        <pt x="804" y="304" on="1"/>
        <pt x="785" y="304" on="1"/>
        <pt x="747" y="312" on="0"/>
        <pt x="600" y="312" on="0"/>
        <pt x="582" y="310" on="1"/>
        <pt x="582" y="277" on="1"/>
        <pt x="582" y="109" on="0"/>
        <pt x="585" y="76" on="1"/>
        <pt x="608" y="74" on="0"/>
        <pt x="715" y="74" on="0"/>
        <pt x="865" y="92" on="0"/>
        <pt x="900" y="106" on="1"/>
        <pt x="919" y="106" on="1"/>
        <pt x="900" y="0" on="1"/>
        <pt x="426" y="0" on="1"/>
        <pt x="426" y="22" on="1"/>
        <pt x="443" y="94" on="0"/>
        <pt x="443" y="223" on="1"/>
        <pt x="443" y="267" on="1"/>
        <pt x="360" y="267" on="0"/>
        <pt x="283" y="266" on="1"/>
        <pt x="174" y="71" on="0"/>
        <pt x="163" y="24" on="1"/>
        <pt x="158" y="2" on="1"/>
        <pt x="-10" y="2" on="1"/>
        <pt x="-10" y="24" on="1"/>
        <pt x="21" y="47" on="0"/>
        <pt x="142" y="223" on="0"/>
        <pt x="236" y="382" on="1"/>
        <pt x="385" y="638" on="0"/>
        <pt x="402" y="700" on="1"/>
        <pt x="886" y="703" on="1"/>
        <pt x="856" y="615" on="1"/>
        <pt x="837" y="615" on="1"/>
        <pt x="788" y="629" on="0"/>
      </contour>
      <contour>
        <pt x="443" y="339" on="1"/>
        <pt x="443" y="476" on="1"/>
        <pt x="443" y="516" on="0"/>
        <pt x="440" y="556" on="1"/>
        <pt x="375" y="447" on="0"/>
        <pt x="319" y="339" on="1"/>
      </contour>
    </TTGlyph>
    <TTGlyph name="Aacute" xMin="-27" yMin="0" xMax="674" yMax="918">
      <contour>
        <pt x="399" y="236" on="1"/>
        <pt x="361" y="237" on="0"/>
        <pt x="227" y="237" on="0"/>
        <pt x="186" y="236" on="1"/>
        <pt x="153" y="122" on="0"/>
        <pt x="141" y="69" on="0"/>
        <pt x="141" y="22" on="1"/>
        <pt x="141" y="0" on="1"/>
        <pt x="-27" y="0" on="1"/>
        <pt x="-27" y="22" on="1"/>
        <pt x="25" y="58" on="0"/>
        <pt x="179" y="518" on="0"/>
        <pt x="227" y="667" on="0"/>
        <pt x="231" y="700" on="1"/>
        <pt x="385" y="715" on="1"/>
        <pt x="385" y="677" on="0"/>
        <pt x="451" y="497" on="1"/>
        <pt x="574" y="161" on="0"/>
        <pt x="622" y="84" on="1"/>
        <pt x="645" y="45" on="0"/>
        <pt x="674" y="22" on="1"/>
        <pt x="674" y="0" on="1"/>
        <pt x="462" y="0" on="1"/>
        <pt x="462" y="22" on="1"/>
        <pt x="462" y="64" on="0"/>
      </contour>
      <contour>
        <pt x="288" y="574" on="1"/>
        <pt x="255" y="479" on="0"/>
        <pt x="205" y="309" on="1"/>
        <pt x="378" y="309" on="1"/>
        <pt x="372" y="326" on="0"/>
        <pt x="360" y="366" on="1"/>
        <pt x="334" y="455" on="0"/>
      </contour>
      <contour>
        <pt x="189" y="751" on="1"/>
        <pt x="172" y="798" on="1"/>
        <pt x="223" y="814" on="0"/>
        <pt x="351" y="883" on="0"/>
        <pt x="397" y="918" on="1"/>
        <pt x="441" y="884" on="0"/>
        <pt x="455" y="811" on="1"/>
        <pt x="322" y="762" on="0"/>
      </contour>
    </TTGlyph>
    <TTGlyph name="Acircumflex" xMin="-27" yMin="0" xMax="674" yMax="920">
      <contour>
        <pt x="399" y="236" on="1"/>
        <pt x="361" y="237" on="0"/>
        <pt x="227" y="237" on="0"/>
        <pt x="186" y="236" on="1"/>
        <pt x="153" y="122" on="0"/>
        <pt x="141" y="69" on="0"/>
        <pt x="141" y="22" on="1"/>
        <pt x="141" y="0" on="1"/>
        <pt x="-27" y="0" on="1"/>
        <pt x="-27" y="22" on="1"/>
        <pt x="25" y="58" on="0"/>
        <pt x="179" y="518" on="0"/>
        <pt x="227" y="667" on="0"/>
        <pt x="231" y="700" on="1"/>
        <pt x="385" y="715" on="1"/>
        <pt x="385" y="677" on="0"/>
        <pt x="451" y="497" on="1"/>
        <pt x="574" y="161" on="0"/>
        <pt x="622" y="84" on="1"/>
        <pt x="645" y="45" on="0"/>
        <pt x="674" y="22" on="1"/>
        <pt x="674" y="0" on="1"/>
        <pt x="462" y="0" on="1"/>
        <pt x="462" y="22" on="1"/>
        <pt x="462" y="64" on="0"/>
      </contour>
      <contour>
        <pt x="288" y="574" on="1"/>
        <pt x="255" y="479" on="0"/>
        <pt x="205" y="309" on="1"/>
        <pt x="378" y="309" on="1"/>
        <pt x="372" y="326" on="0"/>
        <pt x="360" y="366" on="1"/>
        <pt x="334" y="455" on="0"/>
      </contour>
      <contour>
        <pt x="279" y="920" on="1"/>
        <pt x="359" y="920" on="1"/>
        <pt x="385" y="867" on="0"/>
        <pt x="434" y="822" on="1"/>
        <pt x="451" y="806" on="0"/>
        <pt x="484" y="778" on="1"/>
        <pt x="442" y="733" on="1"/>
        <pt x="369" y="777" on="0"/>
        <pt x="316" y="836" on="1"/>
        <pt x="270" y="789" on="0"/>
        <pt x="202" y="738" on="1"/>
        <pt x="159" y="782" on="1"/>
        <pt x="246" y="858" on="0"/>
      </contour>
    </TTGlyph>
    <TTGlyph name="Adieresis" xMin="-27" yMin="0" xMax="674" yMax="910">
      <contour>
        <pt x="399" y="236" on="1"/>
        <pt x="361" y="237" on="0"/>
        <pt x="227" y="237" on="0"/>
        <pt x="186" y="236" on="1"/>
        <pt x="153" y="122" on="0"/>
        <pt x="141" y="69" on="0"/>
        <pt x="141" y="22" on="1"/>
        <pt x="141" y="0" on="1"/>
        <pt x="-27" y="0" on="1"/>
        <pt x="-27" y="22" on="1"/>
        <pt x="25" y="58" on="0"/>
        <pt x="179" y="518" on="0"/>
        <pt x="227" y="667" on="0"/>
        <pt x="231" y="700" on="1"/>
        <pt x="385" y="715" on="1"/>
        <pt x="385" y="677" on="0"/>
        <pt x="451" y="497" on="1"/>
        <pt x="574" y="161" on="0"/>
        <pt x="622" y="84" on="1"/>
        <pt x="645" y="45" on="0"/>
        <pt x="674" y="22" on="1"/>
        <pt x="674" y="0" on="1"/>
        <pt x="462" y="0" on="1"/>
        <pt x="462" y="22" on="1"/>
        <pt x="462" y="64" on="0"/>
      </contour>
      <contour>
        <pt x="288" y="574" on="1"/>
        <pt x="255" y="479" on="0"/>
        <pt x="205" y="309" on="1"/>
        <pt x="378" y="309" on="1"/>
        <pt x="372" y="326" on="0"/>
        <pt x="360" y="366" on="1"/>
        <pt x="334" y="455" on="0"/>
      </contour>
      <contour>
        <pt x="278" y="893" on="1"/>
        <pt x="285" y="885" on="0"/>
        <pt x="292" y="833" on="0"/>
        <pt x="292" y="805" on="0"/>
        <pt x="291" y="796" on="1"/>
        <pt x="279" y="785" on="1"/>
        <pt x="233" y="773" on="0"/>
        <pt x="188" y="770" on="1"/>
        <pt x="172" y="770" on="1"/>
        <pt x="157" y="775" on="1"/>
        <pt x="135" y="814" on="0"/>
        <pt x="135" y="873" on="1"/>
        <pt x="150" y="884" on="1"/>
        <pt x="200" y="897" on="0"/>
        <pt x="244" y="899" on="1"/>
        <pt x="266" y="899" on="1"/>
      </contour>
      <contour>
        <pt x="492" y="904" on="1"/>
        <pt x="499" y="896" on="0"/>
        <pt x="506" y="844" on="0"/>
        <pt x="506" y="816" on="0"/>
        <pt x="505" y="807" on="1"/>
        <pt x="493" y="796" on="1"/>
        <pt x="447" y="784" on="0"/>
        <pt x="402" y="781" on="1"/>
        <pt x="386" y="781" on="1"/>
        <pt x="371" y="786" on="1"/>
        <pt x="349" y="825" on="0"/>
        <pt x="349" y="884" on="1"/>
        <pt x="364" y="895" on="1"/>
        <pt x="414" y="908" on="0"/>
        <pt x="458" y="910" on="1"/>
        <pt x="480" y="910" on="1"/>
      </contour>
    </TTGlyph>
    <TTGlyph name="Agrave" xMin="-27" yMin="0" xMax="674" yMax="918">
      <contour>
        <pt x="399" y="236" on="1"/>
        <pt x="361" y="237" on="0"/>
        <pt x="227" y="237" on="0"/>
        <pt x="186" y="236" on="1"/>
        <pt x="153" y="122" on="0"/>
        <pt x="141" y="69" on="0"/>
        <pt x="141" y="22" on="1"/>
        <pt x="141" y="0" on="1"/>
        <pt x="-27" y="0" on="1"/>
        <pt x="-27" y="22" on="1"/>
        <pt x="25" y="58" on="0"/>
        <pt x="179" y="518" on="0"/>
        <pt x="227" y="667" on="0"/>
        <pt x="231" y="700" on="1"/>
        <pt x="385" y="715" on="1"/>
        <pt x="385" y="677" on="0"/>
        <pt x="451" y="497" on="1"/>
        <pt x="574" y="161" on="0"/>
        <pt x="622" y="84" on="1"/>
        <pt x="645" y="45" on="0"/>
        <pt x="674" y="22" on="1"/>
        <pt x="674" y="0" on="1"/>
        <pt x="462" y="0" on="1"/>
        <pt x="462" y="22" on="1"/>
        <pt x="462" y="64" on="0"/>
      </contour>
      <contour>
        <pt x="288" y="574" on="1"/>
        <pt x="255" y="479" on="0"/>
        <pt x="205" y="309" on="1"/>
        <pt x="378" y="309" on="1"/>
        <pt x="372" y="326" on="0"/>
        <pt x="360" y="366" on="1"/>
        <pt x="334" y="455" on="0"/>
      </contour>
      <contour>
        <pt x="438" y="798" on="1"/>
        <pt x="421" y="751" on="1"/>
        <pt x="288" y="762" on="0"/>
        <pt x="155" y="811" on="1"/>
        <pt x="169" y="884" on="0"/>
        <pt x="213" y="918" on="1"/>
        <pt x="259" y="883" on="0"/>
        <pt x="387" y="814" on="0"/>
      </contour>
    </TTGlyph>
    <TTGlyph name="Aring" xMin="-37" yMin="0" xMax="664" yMax="897">
      <contour>
        <pt x="407" y="836" on="0"/>
        <pt x="407" y="746" on="0"/>
        <pt x="372" y="714" on="1"/>
        <pt x="375" y="715" on="1"/>
        <pt x="375" y="677" on="0"/>
        <pt x="441" y="497" on="1"/>
        <pt x="564" y="161" on="0"/>
        <pt x="612" y="84" on="1"/>
        <pt x="635" y="45" on="0"/>
        <pt x="664" y="22" on="1"/>
        <pt x="664" y="0" on="1"/>
        <pt x="452" y="0" on="1"/>
        <pt x="452" y="22" on="1"/>
        <pt x="452" y="64" on="0"/>
        <pt x="389" y="236" on="1"/>
        <pt x="351" y="237" on="0"/>
        <pt x="217" y="237" on="0"/>
        <pt x="176" y="236" on="1"/>
        <pt x="143" y="122" on="0"/>
        <pt x="131" y="69" on="0"/>
        <pt x="131" y="22" on="1"/>
        <pt x="131" y="0" on="1"/>
        <pt x="-37" y="0" on="1"/>
        <pt x="-37" y="22" on="1"/>
        <pt x="15" y="58" on="0"/>
        <pt x="169" y="518" on="0"/>
        <pt x="217" y="667" on="0"/>
        <pt x="221" y="700" on="1"/>
        <pt x="224" y="700" on="1"/>
        <pt x="176" y="731" on="0"/>
        <pt x="176" y="832" on="0"/>
        <pt x="246" y="896" on="0"/>
        <pt x="294" y="896" on="1"/>
        <pt x="343" y="896" on="0"/>
      </contour>
      <contour>
        <pt x="278" y="574" on="1"/>
        <pt x="245" y="479" on="0"/>
        <pt x="195" y="309" on="1"/>
        <pt x="368" y="309" on="1"/>
        <pt x="362" y="326" on="0"/>
        <pt x="350" y="366" on="1"/>
        <pt x="324" y="455" on="0"/>
      </contour>
      <contour>
        <pt x="296" y="743" on="1"/>
        <pt x="313" y="743" on="0"/>
        <pt x="329" y="750" on="1"/>
        <pt x="340" y="761" on="0"/>
        <pt x="340" y="788" on="1"/>
        <pt x="340" y="839" on="0"/>
        <pt x="288" y="839" on="1"/>
        <pt x="268" y="839" on="0"/>
        <pt x="254" y="831" on="1"/>
        <pt x="243" y="820" on="0"/>
        <pt x="243" y="798" on="1"/>
        <pt x="243" y="743" on="0"/>
      </contour>
    </TTGlyph>
    <TTGlyph name="Atilde" xMin="-27" yMin="0" xMax="674" yMax="909">
      <contour>
        <pt x="399" y="236" on="1"/>
        <pt x="361" y="237" on="0"/>
        <pt x="227" y="237" on="0"/>
        <pt x="186" y="236" on="1"/>
        <pt x="153" y="122" on="0"/>
        <pt x="141" y="69" on="0"/>
        <pt x="141" y="22" on="1"/>
        <pt x="141" y="0" on="1"/>
        <pt x="-27" y="0" on="1"/>
        <pt x="-27" y="22" on="1"/>
        <pt x="25" y="58" on="0"/>
        <pt x="179" y="518" on="0"/>
        <pt x="227" y="667" on="0"/>
        <pt x="231" y="700" on="1"/>
        <pt x="385" y="715" on="1"/>
        <pt x="385" y="677" on="0"/>
        <pt x="451" y="497" on="1"/>
        <pt x="574" y="161" on="0"/>
        <pt x="622" y="84" on="1"/>
        <pt x="645" y="45" on="0"/>
        <pt x="674" y="22" on="1"/>
        <pt x="674" y="0" on="1"/>
        <pt x="462" y="0" on="1"/>
        <pt x="462" y="22" on="1"/>
        <pt x="462" y="64" on="0"/>
      </contour>
      <contour>
        <pt x="288" y="574" on="1"/>
        <pt x="255" y="479" on="0"/>
        <pt x="205" y="309" on="1"/>
        <pt x="378" y="309" on="1"/>
        <pt x="372" y="326" on="0"/>
        <pt x="360" y="366" on="1"/>
        <pt x="334" y="455" on="0"/>
      </contour>
      <contour>
        <pt x="402" y="773" on="1"/>
        <pt x="378" y="773" on="0"/>
        <pt x="259" y="821" on="0"/>
        <pt x="226" y="821" on="0"/>
        <pt x="209" y="817" on="0"/>
        <pt x="198" y="813" on="0"/>
        <pt x="179" y="803" on="0"/>
        <pt x="173" y="799" on="0"/>
        <pt x="152" y="786" on="0"/>
        <pt x="151" y="785" on="1"/>
        <pt x="122" y="810" on="1"/>
        <pt x="148" y="841" on="0"/>
        <pt x="223" y="909" on="0"/>
        <pt x="269" y="909" on="0"/>
        <pt x="384" y="866" on="0"/>
        <pt x="414" y="866" on="0"/>
        <pt x="432" y="869" on="0"/>
        <pt x="455" y="879" on="0"/>
        <pt x="464" y="883" on="0"/>
        <pt x="492" y="899" on="0"/>
        <pt x="493" y="899" on="1"/>
        <pt x="520" y="874" on="1"/>
        <pt x="437" y="773" on="0"/>
      </contour>
    </TTGlyph>
    <TTGlyph name="B" xMin="108" yMin="-2" xMax="653" yMax="700">
      <contour>
        <pt x="190" y="698" on="1"/>
        <pt x="361" y="700" on="1"/>
        <pt x="479" y="700" on="0"/>
        <pt x="603" y="636" on="0"/>
        <pt x="603" y="556" on="1"/>
        <pt x="603" y="502" on="0"/>
        <pt x="548" y="424" on="0"/>
        <pt x="507" y="404" on="1"/>
        <pt x="556" y="392" on="0"/>
        <pt x="600" y="355" on="1"/>
        <pt x="653" y="311" on="0"/>
        <pt x="653" y="146" on="0"/>
        <pt x="571" y="44" on="0"/>
        <pt x="444" y="-2" on="0"/>
        <pt x="348" y="-2" on="1"/>
        <pt x="192" y="2" on="0"/>
        <pt x="188" y="2" on="1"/>
        <pt x="108" y="0" on="1"/>
        <pt x="108" y="23" on="1"/>
        <pt x="128" y="72" on="0"/>
        <pt x="128" y="163" on="1"/>
        <pt x="128" y="528" on="1"/>
        <pt x="128" y="626" on="0"/>
        <pt x="111" y="678" on="1"/>
        <pt x="111" y="700" on="1"/>
        <pt x="139" y="698" on="0"/>
      </contour>
      <contour>
        <pt x="305" y="357" on="1"/>
        <pt x="270" y="357" on="1"/>
        <pt x="270" y="118" on="0"/>
        <pt x="273" y="70" on="1"/>
        <pt x="313" y="64" on="0"/>
        <pt x="334" y="64" on="1"/>
        <pt x="410" y="64" on="0"/>
        <pt x="503" y="146" on="0"/>
        <pt x="503" y="215" on="1"/>
        <pt x="503" y="357" on="0"/>
      </contour>
      <contour>
        <pt x="466" y="588" on="0"/>
        <pt x="406" y="638" on="0"/>
        <pt x="297" y="638" on="0"/>
        <pt x="271" y="635" on="1"/>
        <pt x="270" y="621" on="0"/>
        <pt x="270" y="418" on="1"/>
        <pt x="338" y="418" on="1"/>
        <pt x="466" y="418" on="0"/>
        <pt x="466" y="528" on="1"/>
      </contour>
    </TTGlyph>
    <TTGlyph name="C" xMin="49" yMin="-12" xMax="700" yMax="712">
      <contour>
        <pt x="200" y="375" on="1"/>
        <pt x="200" y="237" on="0"/>
        <pt x="339" y="85" on="0"/>
        <pt x="443" y="85" on="1"/>
        <pt x="521" y="85" on="0"/>
        <pt x="663" y="157" on="1"/>
        <pt x="700" y="103" on="1"/>
        <pt x="625" y="54" on="0"/>
        <pt x="570" y="24" on="0"/>
        <pt x="455" y="-12" on="0"/>
        <pt x="398" y="-12" on="1"/>
        <pt x="253" y="-12" on="0"/>
        <pt x="49" y="182" on="0"/>
        <pt x="49" y="508" on="0"/>
        <pt x="284" y="712" on="0"/>
        <pt x="458" y="712" on="1"/>
        <pt x="575" y="712" on="0"/>
        <pt x="684" y="660" on="1"/>
        <pt x="671" y="597" on="0"/>
        <pt x="627" y="537" on="1"/>
        <pt x="558" y="588" on="0"/>
        <pt x="446" y="627" on="0"/>
        <pt x="353" y="627" on="0"/>
        <pt x="319" y="622" on="1"/>
        <pt x="267" y="586" on="0"/>
        <pt x="200" y="462" on="0"/>
      </contour>
    </TTGlyph>
    <TTGlyph name="Ccedilla" xMin="49" yMin="-224" xMax="700" yMax="712">
      <contour>
        <pt x="200" y="375" on="1"/>
        <pt x="200" y="462" on="0"/>
        <pt x="267" y="586" on="0"/>
        <pt x="319" y="622" on="1"/>
        <pt x="353" y="627" on="0"/>
        <pt x="446" y="627" on="0"/>
        <pt x="558" y="588" on="0"/>
        <pt x="627" y="537" on="1"/>
        <pt x="671" y="597" on="0"/>
        <pt x="684" y="660" on="1"/>
        <pt x="575" y="712" on="0"/>
        <pt x="458" y="712" on="1"/>
        <pt x="284" y="712" on="0"/>
        <pt x="49" y="508" on="0"/>
        <pt x="49" y="182" on="0"/>
        <pt x="253" y="-12" on="0"/>
        <pt x="398" y="-12" on="1"/>
        <pt x="455" y="-12" on="0"/>
        <pt x="570" y="24" on="0"/>
        <pt x="625" y="54" on="0"/>
        <pt x="700" y="103" on="1"/>
        <pt x="663" y="157" on="1"/>
        <pt x="521" y="85" on="0"/>
        <pt x="443" y="85" on="1"/>
        <pt x="339" y="85" on="0"/>
        <pt x="200" y="237" on="0"/>
      </contour>
      <contour>
        <pt x="446" y="-61" on="0"/>
        <pt x="492" y="-102" on="0"/>
        <pt x="492" y="-178" on="0"/>
        <pt x="422" y="-224" on="0"/>
        <pt x="346" y="-224" on="0"/>
        <pt x="274" y="-198" on="0"/>
        <pt x="259" y="-189" on="1"/>
        <pt x="278" y="-148" on="1"/>
        <pt x="310" y="-165" on="0"/>
        <pt x="365" y="-165" on="0"/>
        <pt x="394" y="-147" on="0"/>
        <pt x="394" y="-118" on="0"/>
        <pt x="382" y="-109" on="1"/>
        <pt x="368" y="-105" on="0"/>
        <pt x="332" y="-105" on="0"/>
        <pt x="311" y="-109" on="1"/>
        <pt x="298" y="-90" on="1"/>
        <pt x="341" y="-2" on="1"/>
        <pt x="417" y="-9" on="1"/>
        <pt x="383" y="-63" on="1"/>
        <pt x="393" y="-60" on="0"/>
      </contour>
    </TTGlyph>
    <TTGlyph name="D" xMin="108" yMin="0" xMax="775" yMax="701">
      <contour>
        <pt x="186" y="698" on="1"/>
        <pt x="385" y="701" on="1"/>
        <pt x="583" y="701" on="0"/>
        <pt x="775" y="540" on="0"/>
        <pt x="775" y="373" on="1"/>
        <pt x="775" y="270" on="0"/>
        <pt x="701" y="106" on="0"/>
        <pt x="630" y="59" on="1"/>
        <pt x="542" y="0" on="0"/>
        <pt x="389" y="0" on="1"/>
        <pt x="370" y="0" on="1"/>
        <pt x="186" y="1" on="1"/>
        <pt x="108" y="1" on="1"/>
        <pt x="108" y="23" on="1"/>
        <pt x="125" y="87" on="0"/>
        <pt x="125" y="221" on="1"/>
        <pt x="125" y="479" on="1"/>
        <pt x="125" y="614" on="0"/>
        <pt x="108" y="678" on="1"/>
        <pt x="108" y="700" on="1"/>
        <pt x="152" y="698" on="0"/>
      </contour>
      <contour>
        <pt x="267" y="393" on="1"/>
        <pt x="267" y="335" on="1"/>
        <pt x="267" y="120" on="0"/>
        <pt x="270" y="87" on="1"/>
        <pt x="335" y="82" on="0"/>
        <pt x="384" y="82" on="1"/>
        <pt x="509" y="82" on="0"/>
        <pt x="557" y="110" on="1"/>
        <pt x="624" y="180" on="0"/>
        <pt x="624" y="357" on="1"/>
        <pt x="624" y="504" on="0"/>
        <pt x="505" y="627" on="0"/>
        <pt x="366" y="627" on="1"/>
        <pt x="362" y="627" on="0"/>
        <pt x="269" y="626" on="1"/>
        <pt x="267" y="578" on="0"/>
      </contour>
    </TTGlyph>
    <TTGlyph name="E" xMin="108" yMin="0" xMax="606" yMax="703">
      <contour>
        <pt x="335" y="629" on="1"/>
        <pt x="294" y="629" on="0"/>
        <pt x="271" y="627" on="1"/>
        <pt x="269" y="581" on="0"/>
        <pt x="269" y="402" on="1"/>
        <pt x="526" y="407" on="1"/>
        <pt x="491" y="324" on="1"/>
        <pt x="472" y="324" on="1"/>
        <pt x="434" y="332" on="0"/>
        <pt x="287" y="332" on="0"/>
        <pt x="269" y="330" on="1"/>
        <pt x="269" y="277" on="1"/>
        <pt x="269" y="109" on="0"/>
        <pt x="272" y="76" on="1"/>
        <pt x="295" y="74" on="0"/>
        <pt x="402" y="74" on="0"/>
        <pt x="552" y="92" on="0"/>
        <pt x="587" y="106" on="1"/>
        <pt x="606" y="106" on="1"/>
        <pt x="587" y="0" on="1"/>
        <pt x="108" y="0" on="1"/>
        <pt x="108" y="22" on="1"/>
        <pt x="125" y="94" on="0"/>
        <pt x="125" y="223" on="1"/>
        <pt x="125" y="476" on="1"/>
        <pt x="125" y="606" on="0"/>
        <pt x="108" y="678" on="1"/>
        <pt x="108" y="700" on="1"/>
        <pt x="573" y="703" on="1"/>
        <pt x="543" y="615" on="1"/>
        <pt x="524" y="615" on="1"/>
        <pt x="475" y="629" on="0"/>
      </contour>
    </TTGlyph>
    <TTGlyph name="Eacute" xMin="108" yMin="0" xMax="606" yMax="949">
      <contour>
        <pt x="335" y="629" on="1"/>
        <pt x="294" y="629" on="0"/>
        <pt x="271" y="627" on="1"/>
        <pt x="269" y="581" on="0"/>
        <pt x="269" y="402" on="1"/>
        <pt x="526" y="407" on="1"/>
        <pt x="491" y="324" on="1"/>
        <pt x="472" y="324" on="1"/>
        <pt x="434" y="332" on="0"/>
        <pt x="287" y="332" on="0"/>
        <pt x="269" y="330" on="1"/>
        <pt x="269" y="277" on="1"/>
        <pt x="269" y="109" on="0"/>
        <pt x="272" y="76" on="1"/>
        <pt x="295" y="74" on="0"/>
        <pt x="402" y="74" on="0"/>
        <pt x="552" y="92" on="0"/>
        <pt x="587" y="106" on="1"/>
        <pt x="606" y="106" on="1"/>
        <pt x="587" y="0" on="1"/>
        <pt x="108" y="0" on="1"/>
        <pt x="108" y="22" on="1"/>
        <pt x="125" y="94" on="0"/>
        <pt x="125" y="223" on="1"/>
        <pt x="125" y="476" on="1"/>
        <pt x="125" y="606" on="0"/>
        <pt x="108" y="678" on="1"/>
        <pt x="108" y="700" on="1"/>
        <pt x="573" y="703" on="1"/>
        <pt x="543" y="615" on="1"/>
        <pt x="524" y="615" on="1"/>
        <pt x="475" y="629" on="0"/>
      </contour>
      <contour>
        <pt x="444" y="875" on="1"/>
        <pt x="335" y="779" on="0"/>
        <pt x="222" y="723" on="1"/>
        <pt x="185" y="762" on="1"/>
        <pt x="285" y="847" on="0"/>
        <pt x="345" y="949" on="1"/>
        <pt x="408" y="927" on="0"/>
      </contour>
    </TTGlyph>
    <TTGlyph name="Ecircumflex" xMin="108" yMin="0" xMax="606" yMax="920">
      <contour>
        <pt x="335" y="629" on="1"/>
        <pt x="294" y="629" on="0"/>
        <pt x="271" y="627" on="1"/>
        <pt x="269" y="581" on="0"/>
        <pt x="269" y="402" on="1"/>
        <pt x="526" y="407" on="1"/>
        <pt x="491" y="324" on="1"/>
        <pt x="472" y="324" on="1"/>
        <pt x="434" y="332" on="0"/>
        <pt x="287" y="332" on="0"/>
        <pt x="269" y="330" on="1"/>
        <pt x="269" y="277" on="1"/>
        <pt x="269" y="109" on="0"/>
        <pt x="272" y="76" on="1"/>
        <pt x="295" y="74" on="0"/>
        <pt x="402" y="74" on="0"/>
        <pt x="552" y="92" on="0"/>
        <pt x="587" y="106" on="1"/>
        <pt x="606" y="106" on="1"/>
        <pt x="587" y="0" on="1"/>
        <pt x="108" y="0" on="1"/>
        <pt x="108" y="22" on="1"/>
        <pt x="125" y="94" on="0"/>
        <pt x="125" y="223" on="1"/>
        <pt x="125" y="476" on="1"/>
        <pt x="125" y="606" on="0"/>
        <pt x="108" y="678" on="1"/>
        <pt x="108" y="700" on="1"/>
        <pt x="573" y="703" on="1"/>
        <pt x="543" y="615" on="1"/>
        <pt x="524" y="615" on="1"/>
        <pt x="475" y="629" on="0"/>
      </contour>
      <contour>
        <pt x="272" y="920" on="1"/>
        <pt x="352" y="920" on="1"/>
        <pt x="378" y="867" on="0"/>
        <pt x="426" y="822" on="1"/>
        <pt x="444" y="806" on="0"/>
        <pt x="477" y="778" on="1"/>
        <pt x="435" y="733" on="1"/>
        <pt x="362" y="777" on="0"/>
        <pt x="309" y="836" on="1"/>
        <pt x="263" y="789" on="0"/>
        <pt x="195" y="738" on="1"/>
        <pt x="152" y="782" on="1"/>
        <pt x="239" y="858" on="0"/>
      </contour>
    </TTGlyph>
    <TTGlyph name="Edieresis" xMin="115" yMin="0" xMax="613" yMax="910">
      <contour>
        <pt x="342" y="629" on="1"/>
        <pt x="301" y="629" on="0"/>
        <pt x="278" y="627" on="1"/>
        <pt x="276" y="581" on="0"/>
        <pt x="276" y="402" on="1"/>
        <pt x="533" y="407" on="1"/>
        <pt x="498" y="324" on="1"/>
        <pt x="479" y="324" on="1"/>
        <pt x="441" y="332" on="0"/>
        <pt x="294" y="332" on="0"/>
        <pt x="276" y="330" on="1"/>
        <pt x="276" y="277" on="1"/>
        <pt x="276" y="109" on="0"/>
        <pt x="279" y="76" on="1"/>
        <pt x="302" y="74" on="0"/>
        <pt x="409" y="74" on="0"/>
        <pt x="559" y="92" on="0"/>
        <pt x="594" y="106" on="1"/>
        <pt x="613" y="106" on="1"/>
        <pt x="594" y="0" on="1"/>
        <pt x="115" y="0" on="1"/>
        <pt x="115" y="22" on="1"/>
        <pt x="132" y="94" on="0"/>
        <pt x="132" y="223" on="1"/>
        <pt x="132" y="476" on="1"/>
        <pt x="132" y="606" on="0"/>
        <pt x="115" y="678" on="1"/>
        <pt x="115" y="700" on="1"/>
        <pt x="580" y="703" on="1"/>
        <pt x="550" y="615" on="1"/>
        <pt x="531" y="615" on="1"/>
        <pt x="482" y="629" on="0"/>
      </contour>
      <contour>
        <pt x="278" y="893" on="1"/>
        <pt x="285" y="885" on="0"/>
        <pt x="292" y="833" on="0"/>
        <pt x="292" y="805" on="0"/>
        <pt x="291" y="796" on="1"/>
        <pt x="279" y="785" on="1"/>
        <pt x="233" y="773" on="0"/>
        <pt x="188" y="770" on="1"/>
        <pt x="172" y="770" on="1"/>
        <pt x="157" y="775" on="1"/>
        <pt x="135" y="814" on="0"/>
        <pt x="135" y="873" on="1"/>
        <pt x="150" y="884" on="1"/>
        <pt x="200" y="897" on="0"/>
        <pt x="244" y="899" on="1"/>
        <pt x="266" y="899" on="1"/>
      </contour>
      <contour>
        <pt x="492" y="904" on="1"/>
        <pt x="499" y="896" on="0"/>
        <pt x="506" y="844" on="0"/>
        <pt x="506" y="816" on="0"/>
        <pt x="505" y="807" on="1"/>
        <pt x="493" y="796" on="1"/>
        <pt x="447" y="784" on="0"/>
        <pt x="402" y="781" on="1"/>
        <pt x="386" y="781" on="1"/>
        <pt x="371" y="786" on="1"/>
        <pt x="349" y="825" on="0"/>
        <pt x="349" y="884" on="1"/>
        <pt x="364" y="895" on="1"/>
        <pt x="414" y="908" on="0"/>
        <pt x="458" y="910" on="1"/>
        <pt x="480" y="910" on="1"/>
      </contour>
    </TTGlyph>
    <TTGlyph name="Egrave" xMin="108" yMin="0" xMax="606" yMax="949">
      <contour>
        <pt x="335" y="629" on="1"/>
        <pt x="294" y="629" on="0"/>
        <pt x="271" y="627" on="1"/>
        <pt x="269" y="581" on="0"/>
        <pt x="269" y="402" on="1"/>
        <pt x="526" y="407" on="1"/>
        <pt x="491" y="324" on="1"/>
        <pt x="472" y="324" on="1"/>
        <pt x="434" y="332" on="0"/>
        <pt x="287" y="332" on="0"/>
        <pt x="269" y="330" on="1"/>
        <pt x="269" y="277" on="1"/>
        <pt x="269" y="109" on="0"/>
        <pt x="272" y="76" on="1"/>
        <pt x="295" y="74" on="0"/>
        <pt x="402" y="74" on="0"/>
        <pt x="552" y="92" on="0"/>
        <pt x="587" y="106" on="1"/>
        <pt x="606" y="106" on="1"/>
        <pt x="587" y="0" on="1"/>
        <pt x="108" y="0" on="1"/>
        <pt x="108" y="22" on="1"/>
        <pt x="125" y="94" on="0"/>
        <pt x="125" y="223" on="1"/>
        <pt x="125" y="476" on="1"/>
        <pt x="125" y="606" on="0"/>
        <pt x="108" y="678" on="1"/>
        <pt x="108" y="700" on="1"/>
        <pt x="573" y="703" on="1"/>
        <pt x="543" y="615" on="1"/>
        <pt x="524" y="615" on="1"/>
        <pt x="475" y="629" on="0"/>
      </contour>
      <contour>
        <pt x="444" y="761" on="1"/>
        <pt x="407" y="722" on="1"/>
        <pt x="294" y="778" on="0"/>
        <pt x="185" y="874" on="1"/>
        <pt x="222" y="927" on="0"/>
        <pt x="285" y="949" on="1"/>
        <pt x="345" y="846" on="0"/>
      </contour>
    </TTGlyph>
    <TTGlyph name="Eth" xMin="-11" yMin="0" xMax="761" yMax="701">
      <contour>
        <pt x="356" y="0" on="1"/>
        <pt x="172" y="1" on="1"/>
        <pt x="94" y="1" on="1"/>
        <pt x="94" y="23" on="1"/>
        <pt x="111" y="87" on="0"/>
        <pt x="111" y="221" on="1"/>
        <pt x="111" y="330" on="1"/>
        <pt x="-11" y="325" on="1"/>
        <pt x="23" y="402" on="1"/>
        <pt x="37" y="402" on="1"/>
        <pt x="85" y="402" on="0"/>
        <pt x="111" y="401" on="1"/>
        <pt x="111" y="479" on="1"/>
        <pt x="111" y="614" on="0"/>
        <pt x="94" y="678" on="1"/>
        <pt x="94" y="700" on="1"/>
        <pt x="138" y="698" on="0"/>
        <pt x="172" y="698" on="1"/>
        <pt x="371" y="701" on="1"/>
        <pt x="569" y="701" on="0"/>
        <pt x="761" y="540" on="0"/>
        <pt x="761" y="373" on="1"/>
        <pt x="761" y="270" on="0"/>
        <pt x="687" y="106" on="0"/>
        <pt x="616" y="59" on="1"/>
        <pt x="528" y="0" on="0"/>
        <pt x="375" y="0" on="1"/>
      </contour>
      <contour>
        <pt x="366" y="325" on="1"/>
        <pt x="327" y="325" on="0"/>
        <pt x="253" y="327" on="1"/>
        <pt x="253" y="119" on="0"/>
        <pt x="256" y="87" on="1"/>
        <pt x="321" y="82" on="0"/>
        <pt x="370" y="82" on="1"/>
        <pt x="495" y="82" on="0"/>
        <pt x="543" y="110" on="1"/>
        <pt x="610" y="180" on="0"/>
        <pt x="610" y="357" on="1"/>
        <pt x="610" y="504" on="0"/>
        <pt x="491" y="627" on="0"/>
        <pt x="352" y="627" on="1"/>
        <pt x="348" y="627" on="0"/>
        <pt x="255" y="626" on="1"/>
        <pt x="253" y="579" on="0"/>
        <pt x="253" y="400" on="1"/>
        <pt x="414" y="404" on="1"/>
        <pt x="380" y="325" on="1"/>
      </contour>
    </TTGlyph>
    <TTGlyph name="Euro" xMin="5" yMin="-12" xMax="687" yMax="712">
      <contour>
        <pt x="498" y="712" on="1"/>
        <pt x="584" y="712" on="0"/>
        <pt x="668" y="675" on="1"/>
        <pt x="658" y="622" on="0"/>
        <pt x="621" y="568" on="1"/>
        <pt x="523" y="627" on="0"/>
        <pt x="424" y="627" on="1"/>
        <pt x="392" y="627" on="0"/>
        <pt x="358" y="622" on="1"/>
        <pt x="272" y="564" on="0"/>
        <pt x="248" y="457" on="1"/>
        <pt x="437" y="457" on="1"/>
        <pt x="492" y="457" on="0"/>
        <pt x="586" y="464" on="1"/>
        <pt x="553" y="382" on="1"/>
        <pt x="239" y="382" on="1"/>
        <pt x="239" y="375" on="1"/>
        <pt x="239" y="358" on="0"/>
        <pt x="241" y="328" on="1"/>
        <pt x="433" y="328" on="1"/>
        <pt x="488" y="328" on="0"/>
        <pt x="582" y="335" on="1"/>
        <pt x="549" y="253" on="1"/>
        <pt x="255" y="253" on="1"/>
        <pt x="280" y="170" on="0"/>
        <pt x="397" y="78" on="0"/>
        <pt x="476" y="78" on="1"/>
        <pt x="511" y="78" on="0"/>
        <pt x="613" y="116" on="0"/>
        <pt x="647" y="136" on="1"/>
        <pt x="687" y="78" on="1"/>
        <pt x="661" y="62" on="1"/>
        <pt x="544" y="-12" on="0"/>
        <pt x="308" y="-12" on="0"/>
        <pt x="120" y="122" on="0"/>
        <pt x="95" y="254" on="1"/>
        <pt x="5" y="254" on="1"/>
        <pt x="39" y="328" on="1"/>
        <pt x="88" y="328" on="1"/>
        <pt x="88" y="340" on="1"/>
        <pt x="88" y="355" on="0"/>
        <pt x="90" y="383" on="1"/>
        <pt x="14" y="383" on="1"/>
        <pt x="49" y="457" on="1"/>
        <pt x="105" y="457" on="1"/>
        <pt x="142" y="575" on="0"/>
        <pt x="355" y="712" on="0"/>
      </contour>
    </TTGlyph>
    <TTGlyph name="F" xMin="108" yMin="0" xMax="548" yMax="703">
      <contour>
        <pt x="500" y="605" on="1"/>
        <pt x="444" y="621" on="0"/>
        <pt x="293" y="621" on="0"/>
        <pt x="270" y="619" on="1"/>
        <pt x="267" y="590" on="0"/>
        <pt x="267" y="398" on="1"/>
        <pt x="497" y="403" on="1"/>
        <pt x="460" y="309" on="1"/>
        <pt x="441" y="309" on="1"/>
        <pt x="393" y="319" on="0"/>
        <pt x="285" y="319" on="0"/>
        <pt x="267" y="317" on="1"/>
        <pt x="267" y="224" on="1"/>
        <pt x="267" y="82" on="0"/>
        <pt x="283" y="22" on="1"/>
        <pt x="283" y="0" on="1"/>
        <pt x="108" y="0" on="1"/>
        <pt x="108" y="22" on="1"/>
        <pt x="125" y="94" on="0"/>
        <pt x="125" y="223" on="1"/>
        <pt x="125" y="476" on="1"/>
        <pt x="125" y="606" on="0"/>
        <pt x="108" y="678" on="1"/>
        <pt x="108" y="700" on="1"/>
        <pt x="548" y="703" on="1"/>
        <pt x="519" y="605" on="1"/>
      </contour>
    </TTGlyph>
    <TTGlyph name="G" xMin="49" yMin="-12" xMax="742" yMax="712">
      <contour>
        <pt x="684" y="264" on="1"/>
        <pt x="684" y="132" on="0"/>
        <pt x="690" y="83" on="1"/>
        <pt x="632" y="47" on="0"/>
        <pt x="469" y="-12" on="0"/>
        <pt x="392" y="-12" on="1"/>
        <pt x="247" y="-12" on="0"/>
        <pt x="49" y="182" on="0"/>
        <pt x="49" y="491" on="0"/>
        <pt x="265" y="712" on="0"/>
        <pt x="426" y="712" on="1"/>
        <pt x="569" y="712" on="0"/>
        <pt x="691" y="624" on="1"/>
        <pt x="648" y="577" on="0"/>
        <pt x="565" y="530" on="1"/>
        <pt x="534" y="572" on="0"/>
        <pt x="426" y="630" on="0"/>
        <pt x="315" y="630" on="0"/>
        <pt x="293" y="624" on="1"/>
        <pt x="200" y="544" on="0"/>
        <pt x="200" y="367" on="1"/>
        <pt x="200" y="222" on="0"/>
        <pt x="306" y="75" on="0"/>
        <pt x="427" y="75" on="1"/>
        <pt x="488" y="75" on="0"/>
        <pt x="536" y="91" on="1"/>
        <pt x="550" y="164" on="0"/>
        <pt x="550" y="261" on="1"/>
        <pt x="417" y="261" on="1"/>
        <pt x="468" y="341" on="1"/>
        <pt x="564" y="334" on="0"/>
        <pt x="698" y="334" on="0"/>
        <pt x="742" y="336" on="1"/>
        <pt x="707" y="264" on="1"/>
      </contour>
    </TTGlyph>
    <TTGlyph name="H" xMin="108" yMin="0" xMax="722" yMax="700">
      <contour>
        <pt x="707" y="477" on="1"/>
        <pt x="707" y="223" on="1"/>
        <pt x="707" y="79" on="0"/>
        <pt x="722" y="22" on="1"/>
        <pt x="722" y="0" on="1"/>
        <pt x="550" y="0" on="1"/>
        <pt x="550" y="22" on="1"/>
        <pt x="556" y="45" on="0"/>
        <pt x="565" y="184" on="0"/>
        <pt x="565" y="220" on="1"/>
        <pt x="565" y="315" on="1"/>
        <pt x="453" y="317" on="0"/>
        <pt x="321" y="317" on="0"/>
        <pt x="265" y="316" on="1"/>
        <pt x="265" y="220" on="1"/>
        <pt x="265" y="185" on="0"/>
        <pt x="274" y="45" on="0"/>
        <pt x="279" y="22" on="1"/>
        <pt x="279" y="0" on="1"/>
        <pt x="108" y="0" on="1"/>
        <pt x="108" y="22" on="1"/>
        <pt x="123" y="79" on="0"/>
        <pt x="123" y="223" on="1"/>
        <pt x="123" y="477" on="1"/>
        <pt x="123" y="621" on="0"/>
        <pt x="108" y="678" on="1"/>
        <pt x="108" y="700" on="1"/>
        <pt x="279" y="700" on="1"/>
        <pt x="279" y="678" on="1"/>
        <pt x="274" y="655" on="0"/>
        <pt x="265" y="515" on="0"/>
        <pt x="265" y="479" on="1"/>
        <pt x="265" y="403" on="1"/>
        <pt x="565" y="403" on="1"/>
        <pt x="565" y="479" on="1"/>
        <pt x="565" y="516" on="0"/>
        <pt x="556" y="655" on="0"/>
        <pt x="550" y="678" on="1"/>
        <pt x="550" y="700" on="1"/>
        <pt x="722" y="700" on="1"/>
        <pt x="722" y="678" on="1"/>
        <pt x="707" y="621" on="0"/>
      </contour>
    </TTGlyph>
    <TTGlyph name="I" xMin="108" yMin="0" xMax="282" yMax="700">
      <contour>
        <pt x="266" y="469" on="1"/>
        <pt x="266" y="230" on="1"/>
        <pt x="266" y="82" on="0"/>
        <pt x="282" y="22" on="1"/>
        <pt x="282" y="0" on="1"/>
        <pt x="108" y="0" on="1"/>
        <pt x="108" y="22" on="1"/>
        <pt x="124" y="82" on="0"/>
        <pt x="124" y="230" on="1"/>
        <pt x="124" y="479" on="1"/>
        <pt x="124" y="618" on="0"/>
        <pt x="108" y="678" on="1"/>
        <pt x="108" y="700" on="1"/>
        <pt x="282" y="700" on="1"/>
        <pt x="282" y="678" on="1"/>
        <pt x="275" y="655" on="0"/>
        <pt x="266" y="508" on="0"/>
      </contour>
    </TTGlyph>
    <TTGlyph name="IJ" xMin="115" yMin="-248" xMax="702" yMax="700">
      <contour>
        <pt x="273" y="469" on="1"/>
        <pt x="273" y="230" on="1"/>
        <pt x="273" y="82" on="0"/>
        <pt x="289" y="22" on="1"/>
        <pt x="289" y="0" on="1"/>
        <pt x="115" y="0" on="1"/>
        <pt x="115" y="22" on="1"/>
        <pt x="131" y="82" on="0"/>
        <pt x="131" y="230" on="1"/>
        <pt x="131" y="479" on="1"/>
        <pt x="131" y="618" on="0"/>
        <pt x="115" y="678" on="1"/>
        <pt x="115" y="700" on="1"/>
        <pt x="289" y="700" on="1"/>
        <pt x="289" y="678" on="1"/>
        <pt x="282" y="655" on="0"/>
        <pt x="273" y="508" on="0"/>
      </contour>
      <contour>
        <pt x="544" y="203" on="1"/>
        <pt x="544" y="479" on="1"/>
        <pt x="544" y="626" on="0"/>
        <pt x="526" y="678" on="1"/>
        <pt x="526" y="700" on="1"/>
        <pt x="702" y="700" on="1"/>
        <pt x="702" y="678" on="1"/>
        <pt x="695" y="655" on="0"/>
        <pt x="686" y="508" on="0"/>
        <pt x="686" y="469" on="1"/>
        <pt x="686" y="161" on="1"/>
        <pt x="686" y="63" on="0"/>
        <pt x="658" y="-22" on="0"/>
        <pt x="643" y="-67" on="0"/>
        <pt x="604" y="-116" on="0"/>
        <pt x="586" y="-140" on="0"/>
        <pt x="532" y="-184" on="0"/>
        <pt x="524" y="-190" on="1"/>
        <pt x="444" y="-248" on="1"/>
        <pt x="391" y="-200" on="1"/>
        <pt x="414" y="-184" on="0"/>
        <pt x="447" y="-157" on="1"/>
        <pt x="507" y="-106" on="0"/>
        <pt x="544" y="38" on="0"/>
      </contour>
    </TTGlyph>
    <TTGlyph name="Iacute" xMin="73" yMin="0" xMax="332" yMax="949">
      <contour>
        <pt x="273" y="469" on="1"/>
        <pt x="273" y="230" on="1"/>
        <pt x="273" y="82" on="0"/>
        <pt x="289" y="22" on="1"/>
        <pt x="289" y="0" on="1"/>
        <pt x="115" y="0" on="1"/>
        <pt x="115" y="22" on="1"/>
        <pt x="131" y="82" on="0"/>
        <pt x="131" y="230" on="1"/>
        <pt x="131" y="479" on="1"/>
        <pt x="131" y="618" on="0"/>
        <pt x="115" y="678" on="1"/>
        <pt x="115" y="700" on="1"/>
        <pt x="289" y="700" on="1"/>
        <pt x="289" y="678" on="1"/>
        <pt x="282" y="655" on="0"/>
        <pt x="273" y="508" on="0"/>
      </contour>
      <contour>
        <pt x="332" y="875" on="1"/>
        <pt x="223" y="779" on="0"/>
        <pt x="110" y="723" on="1"/>
        <pt x="73" y="762" on="1"/>
        <pt x="173" y="847" on="0"/>
        <pt x="233" y="949" on="1"/>
        <pt x="296" y="927" on="0"/>
      </contour>
    </TTGlyph>
    <TTGlyph name="Icircumflex" xMin="39" yMin="0" xMax="364" yMax="920">
      <contour>
        <pt x="273" y="469" on="1"/>
        <pt x="273" y="230" on="1"/>
        <pt x="273" y="82" on="0"/>
        <pt x="289" y="22" on="1"/>
        <pt x="289" y="0" on="1"/>
        <pt x="115" y="0" on="1"/>
        <pt x="115" y="22" on="1"/>
        <pt x="131" y="82" on="0"/>
        <pt x="131" y="230" on="1"/>
        <pt x="131" y="479" on="1"/>
        <pt x="131" y="618" on="0"/>
        <pt x="115" y="678" on="1"/>
        <pt x="115" y="700" on="1"/>
        <pt x="289" y="700" on="1"/>
        <pt x="289" y="678" on="1"/>
        <pt x="282" y="655" on="0"/>
        <pt x="273" y="508" on="0"/>
      </contour>
      <contour>
        <pt x="159" y="920" on="1"/>
        <pt x="239" y="920" on="1"/>
        <pt x="265" y="867" on="0"/>
        <pt x="314" y="822" on="1"/>
        <pt x="331" y="806" on="0"/>
        <pt x="364" y="778" on="1"/>
        <pt x="322" y="733" on="1"/>
        <pt x="249" y="777" on="0"/>
        <pt x="196" y="836" on="1"/>
        <pt x="150" y="789" on="0"/>
        <pt x="82" y="738" on="1"/>
        <pt x="39" y="782" on="1"/>
        <pt x="126" y="858" on="0"/>
      </contour>
    </TTGlyph>
    <TTGlyph name="Idieresis" xMin="16" yMin="0" xMax="387" yMax="910">
      <contour>
        <pt x="273" y="469" on="1"/>
        <pt x="273" y="230" on="1"/>
        <pt x="273" y="82" on="0"/>
        <pt x="289" y="22" on="1"/>
        <pt x="289" y="0" on="1"/>
        <pt x="115" y="0" on="1"/>
        <pt x="115" y="22" on="1"/>
        <pt x="131" y="82" on="0"/>
        <pt x="131" y="230" on="1"/>
        <pt x="131" y="479" on="1"/>
        <pt x="131" y="618" on="0"/>
        <pt x="115" y="678" on="1"/>
        <pt x="115" y="700" on="1"/>
        <pt x="289" y="700" on="1"/>
        <pt x="289" y="678" on="1"/>
        <pt x="282" y="655" on="0"/>
        <pt x="273" y="508" on="0"/>
      </contour>
      <contour>
        <pt x="159" y="893" on="1"/>
        <pt x="166" y="885" on="0"/>
        <pt x="173" y="833" on="0"/>
        <pt x="173" y="805" on="0"/>
        <pt x="172" y="796" on="1"/>
        <pt x="160" y="785" on="1"/>
        <pt x="114" y="773" on="0"/>
        <pt x="69" y="770" on="1"/>
        <pt x="53" y="770" on="1"/>
        <pt x="38" y="775" on="1"/>
        <pt x="16" y="814" on="0"/>
        <pt x="16" y="873" on="1"/>
        <pt x="31" y="884" on="1"/>
        <pt x="81" y="897" on="0"/>
        <pt x="125" y="899" on="1"/>
        <pt x="147" y="899" on="1"/>
      </contour>
      <contour>
        <pt x="373" y="904" on="1"/>
        <pt x="380" y="896" on="0"/>
        <pt x="387" y="844" on="0"/>
        <pt x="387" y="816" on="0"/>
        <pt x="386" y="807" on="1"/>
        <pt x="374" y="796" on="1"/>
        <pt x="328" y="784" on="0"/>
        <pt x="283" y="781" on="1"/>
        <pt x="267" y="781" on="1"/>
        <pt x="252" y="786" on="1"/>
        <pt x="230" y="825" on="0"/>
        <pt x="230" y="884" on="1"/>
        <pt x="245" y="895" on="1"/>
        <pt x="295" y="908" on="0"/>
        <pt x="339" y="910" on="1"/>
        <pt x="361" y="910" on="1"/>
      </contour>
    </TTGlyph>
    <TTGlyph name="Igrave" xMin="73" yMin="0" xMax="332" yMax="949">
      <contour>
        <pt x="273" y="469" on="1"/>
        <pt x="273" y="230" on="1"/>
        <pt x="273" y="82" on="0"/>
        <pt x="289" y="22" on="1"/>
        <pt x="289" y="0" on="1"/>
        <pt x="115" y="0" on="1"/>
        <pt x="115" y="22" on="1"/>
        <pt x="131" y="82" on="0"/>
        <pt x="131" y="230" on="1"/>
        <pt x="131" y="479" on="1"/>
        <pt x="131" y="618" on="0"/>
        <pt x="115" y="678" on="1"/>
        <pt x="115" y="700" on="1"/>
        <pt x="289" y="700" on="1"/>
        <pt x="289" y="678" on="1"/>
        <pt x="282" y="655" on="0"/>
        <pt x="273" y="508" on="0"/>
      </contour>
      <contour>
        <pt x="332" y="761" on="1"/>
        <pt x="295" y="722" on="1"/>
        <pt x="182" y="778" on="0"/>
        <pt x="73" y="874" on="1"/>
        <pt x="110" y="927" on="0"/>
        <pt x="173" y="949" on="1"/>
        <pt x="233" y="846" on="0"/>
      </contour>
    </TTGlyph>
    <TTGlyph name="Itilde" xMin="3" yMin="0" xMax="401" yMax="909">
      <contour>
        <pt x="273" y="469" on="1"/>
        <pt x="273" y="230" on="1"/>
        <pt x="273" y="82" on="0"/>
        <pt x="289" y="22" on="1"/>
        <pt x="289" y="0" on="1"/>
        <pt x="115" y="0" on="1"/>
        <pt x="115" y="22" on="1"/>
        <pt x="131" y="82" on="0"/>
        <pt x="131" y="230" on="1"/>
        <pt x="131" y="479" on="1"/>
        <pt x="131" y="618" on="0"/>
        <pt x="115" y="678" on="1"/>
        <pt x="115" y="700" on="1"/>
        <pt x="289" y="700" on="1"/>
        <pt x="289" y="678" on="1"/>
        <pt x="282" y="655" on="0"/>
        <pt x="273" y="508" on="0"/>
      </contour>
      <contour>
        <pt x="283" y="773" on="1"/>
        <pt x="259" y="773" on="0"/>
        <pt x="140" y="821" on="0"/>
        <pt x="107" y="821" on="0"/>
        <pt x="90" y="817" on="0"/>
        <pt x="79" y="813" on="0"/>
        <pt x="60" y="803" on="0"/>
        <pt x="54" y="799" on="0"/>
        <pt x="33" y="786" on="0"/>
        <pt x="32" y="785" on="1"/>
        <pt x="3" y="810" on="1"/>
        <pt x="29" y="841" on="0"/>
        <pt x="104" y="909" on="0"/>
        <pt x="150" y="909" on="0"/>
        <pt x="265" y="866" on="0"/>
        <pt x="295" y="866" on="0"/>
        <pt x="313" y="869" on="0"/>
        <pt x="336" y="879" on="0"/>
        <pt x="345" y="883" on="0"/>
        <pt x="373" y="899" on="0"/>
        <pt x="374" y="899" on="1"/>
        <pt x="401" y="874" on="1"/>
        <pt x="318" y="773" on="0"/>
      </contour>
    </TTGlyph>
    <TTGlyph name="J" xMin="-13" yMin="-248" xMax="298" yMax="700">
      <contour>
        <pt x="140" y="203" on="1"/>
        <pt x="140" y="479" on="1"/>
        <pt x="140" y="626" on="0"/>
        <pt x="122" y="678" on="1"/>
        <pt x="122" y="700" on="1"/>
        <pt x="298" y="700" on="1"/>
        <pt x="298" y="678" on="1"/>
        <pt x="291" y="655" on="0"/>
        <pt x="282" y="508" on="0"/>
        <pt x="282" y="469" on="1"/>
        <pt x="282" y="161" on="1"/>
        <pt x="282" y="63" on="0"/>
        <pt x="254" y="-22" on="0"/>
        <pt x="239" y="-67" on="0"/>
        <pt x="200" y="-116" on="0"/>
        <pt x="182" y="-140" on="0"/>
        <pt x="128" y="-184" on="0"/>
        <pt x="120" y="-190" on="1"/>
        <pt x="40" y="-248" on="1"/>
        <pt x="-13" y="-200" on="1"/>
        <pt x="10" y="-184" on="0"/>
        <pt x="43" y="-157" on="1"/>
        <pt x="103" y="-106" on="0"/>
        <pt x="140" y="38" on="0"/>
      </contour>
    </TTGlyph>
    <TTGlyph name="Jcircumflex" xMin="-13" yMin="-248" xMax="365" yMax="920">
      <contour>
        <pt x="140" y="203" on="1"/>
        <pt x="140" y="479" on="1"/>
        <pt x="140" y="626" on="0"/>
        <pt x="122" y="678" on="1"/>
        <pt x="122" y="700" on="1"/>
        <pt x="298" y="700" on="1"/>
        <pt x="298" y="678" on="1"/>
        <pt x="291" y="655" on="0"/>
        <pt x="282" y="508" on="0"/>
        <pt x="282" y="469" on="1"/>
        <pt x="282" y="161" on="1"/>
        <pt x="282" y="63" on="0"/>
        <pt x="254" y="-22" on="0"/>
        <pt x="239" y="-67" on="0"/>
        <pt x="200" y="-116" on="0"/>
        <pt x="182" y="-140" on="0"/>
        <pt x="128" y="-184" on="0"/>
        <pt x="120" y="-190" on="1"/>
        <pt x="40" y="-248" on="1"/>
        <pt x="-13" y="-200" on="1"/>
        <pt x="10" y="-184" on="0"/>
        <pt x="43" y="-157" on="1"/>
        <pt x="103" y="-106" on="0"/>
        <pt x="140" y="38" on="0"/>
      </contour>
      <contour>
        <pt x="160" y="920" on="1"/>
        <pt x="240" y="920" on="1"/>
        <pt x="266" y="867" on="0"/>
        <pt x="314" y="822" on="1"/>
        <pt x="332" y="806" on="0"/>
        <pt x="365" y="778" on="1"/>
        <pt x="323" y="733" on="1"/>
        <pt x="250" y="777" on="0"/>
        <pt x="197" y="836" on="1"/>
        <pt x="151" y="789" on="0"/>
        <pt x="83" y="738" on="1"/>
        <pt x="40" y="782" on="1"/>
        <pt x="127" y="858" on="0"/>
      </contour>
    </TTGlyph>
    <TTGlyph name="K" xMin="108" yMin="0" xMax="714" yMax="700">
      <contour>
        <pt x="474" y="700" on="1"/>
        <pt x="640" y="700" on="1"/>
        <pt x="640" y="678" on="1"/>
        <pt x="585" y="670" on="0"/>
        <pt x="508" y="579" on="1"/>
        <pt x="349" y="385" on="1"/>
        <pt x="485" y="219" on="1"/>
        <pt x="628" y="44" on="0"/>
        <pt x="714" y="22" on="1"/>
        <pt x="714" y="0" on="1"/>
        <pt x="520" y="0" on="1"/>
        <pt x="462" y="65" on="0"/>
        <pt x="265" y="316" on="1"/>
        <pt x="265" y="220" on="1"/>
        <pt x="265" y="185" on="0"/>
        <pt x="274" y="45" on="0"/>
        <pt x="279" y="22" on="1"/>
        <pt x="279" y="0" on="1"/>
        <pt x="108" y="0" on="1"/>
        <pt x="108" y="22" on="1"/>
        <pt x="123" y="79" on="0"/>
        <pt x="123" y="223" on="1"/>
        <pt x="123" y="477" on="1"/>
        <pt x="123" y="621" on="0"/>
        <pt x="108" y="678" on="1"/>
        <pt x="108" y="700" on="1"/>
        <pt x="279" y="700" on="1"/>
        <pt x="279" y="678" on="1"/>
        <pt x="274" y="655" on="0"/>
        <pt x="265" y="515" on="0"/>
        <pt x="265" y="479" on="1"/>
        <pt x="265" y="408" on="1"/>
        <pt x="409" y="580" on="1"/>
        <pt x="474" y="658" on="0"/>
      </contour>
    </TTGlyph>
    <TTGlyph name="L" xMin="108" yMin="0" xMax="604" yMax="700">
      <contour>
        <pt x="108" y="0" on="1"/>
        <pt x="108" y="22" on="1"/>
        <pt x="124" y="91" on="0"/>
        <pt x="124" y="220" on="1"/>
        <pt x="124" y="479" on="1"/>
        <pt x="124" y="618" on="0"/>
        <pt x="108" y="678" on="1"/>
        <pt x="108" y="700" on="1"/>
        <pt x="282" y="700" on="1"/>
        <pt x="282" y="678" on="1"/>
        <pt x="275" y="655" on="0"/>
        <pt x="266" y="513" on="0"/>
        <pt x="266" y="476" on="1"/>
        <pt x="266" y="209" on="1"/>
        <pt x="266" y="136" on="0"/>
        <pt x="272" y="76" on="1"/>
        <pt x="291" y="74" on="0"/>
        <pt x="351" y="74" on="1"/>
        <pt x="509" y="74" on="0"/>
        <pt x="585" y="106" on="1"/>
        <pt x="604" y="106" on="1"/>
        <pt x="586" y="0" on="1"/>
      </contour>
    </TTGlyph>
    <TTGlyph name="Ldotaccent" xMin="108" yMin="0" xMax="604" yMax="700">
      <contour>
        <pt x="108" y="0" on="1"/>
        <pt x="108" y="22" on="1"/>
        <pt x="124" y="91" on="0"/>
        <pt x="124" y="220" on="1"/>
        <pt x="124" y="479" on="1"/>
        <pt x="124" y="618" on="0"/>
        <pt x="108" y="678" on="1"/>
        <pt x="108" y="700" on="1"/>
        <pt x="282" y="700" on="1"/>
        <pt x="282" y="678" on="1"/>
        <pt x="275" y="655" on="0"/>
        <pt x="266" y="513" on="0"/>
        <pt x="266" y="476" on="1"/>
        <pt x="266" y="209" on="1"/>
        <pt x="266" y="136" on="0"/>
        <pt x="272" y="76" on="1"/>
        <pt x="291" y="74" on="0"/>
        <pt x="351" y="74" on="1"/>
        <pt x="509" y="74" on="0"/>
        <pt x="585" y="106" on="1"/>
        <pt x="604" y="106" on="1"/>
        <pt x="586" y="0" on="1"/>
      </contour>
      <contour>
        <pt x="488" y="328" on="1"/>
        <pt x="494" y="328" on="0"/>
        <pt x="499" y="328" on="1"/>
        <pt x="511" y="321" on="1"/>
        <pt x="521" y="311" on="0"/>
        <pt x="529" y="251" on="0"/>
        <pt x="529" y="218" on="0"/>
        <pt x="527" y="206" on="1"/>
        <pt x="517" y="197" on="1"/>
        <pt x="472" y="184" on="0"/>
        <pt x="383" y="176" on="1"/>
        <pt x="371" y="182" on="1"/>
        <pt x="362" y="197" on="0"/>
        <pt x="351" y="267" on="0"/>
        <pt x="351" y="294" on="0"/>
        <pt x="351" y="298" on="1"/>
        <pt x="361" y="307" on="1"/>
        <pt x="425" y="328" on="0"/>
      </contour>
    </TTGlyph>
    <TTGlyph name="Lslash" xMin="0" yMin="0" xMax="602" yMax="700">
      <contour>
        <pt x="0" y="257" on="1"/>
        <pt x="5" y="342" on="1"/>
        <pt x="183" y="399" on="0"/>
        <pt x="385" y="483" on="1"/>
        <pt x="381" y="400" on="1"/>
        <pt x="316" y="379" on="0"/>
        <pt x="181" y="327" on="1"/>
        <pt x="60" y="284" on="0"/>
      </contour>
      <contour>
        <pt x="106" y="0" on="1"/>
        <pt x="106" y="22" on="1"/>
        <pt x="122" y="91" on="0"/>
        <pt x="122" y="220" on="1"/>
        <pt x="122" y="479" on="1"/>
        <pt x="122" y="618" on="0"/>
        <pt x="106" y="678" on="1"/>
        <pt x="106" y="700" on="1"/>
        <pt x="280" y="700" on="1"/>
        <pt x="280" y="678" on="1"/>
        <pt x="273" y="655" on="0"/>
        <pt x="264" y="513" on="0"/>
        <pt x="264" y="476" on="1"/>
        <pt x="264" y="209" on="1"/>
        <pt x="264" y="136" on="0"/>
        <pt x="270" y="76" on="1"/>
        <pt x="289" y="74" on="0"/>
        <pt x="349" y="74" on="1"/>
        <pt x="507" y="74" on="0"/>
        <pt x="583" y="106" on="1"/>
        <pt x="602" y="106" on="1"/>
        <pt x="584" y="0" on="1"/>
      </contour>
    </TTGlyph>
    <TTGlyph name="M" xMin="75" yMin="-10" xMax="869" yMax="717">
      <contour>
        <pt x="75" y="22" on="1"/>
        <pt x="113" y="249" on="0"/>
        <pt x="113" y="550" on="1"/>
        <pt x="113" y="630" on="0"/>
        <pt x="109" y="679" on="1"/>
        <pt x="109" y="701" on="1"/>
        <pt x="274" y="714" on="1"/>
        <pt x="284" y="666" on="0"/>
        <pt x="349" y="464" on="0"/>
        <pt x="473" y="146" on="1"/>
        <pt x="555" y="373" on="0"/>
        <pt x="641" y="655" on="0"/>
        <pt x="649" y="699" on="1"/>
        <pt x="820" y="717" on="1"/>
        <pt x="820" y="695" on="1"/>
        <pt x="819" y="674" on="0"/>
        <pt x="819" y="547" on="0"/>
        <pt x="842" y="210" on="0"/>
        <pt x="869" y="22" on="1"/>
        <pt x="869" y="0" on="1"/>
        <pt x="704" y="0" on="1"/>
        <pt x="704" y="22" on="1"/>
        <pt x="707" y="81" on="0"/>
        <pt x="707" y="155" on="1"/>
        <pt x="707" y="341" on="0"/>
        <pt x="689" y="505" on="1"/>
        <pt x="566" y="161" on="0"/>
        <pt x="520" y="2" on="1"/>
        <pt x="399" y="-10" on="1"/>
        <pt x="399" y="37" on="0"/>
        <pt x="220" y="510" on="1"/>
        <pt x="209" y="334" on="0"/>
        <pt x="209" y="101" on="0"/>
        <pt x="212" y="22" on="1"/>
        <pt x="212" y="0" on="1"/>
        <pt x="75" y="0" on="1"/>
      </contour>
    </TTGlyph>
    <TTGlyph name="N" xMin="72" yMin="-11" xMax="703" yMax="710">
      <contour>
        <pt x="209" y="0" on="1"/>
        <pt x="72" y="0" on="1"/>
        <pt x="72" y="22" on="1"/>
        <pt x="88" y="82" on="0"/>
        <pt x="88" y="249" on="1"/>
        <pt x="88" y="452" on="1"/>
        <pt x="88" y="601" on="0"/>
        <pt x="75" y="677" on="1"/>
        <pt x="75" y="699" on="1"/>
        <pt x="233" y="710" on="1"/>
        <pt x="585" y="216" on="1"/>
        <pt x="585" y="479" on="1"/>
        <pt x="585" y="530" on="0"/>
        <pt x="571" y="653" on="0"/>
        <pt x="562" y="678" on="1"/>
        <pt x="562" y="700" on="1"/>
        <pt x="703" y="700" on="1"/>
        <pt x="703" y="678" on="1"/>
        <pt x="697" y="653" on="0"/>
        <pt x="687" y="508" on="0"/>
        <pt x="687" y="451" on="1"/>
        <pt x="687" y="213" on="1"/>
        <pt x="687" y="155" on="0"/>
        <pt x="699" y="17" on="0"/>
        <pt x="703" y="2" on="1"/>
        <pt x="572" y="-11" on="1"/>
        <pt x="190" y="524" on="1"/>
        <pt x="190" y="220" on="1"/>
        <pt x="190" y="94" on="0"/>
        <pt x="209" y="22" on="1"/>
      </contour>
    </TTGlyph>
    <TTGlyph name="Nacute" xMin="69" yMin="-11" xMax="700" yMax="949">
      <contour>
        <pt x="206" y="0" on="1"/>
        <pt x="69" y="0" on="1"/>
        <pt x="69" y="22" on="1"/>
        <pt x="85" y="82" on="0"/>
        <pt x="85" y="249" on="1"/>
        <pt x="85" y="452" on="1"/>
        <pt x="85" y="601" on="0"/>
        <pt x="72" y="677" on="1"/>
        <pt x="72" y="699" on="1"/>
        <pt x="230" y="710" on="1"/>
        <pt x="582" y="216" on="1"/>
        <pt x="582" y="479" on="1"/>
        <pt x="582" y="530" on="0"/>
        <pt x="568" y="653" on="0"/>
        <pt x="559" y="678" on="1"/>
        <pt x="559" y="700" on="1"/>
        <pt x="700" y="700" on="1"/>
        <pt x="700" y="678" on="1"/>
        <pt x="694" y="653" on="0"/>
        <pt x="684" y="508" on="0"/>
        <pt x="684" y="451" on="1"/>
        <pt x="684" y="213" on="1"/>
        <pt x="684" y="155" on="0"/>
        <pt x="696" y="17" on="0"/>
        <pt x="700" y="2" on="1"/>
        <pt x="569" y="-11" on="1"/>
        <pt x="187" y="524" on="1"/>
        <pt x="187" y="220" on="1"/>
        <pt x="187" y="94" on="0"/>
        <pt x="206" y="22" on="1"/>
      </contour>
      <contour>
        <pt x="518" y="875" on="1"/>
        <pt x="409" y="779" on="0"/>
        <pt x="296" y="723" on="1"/>
        <pt x="259" y="762" on="1"/>
        <pt x="359" y="847" on="0"/>
        <pt x="419" y="949" on="1"/>
        <pt x="482" y="927" on="0"/>
      </contour>
    </TTGlyph>
    <TTGlyph name="Ntilde" xMin="79" yMin="-11" xMax="710" yMax="909">
      <contour>
        <pt x="216" y="0" on="1"/>
        <pt x="79" y="0" on="1"/>
        <pt x="79" y="22" on="1"/>
        <pt x="95" y="82" on="0"/>
        <pt x="95" y="249" on="1"/>
        <pt x="95" y="452" on="1"/>
        <pt x="95" y="601" on="0"/>
        <pt x="82" y="677" on="1"/>
        <pt x="82" y="699" on="1"/>
        <pt x="240" y="710" on="1"/>
        <pt x="592" y="216" on="1"/>
        <pt x="592" y="479" on="1"/>
        <pt x="592" y="530" on="0"/>
        <pt x="578" y="653" on="0"/>
        <pt x="569" y="678" on="1"/>
        <pt x="569" y="700" on="1"/>
        <pt x="710" y="700" on="1"/>
        <pt x="710" y="678" on="1"/>
        <pt x="704" y="653" on="0"/>
        <pt x="694" y="508" on="0"/>
        <pt x="694" y="451" on="1"/>
        <pt x="694" y="213" on="1"/>
        <pt x="694" y="155" on="0"/>
        <pt x="706" y="17" on="0"/>
        <pt x="710" y="2" on="1"/>
        <pt x="579" y="-11" on="1"/>
        <pt x="197" y="524" on="1"/>
        <pt x="197" y="220" on="1"/>
        <pt x="197" y="94" on="0"/>
        <pt x="216" y="22" on="1"/>
      </contour>
      <contour>
        <pt x="480" y="773" on="1"/>
        <pt x="456" y="773" on="0"/>
        <pt x="337" y="821" on="0"/>
        <pt x="304" y="821" on="0"/>
        <pt x="287" y="817" on="0"/>
        <pt x="276" y="813" on="0"/>
        <pt x="257" y="803" on="0"/>
        <pt x="251" y="799" on="0"/>
        <pt x="230" y="786" on="0"/>
        <pt x="229" y="785" on="1"/>
        <pt x="200" y="810" on="1"/>
        <pt x="226" y="841" on="0"/>
        <pt x="301" y="909" on="0"/>
        <pt x="347" y="909" on="0"/>
        <pt x="462" y="866" on="0"/>
        <pt x="492" y="866" on="0"/>
        <pt x="510" y="869" on="0"/>
        <pt x="533" y="879" on="0"/>
        <pt x="542" y="883" on="0"/>
        <pt x="570" y="899" on="0"/>
        <pt x="571" y="899" on="1"/>
        <pt x="598" y="874" on="1"/>
        <pt x="515" y="773" on="0"/>
      </contour>
    </TTGlyph>
    <TTGlyph name="O" xMin="49" yMin="-12" xMax="775" yMax="714">
      <contour>
        <pt x="240" y="-12" on="0"/>
        <pt x="49" y="190" on="0"/>
        <pt x="49" y="499" on="0"/>
        <pt x="263" y="714" on="0"/>
        <pt x="595" y="714" on="0"/>
        <pt x="775" y="514" on="0"/>
        <pt x="775" y="368" on="1"/>
        <pt x="775" y="203" on="0"/>
        <pt x="560" y="-12" on="0"/>
      </contour>
      <contour>
        <pt x="624" y="341" on="1"/>
        <pt x="624" y="424" on="0"/>
        <pt x="585" y="548" on="0"/>
        <pt x="481" y="631" on="0"/>
        <pt x="399" y="631" on="1"/>
        <pt x="362" y="631" on="0"/>
        <pt x="286" y="614" on="0"/>
        <pt x="269" y="604" on="1"/>
        <pt x="239" y="573" on="0"/>
        <pt x="200" y="445" on="0"/>
        <pt x="200" y="304" on="0"/>
        <pt x="225" y="203" on="0"/>
        <pt x="278" y="118" on="0"/>
        <pt x="372" y="69" on="0"/>
        <pt x="505" y="69" on="0"/>
        <pt x="555" y="97" on="1"/>
        <pt x="624" y="163" on="0"/>
      </contour>
    </TTGlyph>
    <TTGlyph name="OE" xMin="49" yMin="-11" xMax="1123" yMax="714">
      <contour>
        <pt x="1033" y="615" on="1"/>
        <pt x="969" y="629" on="0"/>
        <pt x="793" y="629" on="0"/>
        <pt x="781" y="628" on="1"/>
        <pt x="779" y="582" on="0"/>
        <pt x="779" y="402" on="1"/>
        <pt x="1035" y="406" on="1"/>
        <pt x="1014" y="324" on="1"/>
        <pt x="992" y="324" on="1"/>
        <pt x="918" y="332" on="0"/>
        <pt x="819" y="332" on="0"/>
        <pt x="779" y="330" on="1"/>
        <pt x="779" y="277" on="1"/>
        <pt x="779" y="109" on="0"/>
        <pt x="783" y="76" on="1"/>
        <pt x="803" y="74" on="0"/>
        <pt x="854" y="74" on="1"/>
        <pt x="1016" y="74" on="0"/>
        <pt x="1093" y="106" on="1"/>
        <pt x="1123" y="106" on="1"/>
        <pt x="1101" y="0" on="1"/>
        <pt x="618" y="0" on="1"/>
        <pt x="618" y="15" on="1"/>
        <pt x="623" y="29" on="0"/>
        <pt x="628" y="64" on="1"/>
        <pt x="527" y="-11" on="0"/>
        <pt x="401" y="-11" on="1"/>
        <pt x="239" y="-11" on="0"/>
        <pt x="49" y="189" on="0"/>
        <pt x="49" y="501" on="0"/>
        <pt x="263" y="714" on="0"/>
        <pt x="431" y="714" on="1"/>
        <pt x="545" y="714" on="0"/>
        <pt x="628" y="653" on="1"/>
        <pt x="625" y="674" on="0"/>
        <pt x="622" y="686" on="1"/>
        <pt x="622" y="700" on="1"/>
        <pt x="1089" y="703" on="1"/>
        <pt x="1057" y="615" on="1"/>
      </contour>
      <contour>
        <pt x="591" y="136" on="0"/>
        <pt x="625" y="266" on="0"/>
        <pt x="625" y="398" on="0"/>
        <pt x="604" y="498" on="0"/>
        <pt x="579" y="540" on="1"/>
        <pt x="527" y="627" on="0"/>
        <pt x="395" y="627" on="1"/>
        <pt x="362" y="627" on="0"/>
        <pt x="287" y="611" on="0"/>
        <pt x="267" y="600" on="1"/>
        <pt x="238" y="566" on="0"/>
        <pt x="201" y="437" on="0"/>
        <pt x="201" y="371" on="1"/>
        <pt x="201" y="73" on="0"/>
        <pt x="444" y="73" on="1"/>
        <pt x="510" y="73" on="0"/>
        <pt x="561" y="104" on="1"/>
        <pt x="558" y="103" on="1"/>
      </contour>
    </TTGlyph>
    <TTGlyph name="Oacute" xMin="49" yMin="-12" xMax="775" yMax="949">
      <contour>
        <pt x="240" y="-12" on="0"/>
        <pt x="49" y="190" on="0"/>
        <pt x="49" y="499" on="0"/>
        <pt x="263" y="714" on="0"/>
        <pt x="595" y="714" on="0"/>
        <pt x="775" y="514" on="0"/>
        <pt x="775" y="368" on="1"/>
        <pt x="775" y="203" on="0"/>
        <pt x="560" y="-12" on="0"/>
      </contour>
      <contour>
        <pt x="624" y="341" on="1"/>
        <pt x="624" y="424" on="0"/>
        <pt x="585" y="548" on="0"/>
        <pt x="481" y="631" on="0"/>
        <pt x="399" y="631" on="1"/>
        <pt x="362" y="631" on="0"/>
        <pt x="286" y="614" on="0"/>
        <pt x="269" y="604" on="1"/>
        <pt x="239" y="573" on="0"/>
        <pt x="200" y="445" on="0"/>
        <pt x="200" y="304" on="0"/>
        <pt x="225" y="203" on="0"/>
        <pt x="278" y="118" on="0"/>
        <pt x="372" y="69" on="0"/>
        <pt x="505" y="69" on="0"/>
        <pt x="555" y="97" on="1"/>
        <pt x="624" y="163" on="0"/>
      </contour>
      <contour>
        <pt x="541" y="875" on="1"/>
        <pt x="432" y="779" on="0"/>
        <pt x="319" y="723" on="1"/>
        <pt x="282" y="762" on="1"/>
        <pt x="382" y="847" on="0"/>
        <pt x="442" y="949" on="1"/>
        <pt x="505" y="927" on="0"/>
      </contour>
    </TTGlyph>
    <TTGlyph name="Ocircumflex" xMin="49" yMin="-12" xMax="775" yMax="920">
      <contour>
        <pt x="240" y="-12" on="0"/>
        <pt x="49" y="190" on="0"/>
        <pt x="49" y="499" on="0"/>
        <pt x="263" y="714" on="0"/>
        <pt x="595" y="714" on="0"/>
        <pt x="775" y="514" on="0"/>
        <pt x="775" y="368" on="1"/>
        <pt x="775" y="203" on="0"/>
        <pt x="560" y="-12" on="0"/>
      </contour>
      <contour>
        <pt x="624" y="341" on="1"/>
        <pt x="624" y="424" on="0"/>
        <pt x="585" y="548" on="0"/>
        <pt x="481" y="631" on="0"/>
        <pt x="399" y="631" on="1"/>
        <pt x="362" y="631" on="0"/>
        <pt x="286" y="614" on="0"/>
        <pt x="269" y="604" on="1"/>
        <pt x="239" y="573" on="0"/>
        <pt x="200" y="445" on="0"/>
        <pt x="200" y="304" on="0"/>
        <pt x="225" y="203" on="0"/>
        <pt x="278" y="118" on="0"/>
        <pt x="372" y="69" on="0"/>
        <pt x="505" y="69" on="0"/>
        <pt x="555" y="97" on="1"/>
        <pt x="624" y="163" on="0"/>
      </contour>
      <contour>
        <pt x="369" y="920" on="1"/>
        <pt x="449" y="920" on="1"/>
        <pt x="475" y="867" on="0"/>
        <pt x="524" y="822" on="1"/>
        <pt x="541" y="806" on="0"/>
        <pt x="574" y="778" on="1"/>
        <pt x="532" y="733" on="1"/>
        <pt x="459" y="777" on="0"/>
        <pt x="406" y="836" on="1"/>
        <pt x="360" y="789" on="0"/>
        <pt x="292" y="738" on="1"/>
        <pt x="249" y="782" on="1"/>
        <pt x="336" y="858" on="0"/>
      </contour>
    </TTGlyph>
    <TTGlyph name="Odieresis" xMin="49" yMin="-12" xMax="775" yMax="910">
      <contour>
        <pt x="240" y="-12" on="0"/>
        <pt x="49" y="190" on="0"/>
        <pt x="49" y="499" on="0"/>
        <pt x="263" y="714" on="0"/>
        <pt x="595" y="714" on="0"/>
        <pt x="775" y="514" on="0"/>
        <pt x="775" y="368" on="1"/>
        <pt x="775" y="203" on="0"/>
        <pt x="560" y="-12" on="0"/>
      </contour>
      <contour>
        <pt x="624" y="341" on="1"/>
        <pt x="624" y="424" on="0"/>
        <pt x="585" y="548" on="0"/>
        <pt x="481" y="631" on="0"/>
        <pt x="399" y="631" on="1"/>
        <pt x="362" y="631" on="0"/>
        <pt x="286" y="614" on="0"/>
        <pt x="269" y="604" on="1"/>
        <pt x="239" y="573" on="0"/>
        <pt x="200" y="445" on="0"/>
        <pt x="200" y="304" on="0"/>
        <pt x="225" y="203" on="0"/>
        <pt x="278" y="118" on="0"/>
        <pt x="372" y="69" on="0"/>
        <pt x="505" y="69" on="0"/>
        <pt x="555" y="97" on="1"/>
        <pt x="624" y="163" on="0"/>
      </contour>
      <contour>
        <pt x="368" y="893" on="1"/>
        <pt x="375" y="885" on="0"/>
        <pt x="382" y="833" on="0"/>
        <pt x="382" y="805" on="0"/>
        <pt x="381" y="796" on="1"/>
        <pt x="369" y="785" on="1"/>
        <pt x="323" y="773" on="0"/>
        <pt x="278" y="770" on="1"/>
        <pt x="262" y="770" on="1"/>
        <pt x="247" y="775" on="1"/>
        <pt x="225" y="814" on="0"/>
        <pt x="225" y="873" on="1"/>
        <pt x="240" y="884" on="1"/>
        <pt x="290" y="897" on="0"/>
        <pt x="334" y="899" on="1"/>
        <pt x="356" y="899" on="1"/>
      </contour>
      <contour>
        <pt x="582" y="904" on="1"/>
        <pt x="589" y="896" on="0"/>
        <pt x="596" y="844" on="0"/>
        <pt x="596" y="816" on="0"/>
        <pt x="595" y="807" on="1"/>
        <pt x="583" y="796" on="1"/>
        <pt x="537" y="784" on="0"/>
        <pt x="492" y="781" on="1"/>
        <pt x="476" y="781" on="1"/>
        <pt x="461" y="786" on="1"/>
        <pt x="439" y="825" on="0"/>
        <pt x="439" y="884" on="1"/>
        <pt x="454" y="895" on="1"/>
        <pt x="504" y="908" on="0"/>
        <pt x="548" y="910" on="1"/>
        <pt x="570" y="910" on="1"/>
      </contour>
    </TTGlyph>
    <TTGlyph name="Ograve" xMin="49" yMin="-12" xMax="775" yMax="949">
      <contour>
        <pt x="240" y="-12" on="0"/>
        <pt x="49" y="190" on="0"/>
        <pt x="49" y="499" on="0"/>
        <pt x="263" y="714" on="0"/>
        <pt x="595" y="714" on="0"/>
        <pt x="775" y="514" on="0"/>
        <pt x="775" y="368" on="1"/>
        <pt x="775" y="203" on="0"/>
        <pt x="560" y="-12" on="0"/>
      </contour>
      <contour>
        <pt x="624" y="341" on="1"/>
        <pt x="624" y="424" on="0"/>
        <pt x="585" y="548" on="0"/>
        <pt x="481" y="631" on="0"/>
        <pt x="399" y="631" on="1"/>
        <pt x="362" y="631" on="0"/>
        <pt x="286" y="614" on="0"/>
        <pt x="269" y="604" on="1"/>
        <pt x="239" y="573" on="0"/>
        <pt x="200" y="445" on="0"/>
        <pt x="200" y="304" on="0"/>
        <pt x="225" y="203" on="0"/>
        <pt x="278" y="118" on="0"/>
        <pt x="372" y="69" on="0"/>
        <pt x="505" y="69" on="0"/>
        <pt x="555" y="97" on="1"/>
        <pt x="624" y="163" on="0"/>
      </contour>
      <contour>
        <pt x="541" y="761" on="1"/>
        <pt x="504" y="722" on="1"/>
        <pt x="391" y="778" on="0"/>
        <pt x="282" y="874" on="1"/>
        <pt x="319" y="927" on="0"/>
        <pt x="382" y="949" on="1"/>
        <pt x="442" y="846" on="0"/>
      </contour>
    </TTGlyph>
    <TTGlyph name="Oslash" xMin="2" yMin="-76" xMax="762" yMax="741">
      <contour>
        <pt x="2" y="339" on="1"/>
        <pt x="2" y="499" on="0"/>
        <pt x="216" y="714" on="0"/>
        <pt x="385" y="714" on="1"/>
        <pt x="504" y="714" on="0"/>
        <pt x="589" y="655" on="1"/>
        <pt x="636" y="727" on="1"/>
        <pt x="762" y="741" on="1"/>
        <pt x="762" y="735" on="1"/>
        <pt x="694" y="657" on="0"/>
        <pt x="649" y="601" on="1"/>
        <pt x="728" y="507" on="0"/>
        <pt x="728" y="368" on="1"/>
        <pt x="728" y="203" on="0"/>
        <pt x="513" y="-12" on="0"/>
        <pt x="351" y="-12" on="1"/>
        <pt x="262" y="-12" on="0"/>
        <pt x="191" y="22" on="1"/>
        <pt x="153" y="-30" on="0"/>
        <pt x="136" y="-59" on="1"/>
        <pt x="5" y="-76" on="1"/>
        <pt x="5" y="-70" on="1"/>
        <pt x="42" y="-29" on="0"/>
        <pt x="120" y="68" on="1"/>
        <pt x="63" y="116" on="0"/>
        <pt x="2" y="257" on="0"/>
      </contour>
      <contour>
        <pt x="352" y="631" on="1"/>
        <pt x="315" y="631" on="0"/>
        <pt x="239" y="614" on="0"/>
        <pt x="222" y="604" on="1"/>
        <pt x="192" y="573" on="0"/>
        <pt x="153" y="445" on="0"/>
        <pt x="153" y="364" on="1"/>
        <pt x="153" y="243" on="0"/>
        <pt x="200" y="166" on="1"/>
        <pt x="426" y="439" on="0"/>
        <pt x="518" y="559" on="1"/>
        <pt x="459" y="631" on="0"/>
      </contour>
      <contour>
        <pt x="577" y="341" on="1"/>
        <pt x="577" y="422" on="0"/>
        <pt x="556" y="486" on="1"/>
        <pt x="384" y="272" on="0"/>
        <pt x="255" y="107" on="1"/>
        <pt x="309" y="69" on="0"/>
        <pt x="458" y="69" on="0"/>
        <pt x="508" y="97" on="1"/>
        <pt x="577" y="163" on="0"/>
      </contour>
    </TTGlyph>
    <TTGlyph name="Otilde" xMin="49" yMin="-12" xMax="775" yMax="909">
      <contour>
        <pt x="240" y="-12" on="0"/>
        <pt x="49" y="190" on="0"/>
        <pt x="49" y="499" on="0"/>
        <pt x="263" y="714" on="0"/>
        <pt x="595" y="714" on="0"/>
        <pt x="775" y="514" on="0"/>
        <pt x="775" y="368" on="1"/>
        <pt x="775" y="203" on="0"/>
        <pt x="560" y="-12" on="0"/>
      </contour>
      <contour>
        <pt x="624" y="341" on="1"/>
        <pt x="624" y="424" on="0"/>
        <pt x="585" y="548" on="0"/>
        <pt x="481" y="631" on="0"/>
        <pt x="399" y="631" on="1"/>
        <pt x="362" y="631" on="0"/>
        <pt x="286" y="614" on="0"/>
        <pt x="269" y="604" on="1"/>
        <pt x="239" y="573" on="0"/>
        <pt x="200" y="445" on="0"/>
        <pt x="200" y="304" on="0"/>
        <pt x="225" y="203" on="0"/>
        <pt x="278" y="118" on="0"/>
        <pt x="372" y="69" on="0"/>
        <pt x="505" y="69" on="0"/>
        <pt x="555" y="97" on="1"/>
        <pt x="624" y="163" on="0"/>
      </contour>
      <contour>
        <pt x="492" y="773" on="1"/>
        <pt x="468" y="773" on="0"/>
        <pt x="349" y="821" on="0"/>
        <pt x="316" y="821" on="0"/>
        <pt x="299" y="817" on="0"/>
        <pt x="288" y="813" on="0"/>
        <pt x="269" y="803" on="0"/>
        <pt x="263" y="799" on="0"/>
        <pt x="242" y="786" on="0"/>
        <pt x="241" y="785" on="1"/>
        <pt x="212" y="810" on="1"/>
        <pt x="238" y="841" on="0"/>
        <pt x="313" y="909" on="0"/>
        <pt x="359" y="909" on="0"/>
        <pt x="474" y="866" on="0"/>
        <pt x="504" y="866" on="0"/>
        <pt x="522" y="869" on="0"/>
        <pt x="545" y="879" on="0"/>
        <pt x="554" y="883" on="0"/>
        <pt x="582" y="899" on="0"/>
        <pt x="583" y="899" on="1"/>
        <pt x="610" y="874" on="1"/>
        <pt x="527" y="773" on="0"/>
      </contour>
    </TTGlyph>
    <TTGlyph name="P" xMin="108" yMin="0" xMax="645" yMax="700">
      <contour>
        <pt x="190" y="698" on="1"/>
        <pt x="357" y="700" on="1"/>
        <pt x="498" y="700" on="0"/>
        <pt x="645" y="612" on="0"/>
        <pt x="645" y="395" on="0"/>
        <pt x="473" y="272" on="0"/>
        <pt x="341" y="272" on="1"/>
        <pt x="305" y="272" on="0"/>
        <pt x="270" y="279" on="1"/>
        <pt x="270" y="148" on="1"/>
        <pt x="270" y="74" on="0"/>
        <pt x="290" y="22" on="1"/>
        <pt x="290" y="0" on="1"/>
        <pt x="108" y="0" on="1"/>
        <pt x="108" y="22" on="1"/>
        <pt x="128" y="79" on="0"/>
        <pt x="128" y="162" on="1"/>
        <pt x="128" y="521" on="1"/>
        <pt x="128" y="621" on="0"/>
        <pt x="111" y="678" on="1"/>
        <pt x="111" y="700" on="1"/>
        <pt x="179" y="698" on="0"/>
      </contour>
      <contour>
        <pt x="495" y="569" on="0"/>
        <pt x="429" y="635" on="0"/>
        <pt x="284" y="635" on="0"/>
        <pt x="272" y="634" on="1"/>
        <pt x="270" y="604" on="0"/>
        <pt x="270" y="468" on="1"/>
        <pt x="270" y="340" on="1"/>
        <pt x="302" y="331" on="0"/>
        <pt x="340" y="331" on="1"/>
        <pt x="416" y="331" on="0"/>
        <pt x="495" y="417" on="0"/>
      </contour>
    </TTGlyph>
    <TTGlyph name="Q" xMin="49" yMin="-96" xMax="799" yMax="714">
      <contour>
        <pt x="240" y="-12" on="0"/>
        <pt x="49" y="189" on="0"/>
        <pt x="49" y="500" on="0"/>
        <pt x="265" y="714" on="0"/>
        <pt x="593" y="714" on="0"/>
        <pt x="774" y="518" on="0"/>
        <pt x="774" y="365" on="1"/>
        <pt x="774" y="181" on="0"/>
        <pt x="637" y="68" on="1"/>
        <pt x="720" y="-4" on="0"/>
        <pt x="798" y="-41" on="1"/>
        <pt x="799" y="-49" on="1"/>
        <pt x="654" y="-96" on="1"/>
        <pt x="594" y="-27" on="0"/>
        <pt x="549" y="17" on="1"/>
        <pt x="482" y="-12" on="0"/>
        <pt x="399" y="-12" on="1"/>
      </contour>
      <contour>
        <pt x="510" y="607" on="1"/>
        <pt x="465" y="631" on="0"/>
        <pt x="322" y="631" on="0"/>
        <pt x="268" y="604" on="1"/>
        <pt x="238" y="571" on="0"/>
        <pt x="200" y="442" on="0"/>
        <pt x="200" y="308" on="0"/>
        <pt x="222" y="208" on="0"/>
        <pt x="273" y="118" on="0"/>
        <pt x="370" y="66" on="0"/>
        <pt x="437" y="66" on="1"/>
        <pt x="466" y="66" on="0"/>
        <pt x="490" y="72" on="1"/>
        <pt x="464" y="96" on="0"/>
        <pt x="385" y="163" on="1"/>
        <pt x="385" y="169" on="1"/>
        <pt x="486" y="207" on="1"/>
        <pt x="529" y="158" on="0"/>
        <pt x="574" y="121" on="1"/>
        <pt x="624" y="205" on="0"/>
        <pt x="624" y="333" on="1"/>
        <pt x="624" y="547" on="0"/>
      </contour>
    </TTGlyph>
    <TTGlyph name="R" xMin="108" yMin="0" xMax="711" yMax="700">
      <contour>
        <pt x="209" y="698" on="1"/>
        <pt x="352" y="700" on="1"/>
        <pt x="481" y="700" on="0"/>
        <pt x="622" y="622" on="0"/>
        <pt x="622" y="437" on="0"/>
        <pt x="508" y="325" on="0"/>
        <pt x="413" y="316" on="1"/>
        <pt x="527" y="183" on="1"/>
        <pt x="600" y="98" on="0"/>
        <pt x="679" y="34" on="0"/>
        <pt x="711" y="24" on="1"/>
        <pt x="711" y="0" on="1"/>
        <pt x="536" y="0" on="1"/>
        <pt x="522" y="21" on="0"/>
        <pt x="467" y="91" on="1"/>
        <pt x="287" y="310" on="1"/>
        <pt x="275" y="310" on="0"/>
        <pt x="270" y="311" on="1"/>
        <pt x="270" y="172" on="1"/>
        <pt x="270" y="74" on="0"/>
        <pt x="286" y="22" on="1"/>
        <pt x="286" y="0" on="1"/>
        <pt x="108" y="0" on="1"/>
        <pt x="108" y="22" on="1"/>
        <pt x="128" y="74" on="0"/>
        <pt x="128" y="162" on="1"/>
        <pt x="128" y="521" on="1"/>
        <pt x="128" y="621" on="0"/>
        <pt x="111" y="678" on="1"/>
        <pt x="111" y="700" on="1"/>
        <pt x="139" y="698" on="0"/>
      </contour>
      <contour>
        <pt x="474" y="582" on="0"/>
        <pt x="413" y="635" on="0"/>
        <pt x="284" y="635" on="0"/>
        <pt x="272" y="634" on="1"/>
        <pt x="270" y="604" on="0"/>
        <pt x="270" y="374" on="1"/>
        <pt x="293" y="371" on="0"/>
        <pt x="327" y="371" on="1"/>
        <pt x="407" y="371" on="0"/>
        <pt x="474" y="442" on="0"/>
      </contour>
    </TTGlyph>
    <TTGlyph name="Racute" xMin="108" yMin="0" xMax="711" yMax="949">
      <contour>
        <pt x="209" y="698" on="1"/>
        <pt x="352" y="700" on="1"/>
        <pt x="481" y="700" on="0"/>
        <pt x="622" y="622" on="0"/>
        <pt x="622" y="437" on="0"/>
        <pt x="508" y="325" on="0"/>
        <pt x="413" y="316" on="1"/>
        <pt x="527" y="183" on="1"/>
        <pt x="600" y="98" on="0"/>
        <pt x="679" y="34" on="0"/>
        <pt x="711" y="24" on="1"/>
        <pt x="711" y="0" on="1"/>
        <pt x="536" y="0" on="1"/>
        <pt x="522" y="21" on="0"/>
        <pt x="467" y="91" on="1"/>
        <pt x="287" y="310" on="1"/>
        <pt x="275" y="310" on="0"/>
        <pt x="270" y="311" on="1"/>
        <pt x="270" y="172" on="1"/>
        <pt x="270" y="74" on="0"/>
        <pt x="286" y="22" on="1"/>
        <pt x="286" y="0" on="1"/>
        <pt x="108" y="0" on="1"/>
        <pt x="108" y="22" on="1"/>
        <pt x="128" y="74" on="0"/>
        <pt x="128" y="162" on="1"/>
        <pt x="128" y="521" on="1"/>
        <pt x="128" y="621" on="0"/>
        <pt x="111" y="678" on="1"/>
        <pt x="111" y="700" on="1"/>
        <pt x="139" y="698" on="0"/>
      </contour>
      <contour>
        <pt x="474" y="582" on="0"/>
        <pt x="413" y="635" on="0"/>
        <pt x="284" y="635" on="0"/>
        <pt x="272" y="634" on="1"/>
        <pt x="270" y="604" on="0"/>
        <pt x="270" y="374" on="1"/>
        <pt x="293" y="371" on="0"/>
        <pt x="327" y="371" on="1"/>
        <pt x="407" y="371" on="0"/>
        <pt x="474" y="442" on="0"/>
      </contour>
      <contour>
        <pt x="483" y="875" on="1"/>
        <pt x="374" y="779" on="0"/>
        <pt x="261" y="723" on="1"/>
        <pt x="224" y="762" on="1"/>
        <pt x="324" y="847" on="0"/>
        <pt x="384" y="949" on="1"/>
        <pt x="447" y="927" on="0"/>
      </contour>
    </TTGlyph>
    <TTGlyph name="Rcaron" xMin="108" yMin="0" xMax="711" yMax="919">
      <contour>
        <pt x="209" y="698" on="1"/>
        <pt x="352" y="700" on="1"/>
        <pt x="481" y="700" on="0"/>
        <pt x="622" y="622" on="0"/>
        <pt x="622" y="437" on="0"/>
        <pt x="508" y="325" on="0"/>
        <pt x="413" y="316" on="1"/>
        <pt x="527" y="183" on="1"/>
        <pt x="600" y="98" on="0"/>
        <pt x="679" y="34" on="0"/>
        <pt x="711" y="24" on="1"/>
        <pt x="711" y="0" on="1"/>
        <pt x="536" y="0" on="1"/>
        <pt x="522" y="21" on="0"/>
        <pt x="467" y="91" on="1"/>
        <pt x="287" y="310" on="1"/>
        <pt x="275" y="310" on="0"/>
        <pt x="270" y="311" on="1"/>
        <pt x="270" y="172" on="1"/>
        <pt x="270" y="74" on="0"/>
        <pt x="286" y="22" on="1"/>
        <pt x="286" y="0" on="1"/>
        <pt x="108" y="0" on="1"/>
        <pt x="108" y="22" on="1"/>
        <pt x="128" y="74" on="0"/>
        <pt x="128" y="162" on="1"/>
        <pt x="128" y="521" on="1"/>
        <pt x="128" y="621" on="0"/>
        <pt x="111" y="678" on="1"/>
        <pt x="111" y="700" on="1"/>
        <pt x="139" y="698" on="0"/>
      </contour>
      <contour>
        <pt x="474" y="582" on="0"/>
        <pt x="413" y="635" on="0"/>
        <pt x="284" y="635" on="0"/>
        <pt x="272" y="634" on="1"/>
        <pt x="270" y="604" on="0"/>
        <pt x="270" y="374" on="1"/>
        <pt x="293" y="371" on="0"/>
        <pt x="327" y="371" on="1"/>
        <pt x="407" y="371" on="0"/>
        <pt x="474" y="442" on="0"/>
      </contour>
      <contour>
        <pt x="410" y="743" on="1"/>
        <pt x="310" y="733" on="1"/>
        <pt x="257" y="823" on="0"/>
        <pt x="187" y="880" on="1"/>
        <pt x="225" y="919" on="1"/>
        <pt x="259" y="899" on="0"/>
        <pt x="333" y="835" on="0"/>
        <pt x="351" y="809" on="1"/>
        <pt x="374" y="839" on="0"/>
        <pt x="444" y="902" on="0"/>
        <pt x="476" y="919" on="1"/>
        <pt x="520" y="880" on="1"/>
        <pt x="460" y="836" on="0"/>
      </contour>
    </TTGlyph>
    <TTGlyph name="Rcommaaccent" xMin="108" yMin="-236" xMax="711" yMax="700">
      <contour>
        <pt x="434" y="-30" on="1"/>
        <pt x="444" y="-56" on="0"/>
        <pt x="444" y="-126" on="0"/>
        <pt x="396" y="-196" on="0"/>
        <pt x="351" y="-236" on="1"/>
        <pt x="308" y="-218" on="1"/>
        <pt x="329" y="-177" on="0"/>
        <pt x="340" y="-135" on="0"/>
        <pt x="340" y="-73" on="0"/>
        <pt x="323" y="-43" on="1"/>
        <pt x="325" y="-37" on="0"/>
        <pt x="330" y="-34" on="1"/>
        <pt x="344" y="-29" on="0"/>
        <pt x="400" y="-22" on="0"/>
        <pt x="420" y="-22" on="0"/>
        <pt x="424" y="-23" on="1"/>
      </contour>
      <contour>
        <pt x="209" y="698" on="1"/>
        <pt x="352" y="700" on="1"/>
        <pt x="481" y="700" on="0"/>
        <pt x="622" y="622" on="0"/>
        <pt x="622" y="437" on="0"/>
        <pt x="508" y="325" on="0"/>
        <pt x="413" y="316" on="1"/>
        <pt x="527" y="183" on="1"/>
        <pt x="600" y="98" on="0"/>
        <pt x="679" y="34" on="0"/>
        <pt x="711" y="24" on="1"/>
        <pt x="711" y="0" on="1"/>
        <pt x="536" y="0" on="1"/>
        <pt x="522" y="21" on="0"/>
        <pt x="467" y="91" on="1"/>
        <pt x="287" y="310" on="1"/>
        <pt x="275" y="310" on="0"/>
        <pt x="270" y="311" on="1"/>
        <pt x="270" y="172" on="1"/>
        <pt x="270" y="74" on="0"/>
        <pt x="286" y="22" on="1"/>
        <pt x="286" y="0" on="1"/>
        <pt x="108" y="0" on="1"/>
        <pt x="108" y="22" on="1"/>
        <pt x="128" y="74" on="0"/>
        <pt x="128" y="162" on="1"/>
        <pt x="128" y="521" on="1"/>
        <pt x="128" y="621" on="0"/>
        <pt x="111" y="678" on="1"/>
        <pt x="111" y="700" on="1"/>
        <pt x="139" y="698" on="0"/>
      </contour>
      <contour>
        <pt x="474" y="582" on="0"/>
        <pt x="413" y="635" on="0"/>
        <pt x="284" y="635" on="0"/>
        <pt x="272" y="634" on="1"/>
        <pt x="270" y="604" on="0"/>
        <pt x="270" y="374" on="1"/>
        <pt x="293" y="371" on="0"/>
        <pt x="327" y="371" on="1"/>
        <pt x="407" y="371" on="0"/>
        <pt x="474" y="442" on="0"/>
      </contour>
    </TTGlyph>
    <TTGlyph name="S" xMin="54" yMin="-12" xMax="561" yMax="712">
      <contour>
        <pt x="243" y="474" on="0"/>
        <pt x="305" y="445" on="0"/>
        <pt x="354" y="423" on="0"/>
        <pt x="368" y="416" on="0"/>
        <pt x="421" y="392" on="0"/>
        <pt x="435" y="385" on="0"/>
        <pt x="483" y="357" on="0"/>
        <pt x="501" y="339" on="0"/>
        <pt x="535" y="304" on="0"/>
        <pt x="542" y="288" on="1"/>
        <pt x="561" y="243" on="0"/>
        <pt x="561" y="197" on="1"/>
        <pt x="561" y="94" on="0"/>
        <pt x="414" y="-12" on="0"/>
        <pt x="159" y="-12" on="0"/>
        <pt x="54" y="58" on="1"/>
        <pt x="57" y="130" on="0"/>
        <pt x="109" y="193" on="1"/>
        <pt x="157" y="140" on="0"/>
        <pt x="277" y="72" on="0"/>
        <pt x="376" y="72" on="0"/>
        <pt x="414" y="94" on="1"/>
        <pt x="433" y="119" on="0"/>
        <pt x="433" y="172" on="1"/>
        <pt x="433" y="212" on="0"/>
        <pt x="410" y="236" on="1"/>
        <pt x="396" y="249" on="0"/>
        <pt x="377" y="266" on="0"/>
        <pt x="353" y="278" on="1"/>
        <pt x="329" y="291" on="0"/>
        <pt x="182" y="356" on="0"/>
        <pt x="153" y="375" on="1"/>
        <pt x="70" y="431" on="0"/>
        <pt x="70" y="620" on="0"/>
        <pt x="213" y="712" on="0"/>
        <pt x="425" y="712" on="0"/>
        <pt x="542" y="662" on="1"/>
        <pt x="530" y="593" on="0"/>
        <pt x="491" y="528" on="1"/>
        <pt x="440" y="575" on="0"/>
        <pt x="326" y="634" on="0"/>
        <pt x="234" y="634" on="0"/>
        <pt x="207" y="619" on="1"/>
        <pt x="191" y="600" on="0"/>
        <pt x="191" y="520" on="0"/>
      </contour>
    </TTGlyph>
    <TTGlyph name="T" xMin="-15" yMin="0" xMax="569" yMax="703">
      <contour>
        <pt x="-10" y="601" on="1"/>
        <pt x="-10" y="646" on="0"/>
        <pt x="-15" y="703" on="1"/>
        <pt x="180" y="700" on="0"/>
        <pt x="374" y="700" on="0"/>
        <pt x="569" y="703" on="1"/>
        <pt x="564" y="646" on="0"/>
        <pt x="564" y="601" on="1"/>
        <pt x="545" y="601" on="1"/>
        <pt x="432" y="627" on="0"/>
        <pt x="351" y="630" on="1"/>
        <pt x="347" y="580" on="0"/>
        <pt x="347" y="480" on="1"/>
        <pt x="347" y="218" on="1"/>
        <pt x="347" y="82" on="0"/>
        <pt x="363" y="22" on="1"/>
        <pt x="363" y="0" on="1"/>
        <pt x="191" y="0" on="1"/>
        <pt x="191" y="22" on="1"/>
        <pt x="205" y="82" on="0"/>
        <pt x="205" y="215" on="1"/>
        <pt x="205" y="476" on="1"/>
        <pt x="205" y="579" on="0"/>
        <pt x="201" y="630" on="1"/>
        <pt x="126" y="627" on="0"/>
        <pt x="9" y="601" on="1"/>
      </contour>
    </TTGlyph>
    <TTGlyph name="Thorn" xMin="108" yMin="0" xMax="638" yMax="700">
      <contour>
        <pt x="334" y="176" on="1"/>
        <pt x="302" y="176" on="0"/>
        <pt x="266" y="182" on="1"/>
        <pt x="271" y="58" on="0"/>
        <pt x="279" y="22" on="1"/>
        <pt x="279" y="0" on="1"/>
        <pt x="108" y="0" on="1"/>
        <pt x="108" y="22" on="1"/>
        <pt x="123" y="79" on="0"/>
        <pt x="123" y="223" on="1"/>
        <pt x="123" y="477" on="1"/>
        <pt x="123" y="621" on="0"/>
        <pt x="108" y="678" on="1"/>
        <pt x="108" y="700" on="1"/>
        <pt x="279" y="700" on="1"/>
        <pt x="279" y="678" on="1"/>
        <pt x="275" y="663" on="0"/>
        <pt x="270" y="606" on="1"/>
        <pt x="294" y="607" on="0"/>
        <pt x="350" y="607" on="1"/>
        <pt x="491" y="607" on="0"/>
        <pt x="638" y="518" on="0"/>
        <pt x="638" y="300" on="0"/>
        <pt x="466" y="176" on="0"/>
      </contour>
      <contour>
        <pt x="265" y="479" on="1"/>
        <pt x="265" y="243" on="1"/>
        <pt x="297" y="235" on="0"/>
        <pt x="333" y="235" on="1"/>
        <pt x="409" y="235" on="0"/>
        <pt x="488" y="322" on="0"/>
        <pt x="488" y="476" on="0"/>
        <pt x="422" y="542" on="0"/>
        <pt x="278" y="542" on="0"/>
        <pt x="267" y="541" on="1"/>
        <pt x="265" y="489" on="0"/>
      </contour>
    </TTGlyph>
    <TTGlyph name="U" xMin="73" yMin="-11" xMax="692" yMax="700">
      <contour>
        <pt x="676" y="491" on="1"/>
        <pt x="676" y="312" on="1"/>
        <pt x="676" y="130" on="0"/>
        <pt x="543" y="-11" on="0"/>
        <pt x="229" y="-11" on="0"/>
        <pt x="89" y="126" on="0"/>
        <pt x="89" y="277" on="1"/>
        <pt x="89" y="475" on="1"/>
        <pt x="89" y="624" on="0"/>
        <pt x="73" y="678" on="1"/>
        <pt x="73" y="700" on="1"/>
        <pt x="245" y="700" on="1"/>
        <pt x="245" y="678" on="1"/>
        <pt x="231" y="588" on="0"/>
        <pt x="231" y="445" on="1"/>
        <pt x="231" y="322" on="1"/>
        <pt x="231" y="221" on="0"/>
        <pt x="256" y="135" on="0"/>
        <pt x="274" y="116" on="1"/>
        <pt x="315" y="71" on="0"/>
        <pt x="484" y="71" on="0"/>
        <pt x="525" y="97" on="1"/>
        <pt x="551" y="136" on="0"/>
        <pt x="565" y="272" on="0"/>
        <pt x="565" y="597" on="0"/>
        <pt x="549" y="678" on="1"/>
        <pt x="549" y="700" on="1"/>
        <pt x="692" y="700" on="1"/>
        <pt x="692" y="679" on="1"/>
        <pt x="685" y="656" on="0"/>
        <pt x="676" y="527" on="0"/>
      </contour>
    </TTGlyph>
    <TTGlyph name="Uacute" xMin="73" yMin="-11" xMax="692" yMax="949">
      <contour>
        <pt x="676" y="491" on="1"/>
        <pt x="676" y="312" on="1"/>
        <pt x="676" y="130" on="0"/>
        <pt x="543" y="-11" on="0"/>
        <pt x="229" y="-11" on="0"/>
        <pt x="89" y="126" on="0"/>
        <pt x="89" y="277" on="1"/>
        <pt x="89" y="475" on="1"/>
        <pt x="89" y="624" on="0"/>
        <pt x="73" y="678" on="1"/>
        <pt x="73" y="700" on="1"/>
        <pt x="245" y="700" on="1"/>
        <pt x="245" y="678" on="1"/>
        <pt x="231" y="588" on="0"/>
        <pt x="231" y="445" on="1"/>
        <pt x="231" y="322" on="1"/>
        <pt x="231" y="221" on="0"/>
        <pt x="256" y="135" on="0"/>
        <pt x="274" y="116" on="1"/>
        <pt x="315" y="71" on="0"/>
        <pt x="484" y="71" on="0"/>
        <pt x="525" y="97" on="1"/>
        <pt x="551" y="136" on="0"/>
        <pt x="565" y="272" on="0"/>
        <pt x="565" y="597" on="0"/>
        <pt x="549" y="678" on="1"/>
        <pt x="549" y="700" on="1"/>
        <pt x="692" y="700" on="1"/>
        <pt x="692" y="679" on="1"/>
        <pt x="685" y="656" on="0"/>
        <pt x="676" y="527" on="0"/>
      </contour>
      <contour>
        <pt x="514" y="875" on="1"/>
        <pt x="405" y="779" on="0"/>
        <pt x="292" y="723" on="1"/>
        <pt x="255" y="762" on="1"/>
        <pt x="355" y="847" on="0"/>
        <pt x="415" y="949" on="1"/>
        <pt x="478" y="927" on="0"/>
      </contour>
    </TTGlyph>
    <TTGlyph name="Ucircumflex" xMin="73" yMin="-11" xMax="692" yMax="920">
      <contour>
        <pt x="676" y="491" on="1"/>
        <pt x="676" y="312" on="1"/>
        <pt x="676" y="130" on="0"/>
        <pt x="543" y="-11" on="0"/>
        <pt x="229" y="-11" on="0"/>
        <pt x="89" y="126" on="0"/>
        <pt x="89" y="277" on="1"/>
        <pt x="89" y="475" on="1"/>
        <pt x="89" y="624" on="0"/>
        <pt x="73" y="678" on="1"/>
        <pt x="73" y="700" on="1"/>
        <pt x="245" y="700" on="1"/>
        <pt x="245" y="678" on="1"/>
        <pt x="231" y="588" on="0"/>
        <pt x="231" y="445" on="1"/>
        <pt x="231" y="322" on="1"/>
        <pt x="231" y="221" on="0"/>
        <pt x="256" y="135" on="0"/>
        <pt x="274" y="116" on="1"/>
        <pt x="315" y="71" on="0"/>
        <pt x="484" y="71" on="0"/>
        <pt x="525" y="97" on="1"/>
        <pt x="551" y="136" on="0"/>
        <pt x="565" y="272" on="0"/>
        <pt x="565" y="597" on="0"/>
        <pt x="549" y="678" on="1"/>
        <pt x="549" y="700" on="1"/>
        <pt x="692" y="700" on="1"/>
        <pt x="692" y="679" on="1"/>
        <pt x="685" y="656" on="0"/>
        <pt x="676" y="527" on="0"/>
      </contour>
      <contour>
        <pt x="342" y="920" on="1"/>
        <pt x="422" y="920" on="1"/>
        <pt x="448" y="867" on="0"/>
        <pt x="496" y="822" on="1"/>
        <pt x="514" y="806" on="0"/>
        <pt x="547" y="778" on="1"/>
        <pt x="505" y="733" on="1"/>
        <pt x="432" y="777" on="0"/>
        <pt x="379" y="836" on="1"/>
        <pt x="333" y="789" on="0"/>
        <pt x="265" y="738" on="1"/>
        <pt x="222" y="782" on="1"/>
        <pt x="309" y="858" on="0"/>
      </contour>
    </TTGlyph>
    <TTGlyph name="Udieresis" xMin="73" yMin="-11" xMax="692" yMax="910">
      <contour>
        <pt x="676" y="491" on="1"/>
        <pt x="676" y="312" on="1"/>
        <pt x="676" y="130" on="0"/>
        <pt x="543" y="-11" on="0"/>
        <pt x="229" y="-11" on="0"/>
        <pt x="89" y="126" on="0"/>
        <pt x="89" y="277" on="1"/>
        <pt x="89" y="475" on="1"/>
        <pt x="89" y="624" on="0"/>
        <pt x="73" y="678" on="1"/>
        <pt x="73" y="700" on="1"/>
        <pt x="245" y="700" on="1"/>
        <pt x="245" y="678" on="1"/>
        <pt x="231" y="588" on="0"/>
        <pt x="231" y="445" on="1"/>
        <pt x="231" y="322" on="1"/>
        <pt x="231" y="221" on="0"/>
        <pt x="256" y="135" on="0"/>
        <pt x="274" y="116" on="1"/>
        <pt x="315" y="71" on="0"/>
        <pt x="484" y="71" on="0"/>
        <pt x="525" y="97" on="1"/>
        <pt x="551" y="136" on="0"/>
        <pt x="565" y="272" on="0"/>
        <pt x="565" y="597" on="0"/>
        <pt x="549" y="678" on="1"/>
        <pt x="549" y="700" on="1"/>
        <pt x="692" y="700" on="1"/>
        <pt x="692" y="679" on="1"/>
        <pt x="685" y="656" on="0"/>
        <pt x="676" y="527" on="0"/>
      </contour>
      <contour>
        <pt x="341" y="893" on="1"/>
        <pt x="348" y="885" on="0"/>
        <pt x="355" y="833" on="0"/>
        <pt x="355" y="805" on="0"/>
        <pt x="354" y="796" on="1"/>
        <pt x="342" y="785" on="1"/>
        <pt x="296" y="773" on="0"/>
        <pt x="251" y="770" on="1"/>
        <pt x="235" y="770" on="1"/>
        <pt x="220" y="775" on="1"/>
        <pt x="198" y="814" on="0"/>
        <pt x="198" y="873" on="1"/>
        <pt x="213" y="884" on="1"/>
        <pt x="263" y="897" on="0"/>
        <pt x="307" y="899" on="1"/>
        <pt x="329" y="899" on="1"/>
      </contour>
      <contour>
        <pt x="555" y="904" on="1"/>
        <pt x="562" y="896" on="0"/>
        <pt x="569" y="844" on="0"/>
        <pt x="569" y="816" on="0"/>
        <pt x="568" y="807" on="1"/>
        <pt x="556" y="796" on="1"/>
        <pt x="510" y="784" on="0"/>
        <pt x="465" y="781" on="1"/>
        <pt x="449" y="781" on="1"/>
        <pt x="434" y="786" on="1"/>
        <pt x="412" y="825" on="0"/>
        <pt x="412" y="884" on="1"/>
        <pt x="427" y="895" on="1"/>
        <pt x="477" y="908" on="0"/>
        <pt x="521" y="910" on="1"/>
        <pt x="543" y="910" on="1"/>
      </contour>
    </TTGlyph>
    <TTGlyph name="Ugrave" xMin="73" yMin="-11" xMax="692" yMax="949">
      <contour>
        <pt x="676" y="491" on="1"/>
        <pt x="676" y="312" on="1"/>
        <pt x="676" y="130" on="0"/>
        <pt x="543" y="-11" on="0"/>
        <pt x="229" y="-11" on="0"/>
        <pt x="89" y="126" on="0"/>
        <pt x="89" y="277" on="1"/>
        <pt x="89" y="475" on="1"/>
        <pt x="89" y="624" on="0"/>
        <pt x="73" y="678" on="1"/>
        <pt x="73" y="700" on="1"/>
        <pt x="245" y="700" on="1"/>
        <pt x="245" y="678" on="1"/>
        <pt x="231" y="588" on="0"/>
        <pt x="231" y="445" on="1"/>
        <pt x="231" y="322" on="1"/>
        <pt x="231" y="221" on="0"/>
        <pt x="256" y="135" on="0"/>
        <pt x="274" y="116" on="1"/>
        <pt x="315" y="71" on="0"/>
        <pt x="484" y="71" on="0"/>
        <pt x="525" y="97" on="1"/>
        <pt x="551" y="136" on="0"/>
        <pt x="565" y="272" on="0"/>
        <pt x="565" y="597" on="0"/>
        <pt x="549" y="678" on="1"/>
        <pt x="549" y="700" on="1"/>
        <pt x="692" y="700" on="1"/>
        <pt x="692" y="679" on="1"/>
        <pt x="685" y="656" on="0"/>
        <pt x="676" y="527" on="0"/>
      </contour>
      <contour>
        <pt x="514" y="761" on="1"/>
        <pt x="477" y="722" on="1"/>
        <pt x="364" y="778" on="0"/>
        <pt x="255" y="874" on="1"/>
        <pt x="292" y="927" on="0"/>
        <pt x="355" y="949" on="1"/>
        <pt x="415" y="846" on="0"/>
      </contour>
    </TTGlyph>
    <TTGlyph name="V" xMin="-5" yMin="-14" xMax="702" yMax="700">
      <contour>
        <pt x="530" y="700" on="1"/>
        <pt x="702" y="700" on="1"/>
        <pt x="702" y="678" on="1"/>
        <pt x="647" y="634" on="0"/>
        <pt x="559" y="396" on="1"/>
        <pt x="440" y="52" on="0"/>
        <pt x="424" y="1" on="1"/>
        <pt x="280" y="-14" on="1"/>
        <pt x="279" y="38" on="0"/>
        <pt x="101" y="486" on="1"/>
        <pt x="36" y="650" on="0"/>
        <pt x="-5" y="678" on="1"/>
        <pt x="-5" y="700" on="1"/>
        <pt x="199" y="700" on="1"/>
        <pt x="199" y="678" on="1"/>
        <pt x="199" y="626" on="0"/>
        <pt x="242" y="497" on="1"/>
        <pt x="373" y="123" on="1"/>
        <pt x="491" y="485" on="1"/>
        <pt x="526" y="590" on="0"/>
        <pt x="530" y="678" on="1"/>
      </contour>
    </TTGlyph>
    <TTGlyph name="W" xMin="-4" yMin="-14" xMax="1029" yMax="700">
      <contour>
        <pt x="863" y="678" on="1"/>
        <pt x="863" y="700" on="1"/>
        <pt x="1029" y="700" on="1"/>
        <pt x="1029" y="678" on="1"/>
        <pt x="982" y="612" on="0"/>
        <pt x="848" y="183" on="0"/>
        <pt x="799" y="0" on="1"/>
        <pt x="647" y="-14" on="1"/>
        <pt x="633" y="85" on="0"/>
        <pt x="536" y="411" on="1"/>
        <pt x="507" y="509" on="1"/>
        <pt x="487" y="449" on="0"/>
        <pt x="456" y="347" on="0"/>
        <pt x="364" y="0" on="1"/>
        <pt x="211" y="-14" on="1"/>
        <pt x="208" y="70" on="0"/>
        <pt x="75" y="487" on="1"/>
        <pt x="44" y="584" on="0"/>
        <pt x="12" y="660" on="0"/>
        <pt x="-4" y="678" on="1"/>
        <pt x="-4" y="700" on="1"/>
        <pt x="180" y="700" on="1"/>
        <pt x="180" y="672" on="1"/>
        <pt x="180" y="604" on="0"/>
        <pt x="211" y="504" on="1"/>
        <pt x="314" y="137" on="1"/>
        <pt x="440" y="555" on="0"/>
        <pt x="444" y="700" on="1"/>
        <pt x="597" y="700" on="1"/>
        <pt x="603" y="651" on="0"/>
        <pt x="649" y="460" on="0"/>
        <pt x="747" y="137" on="1"/>
        <pt x="753" y="158" on="0"/>
        <pt x="798" y="309" on="0"/>
        <pt x="810" y="352" on="1"/>
        <pt x="847" y="488" on="0"/>
        <pt x="863" y="632" on="0"/>
      </contour>
    </TTGlyph>
    <TTGlyph name="X" xMin="-14" yMin="-1" xMax="679" yMax="700">
      <contour>
        <pt x="315" y="284" on="1"/>
        <pt x="167" y="75" on="0"/>
        <pt x="167" y="-1" on="1"/>
        <pt x="-14" y="0" on="1"/>
        <pt x="-14" y="22" on="1"/>
        <pt x="47" y="55" on="0"/>
        <pt x="116" y="152" on="1"/>
        <pt x="221" y="301" on="0"/>
        <pt x="258" y="356" on="1"/>
        <pt x="176" y="481" on="1"/>
        <pt x="64" y="653" on="0"/>
        <pt x="6" y="678" on="1"/>
        <pt x="6" y="700" on="1"/>
        <pt x="232" y="699" on="1"/>
        <pt x="232" y="677" on="1"/>
        <pt x="232" y="643" on="0"/>
        <pt x="254" y="599" on="1"/>
        <pt x="279" y="549" on="0"/>
        <pt x="344" y="453" on="1"/>
        <pt x="466" y="626" on="0"/>
        <pt x="466" y="700" on="1"/>
        <pt x="642" y="700" on="1"/>
        <pt x="642" y="678" on="1"/>
        <pt x="611" y="662" on="0"/>
        <pt x="558" y="606" on="0"/>
        <pt x="436" y="441" on="0"/>
        <pt x="399" y="384" on="1"/>
        <pt x="570" y="133" on="0"/>
        <pt x="649" y="38" on="0"/>
        <pt x="679" y="22" on="1"/>
        <pt x="679" y="0" on="1"/>
        <pt x="455" y="0" on="1"/>
        <pt x="455" y="22" on="1"/>
        <pt x="455" y="38" on="0"/>
        <pt x="432" y="84" on="0"/>
        <pt x="417" y="113" on="0"/>
        <pt x="405" y="133" on="0"/>
        <pt x="385" y="166" on="0"/>
        <pt x="380" y="175" on="1"/>
      </contour>
    </TTGlyph>
    <TTGlyph name="Y" xMin="-15" yMin="0" xMax="571" yMax="700">
      <contour>
        <pt x="355" y="220" on="1"/>
        <pt x="355" y="184" on="0"/>
        <pt x="364" y="45" on="0"/>
        <pt x="370" y="22" on="1"/>
        <pt x="370" y="0" on="1"/>
        <pt x="208" y="0" on="1"/>
        <pt x="208" y="22" on="1"/>
        <pt x="223" y="79" on="0"/>
        <pt x="223" y="194" on="1"/>
        <pt x="223" y="294" on="1"/>
        <pt x="125" y="476" on="1"/>
        <pt x="86" y="547" on="0"/>
        <pt x="4" y="669" on="0"/>
        <pt x="-15" y="678" on="1"/>
        <pt x="-15" y="700" on="1"/>
        <pt x="170" y="700" on="1"/>
        <pt x="170" y="678" on="1"/>
        <pt x="170" y="638" on="0"/>
        <pt x="244" y="488" on="0"/>
        <pt x="304" y="380" on="1"/>
        <pt x="388" y="550" on="0"/>
        <pt x="426" y="651" on="0"/>
        <pt x="426" y="678" on="1"/>
        <pt x="426" y="700" on="1"/>
        <pt x="571" y="700" on="1"/>
        <pt x="571" y="678" on="1"/>
        <pt x="535" y="653" on="0"/>
        <pt x="483" y="556" on="1"/>
        <pt x="454" y="502" on="0"/>
        <pt x="355" y="292" on="1"/>
      </contour>
    </TTGlyph>
    <TTGlyph name="Yacute" xMin="-9" yMin="0" xMax="577" yMax="949">
      <contour>
        <pt x="361" y="220" on="1"/>
        <pt x="361" y="184" on="0"/>
        <pt x="370" y="45" on="0"/>
        <pt x="376" y="22" on="1"/>
        <pt x="376" y="0" on="1"/>
        <pt x="214" y="0" on="1"/>
        <pt x="214" y="22" on="1"/>
        <pt x="229" y="79" on="0"/>
        <pt x="229" y="194" on="1"/>
        <pt x="229" y="294" on="1"/>
        <pt x="131" y="476" on="1"/>
        <pt x="92" y="547" on="0"/>
        <pt x="10" y="669" on="0"/>
        <pt x="-9" y="678" on="1"/>
        <pt x="-9" y="700" on="1"/>
        <pt x="176" y="700" on="1"/>
        <pt x="176" y="678" on="1"/>
        <pt x="176" y="638" on="0"/>
        <pt x="250" y="488" on="0"/>
        <pt x="310" y="380" on="1"/>
        <pt x="394" y="550" on="0"/>
        <pt x="432" y="651" on="0"/>
        <pt x="432" y="678" on="1"/>
        <pt x="432" y="700" on="1"/>
        <pt x="577" y="700" on="1"/>
        <pt x="577" y="678" on="1"/>
        <pt x="541" y="653" on="0"/>
        <pt x="489" y="556" on="1"/>
        <pt x="460" y="502" on="0"/>
        <pt x="361" y="292" on="1"/>
      </contour>
      <contour>
        <pt x="419" y="875" on="1"/>
        <pt x="310" y="779" on="0"/>
        <pt x="197" y="723" on="1"/>
        <pt x="160" y="762" on="1"/>
        <pt x="260" y="847" on="0"/>
        <pt x="320" y="949" on="1"/>
        <pt x="383" y="927" on="0"/>
      </contour>
    </TTGlyph>
    <TTGlyph name="Z" xMin="-4" yMin="0" xMax="590" yMax="705">
      <contour>
        <pt x="163" y="76" on="1"/>
        <pt x="192" y="74" on="0"/>
        <pt x="367" y="74" on="0"/>
        <pt x="535" y="92" on="0"/>
        <pt x="571" y="106" on="1"/>
        <pt x="590" y="106" on="1"/>
        <pt x="567" y="0" on="1"/>
        <pt x="31" y="0" on="1"/>
        <pt x="-4" y="58" on="1"/>
        <pt x="415" y="626" on="1"/>
        <pt x="391" y="627" on="0"/>
        <pt x="310" y="627" on="1"/>
        <pt x="154" y="627" on="0"/>
        <pt x="51" y="589" on="1"/>
        <pt x="32" y="589" on="1"/>
        <pt x="53" y="698" on="1"/>
        <pt x="538" y="705" on="1"/>
        <pt x="578" y="639" on="1"/>
      </contour>
    </TTGlyph>
    <TTGlyph name="a" xMin="45" yMin="-21" xMax="524" yMax="499">
      <contour>
        <pt x="338" y="200" on="1"/>
        <pt x="302" y="213" on="0"/>
        <pt x="215" y="213" on="0"/>
        <pt x="192" y="197" on="1"/>
        <pt x="177" y="178" on="0"/>
        <pt x="177" y="147" on="1"/>
        <pt x="177" y="69" on="0"/>
        <pt x="245" y="69" on="1"/>
        <pt x="301" y="69" on="0"/>
        <pt x="338" y="115" on="1"/>
      </contour>
      <contour>
        <pt x="204" y="-18" on="1"/>
        <pt x="141" y="-18" on="0"/>
        <pt x="45" y="58" on="0"/>
        <pt x="45" y="130" on="1"/>
        <pt x="45" y="269" on="0"/>
        <pt x="248" y="269" on="1"/>
        <pt x="337" y="265" on="1"/>
        <pt x="337" y="326" on="1"/>
        <pt x="337" y="378" on="0"/>
        <pt x="285" y="442" on="0"/>
        <pt x="231" y="442" on="1"/>
        <pt x="219" y="442" on="0"/>
        <pt x="181" y="417" on="0"/>
        <pt x="168" y="404" on="1"/>
        <pt x="127" y="365" on="0"/>
        <pt x="102" y="340" on="1"/>
        <pt x="52" y="399" on="0"/>
        <pt x="48" y="459" on="1"/>
        <pt x="176" y="499" on="0"/>
        <pt x="352" y="499" on="0"/>
        <pt x="470" y="417" on="0"/>
        <pt x="470" y="329" on="1"/>
        <pt x="470" y="172" on="1"/>
        <pt x="470" y="127" on="0"/>
        <pt x="500" y="45" on="0"/>
        <pt x="522" y="31" on="1"/>
        <pt x="524" y="9" on="1"/>
        <pt x="381" y="-21" on="1"/>
        <pt x="365" y="9" on="0"/>
        <pt x="351" y="63" on="1"/>
        <pt x="325" y="35" on="0"/>
        <pt x="293" y="8" on="0"/>
        <pt x="236" y="-18" on="0"/>
      </contour>
    </TTGlyph>
    <TTGlyph name="aacute" xMin="45" yMin="-21" xMax="524" yMax="732">
      <contour>
        <pt x="245" y="69" on="1"/>
        <pt x="301" y="69" on="0"/>
        <pt x="338" y="115" on="1"/>
        <pt x="338" y="200" on="1"/>
        <pt x="302" y="213" on="0"/>
        <pt x="215" y="213" on="0"/>
        <pt x="192" y="197" on="1"/>
        <pt x="177" y="178" on="0"/>
        <pt x="177" y="147" on="1"/>
        <pt x="177" y="69" on="0"/>
      </contour>
      <contour>
        <pt x="470" y="172" on="1"/>
        <pt x="470" y="127" on="0"/>
        <pt x="500" y="45" on="0"/>
        <pt x="522" y="31" on="1"/>
        <pt x="524" y="9" on="1"/>
        <pt x="381" y="-21" on="1"/>
        <pt x="365" y="9" on="0"/>
        <pt x="351" y="63" on="1"/>
        <pt x="325" y="35" on="0"/>
        <pt x="293" y="8" on="0"/>
        <pt x="236" y="-18" on="0"/>
        <pt x="204" y="-18" on="1"/>
        <pt x="141" y="-18" on="0"/>
        <pt x="45" y="58" on="0"/>
        <pt x="45" y="130" on="1"/>
        <pt x="45" y="269" on="0"/>
        <pt x="248" y="269" on="1"/>
        <pt x="337" y="265" on="1"/>
        <pt x="337" y="326" on="1"/>
        <pt x="337" y="378" on="0"/>
        <pt x="285" y="442" on="0"/>
        <pt x="231" y="442" on="1"/>
        <pt x="219" y="442" on="0"/>
        <pt x="175" y="413" on="0"/>
        <pt x="102" y="340" on="1"/>
        <pt x="52" y="399" on="0"/>
        <pt x="48" y="459" on="1"/>
        <pt x="176" y="499" on="0"/>
        <pt x="352" y="499" on="0"/>
        <pt x="470" y="417" on="0"/>
        <pt x="470" y="329" on="1"/>
      </contour>
      <contour>
        <pt x="456" y="658" on="1"/>
        <pt x="347" y="562" on="0"/>
        <pt x="234" y="506" on="1"/>
        <pt x="197" y="545" on="1"/>
        <pt x="297" y="630" on="0"/>
        <pt x="357" y="732" on="1"/>
        <pt x="420" y="710" on="0"/>
      </contour>
    </TTGlyph>
    <TTGlyph name="acircumflex" xMin="45" yMin="-21" xMax="524" yMax="703">
      <contour>
        <pt x="245" y="69" on="1"/>
        <pt x="301" y="69" on="0"/>
        <pt x="338" y="115" on="1"/>
        <pt x="338" y="200" on="1"/>
        <pt x="302" y="213" on="0"/>
        <pt x="215" y="213" on="0"/>
        <pt x="192" y="197" on="1"/>
        <pt x="177" y="178" on="0"/>
        <pt x="177" y="147" on="1"/>
        <pt x="177" y="69" on="0"/>
      </contour>
      <contour>
        <pt x="470" y="172" on="1"/>
        <pt x="470" y="127" on="0"/>
        <pt x="500" y="45" on="0"/>
        <pt x="522" y="31" on="1"/>
        <pt x="524" y="9" on="1"/>
        <pt x="381" y="-21" on="1"/>
        <pt x="365" y="9" on="0"/>
        <pt x="351" y="63" on="1"/>
        <pt x="325" y="35" on="0"/>
        <pt x="293" y="8" on="0"/>
        <pt x="236" y="-18" on="0"/>
        <pt x="204" y="-18" on="1"/>
        <pt x="141" y="-18" on="0"/>
        <pt x="45" y="58" on="0"/>
        <pt x="45" y="130" on="1"/>
        <pt x="45" y="269" on="0"/>
        <pt x="248" y="269" on="1"/>
        <pt x="337" y="265" on="1"/>
        <pt x="337" y="326" on="1"/>
        <pt x="337" y="378" on="0"/>
        <pt x="285" y="442" on="0"/>
        <pt x="231" y="442" on="1"/>
        <pt x="219" y="442" on="0"/>
        <pt x="175" y="413" on="0"/>
        <pt x="102" y="340" on="1"/>
        <pt x="52" y="399" on="0"/>
        <pt x="48" y="459" on="1"/>
        <pt x="176" y="499" on="0"/>
        <pt x="352" y="499" on="0"/>
        <pt x="470" y="417" on="0"/>
        <pt x="470" y="329" on="1"/>
      </contour>
      <contour>
        <pt x="240" y="703" on="1"/>
        <pt x="320" y="703" on="1"/>
        <pt x="346" y="650" on="0"/>
        <pt x="394" y="605" on="1"/>
        <pt x="412" y="589" on="0"/>
        <pt x="445" y="561" on="1"/>
        <pt x="403" y="516" on="1"/>
        <pt x="330" y="560" on="0"/>
        <pt x="277" y="619" on="1"/>
        <pt x="231" y="572" on="0"/>
        <pt x="163" y="521" on="1"/>
        <pt x="120" y="565" on="1"/>
        <pt x="207" y="641" on="0"/>
      </contour>
    </TTGlyph>
    <TTGlyph name="acute" xMin="145" yMin="506" xMax="404" yMax="732">
      <contour>
        <pt x="404" y="658" on="1"/>
        <pt x="295" y="562" on="0"/>
        <pt x="182" y="506" on="1"/>
        <pt x="145" y="545" on="1"/>
        <pt x="245" y="630" on="0"/>
        <pt x="305" y="732" on="1"/>
        <pt x="368" y="710" on="0"/>
      </contour>
    </TTGlyph>
    <TTGlyph name="acute.cap" xMin="132" yMin="751" xMax="415" yMax="918">
      <contour>
        <pt x="149" y="751" on="1"/>
        <pt x="132" y="798" on="1"/>
        <pt x="183" y="814" on="0"/>
        <pt x="311" y="883" on="0"/>
        <pt x="357" y="918" on="1"/>
        <pt x="401" y="884" on="0"/>
        <pt x="415" y="811" on="1"/>
        <pt x="282" y="762" on="0"/>
      </contour>
    </TTGlyph>
    <TTGlyph name="adieresis" xMin="45" yMin="-21" xMax="524" yMax="693">
      <contour>
        <pt x="245" y="69" on="1"/>
        <pt x="301" y="69" on="0"/>
        <pt x="338" y="115" on="1"/>
        <pt x="338" y="200" on="1"/>
        <pt x="302" y="213" on="0"/>
        <pt x="215" y="213" on="0"/>
        <pt x="192" y="197" on="1"/>
        <pt x="177" y="178" on="0"/>
        <pt x="177" y="147" on="1"/>
        <pt x="177" y="69" on="0"/>
      </contour>
      <contour>
        <pt x="470" y="172" on="1"/>
        <pt x="470" y="127" on="0"/>
        <pt x="500" y="45" on="0"/>
        <pt x="522" y="31" on="1"/>
        <pt x="524" y="9" on="1"/>
        <pt x="381" y="-21" on="1"/>
        <pt x="365" y="9" on="0"/>
        <pt x="351" y="63" on="1"/>
        <pt x="325" y="35" on="0"/>
        <pt x="293" y="8" on="0"/>
        <pt x="236" y="-18" on="0"/>
        <pt x="204" y="-18" on="1"/>
        <pt x="141" y="-18" on="0"/>
        <pt x="45" y="58" on="0"/>
        <pt x="45" y="130" on="1"/>
        <pt x="45" y="269" on="0"/>
        <pt x="248" y="269" on="1"/>
        <pt x="337" y="265" on="1"/>
        <pt x="337" y="326" on="1"/>
        <pt x="337" y="378" on="0"/>
        <pt x="285" y="442" on="0"/>
        <pt x="231" y="442" on="1"/>
        <pt x="219" y="442" on="0"/>
        <pt x="175" y="413" on="0"/>
        <pt x="102" y="340" on="1"/>
        <pt x="52" y="399" on="0"/>
        <pt x="48" y="459" on="1"/>
        <pt x="176" y="499" on="0"/>
        <pt x="352" y="499" on="0"/>
        <pt x="470" y="417" on="0"/>
        <pt x="470" y="329" on="1"/>
      </contour>
      <contour>
        <pt x="241" y="676" on="1"/>
        <pt x="248" y="668" on="0"/>
        <pt x="255" y="616" on="0"/>
        <pt x="255" y="588" on="0"/>
        <pt x="254" y="579" on="1"/>
        <pt x="242" y="568" on="1"/>
        <pt x="196" y="556" on="0"/>
        <pt x="151" y="553" on="1"/>
        <pt x="135" y="553" on="1"/>
        <pt x="120" y="558" on="1"/>
        <pt x="98" y="597" on="0"/>
        <pt x="98" y="656" on="1"/>
        <pt x="113" y="667" on="1"/>
        <pt x="163" y="680" on="0"/>
        <pt x="207" y="682" on="1"/>
        <pt x="229" y="682" on="1"/>
      </contour>
      <contour>
        <pt x="455" y="687" on="1"/>
        <pt x="462" y="679" on="0"/>
        <pt x="469" y="627" on="0"/>
        <pt x="469" y="599" on="0"/>
        <pt x="468" y="590" on="1"/>
        <pt x="456" y="579" on="1"/>
        <pt x="410" y="567" on="0"/>
        <pt x="365" y="564" on="1"/>
        <pt x="349" y="564" on="1"/>
        <pt x="334" y="569" on="1"/>
        <pt x="312" y="608" on="0"/>
        <pt x="312" y="667" on="1"/>
        <pt x="327" y="678" on="1"/>
        <pt x="377" y="691" on="0"/>
        <pt x="421" y="693" on="1"/>
        <pt x="443" y="693" on="1"/>
      </contour>
    </TTGlyph>
    <TTGlyph name="ae" xMin="45" yMin="-19" xMax="794" yMax="499">
      <contour>
        <pt x="563" y="-19" on="1"/>
        <pt x="467" y="-19" on="0"/>
        <pt x="400" y="53" on="1"/>
        <pt x="313" y="-18" on="0"/>
        <pt x="148" y="-18" on="0"/>
        <pt x="45" y="55" on="0"/>
        <pt x="45" y="127" on="1"/>
        <pt x="45" y="264" on="0"/>
        <pt x="248" y="264" on="1"/>
        <pt x="337" y="260" on="1"/>
        <pt x="337" y="323" on="1"/>
        <pt x="337" y="377" on="0"/>
        <pt x="285" y="442" on="0"/>
        <pt x="231" y="442" on="1"/>
        <pt x="219" y="442" on="0"/>
        <pt x="181" y="417" on="0"/>
        <pt x="168" y="404" on="1"/>
        <pt x="127" y="365" on="0"/>
        <pt x="102" y="340" on="1"/>
        <pt x="52" y="399" on="0"/>
        <pt x="48" y="459" on="1"/>
        <pt x="176" y="499" on="0"/>
        <pt x="266" y="499" on="1"/>
        <pt x="378" y="499" on="0"/>
        <pt x="433" y="437" on="1"/>
        <pt x="503" y="499" on="0"/>
        <pt x="698" y="499" on="0"/>
        <pt x="794" y="373" on="0"/>
        <pt x="794" y="262" on="1"/>
        <pt x="756" y="223" on="1"/>
        <pt x="482" y="223" on="1"/>
        <pt x="483" y="151" on="0"/>
        <pt x="558" y="73" on="0"/>
        <pt x="663" y="73" on="0"/>
        <pt x="769" y="128" on="1"/>
        <pt x="794" y="90" on="1"/>
        <pt x="775" y="72" on="0"/>
        <pt x="727" y="34" on="0"/>
        <pt x="614" y="-19" on="0"/>
      </contour>
      <contour>
        <pt x="577" y="435" on="1"/>
        <pt x="540" y="435" on="0"/>
        <pt x="518" y="420" on="1"/>
        <pt x="502" y="395" on="0"/>
        <pt x="484" y="313" on="0"/>
        <pt x="483" y="281" on="1"/>
        <pt x="658" y="291" on="1"/>
        <pt x="658" y="435" on="0"/>
      </contour>
      <contour>
        <pt x="297" y="208" on="0"/>
        <pt x="215" y="208" on="0"/>
        <pt x="192" y="193" on="1"/>
        <pt x="177" y="174" on="0"/>
        <pt x="177" y="144" on="1"/>
        <pt x="177" y="69" on="0"/>
        <pt x="247" y="69" on="1"/>
        <pt x="308" y="69" on="0"/>
        <pt x="359" y="113" on="1"/>
        <pt x="339" y="153" on="0"/>
        <pt x="339" y="196" on="1"/>
        <pt x="339" y="197" on="1"/>
      </contour>
    </TTGlyph>
    <TTGlyph name="agrave" xMin="45" yMin="-21" xMax="524" yMax="732">
      <contour>
        <pt x="245" y="69" on="1"/>
        <pt x="301" y="69" on="0"/>
        <pt x="338" y="115" on="1"/>
        <pt x="338" y="200" on="1"/>
        <pt x="302" y="213" on="0"/>
        <pt x="215" y="213" on="0"/>
        <pt x="192" y="197" on="1"/>
        <pt x="177" y="178" on="0"/>
        <pt x="177" y="147" on="1"/>
        <pt x="177" y="69" on="0"/>
      </contour>
      <contour>
        <pt x="470" y="172" on="1"/>
        <pt x="470" y="127" on="0"/>
        <pt x="500" y="45" on="0"/>
        <pt x="522" y="31" on="1"/>
        <pt x="524" y="9" on="1"/>
        <pt x="381" y="-21" on="1"/>
        <pt x="365" y="9" on="0"/>
        <pt x="351" y="63" on="1"/>
        <pt x="325" y="35" on="0"/>
        <pt x="293" y="8" on="0"/>
        <pt x="236" y="-18" on="0"/>
        <pt x="204" y="-18" on="1"/>
        <pt x="141" y="-18" on="0"/>
        <pt x="45" y="58" on="0"/>
        <pt x="45" y="130" on="1"/>
        <pt x="45" y="269" on="0"/>
        <pt x="248" y="269" on="1"/>
        <pt x="337" y="265" on="1"/>
        <pt x="337" y="326" on="1"/>
        <pt x="337" y="378" on="0"/>
        <pt x="285" y="442" on="0"/>
        <pt x="231" y="442" on="1"/>
        <pt x="219" y="442" on="0"/>
        <pt x="175" y="413" on="0"/>
        <pt x="102" y="340" on="1"/>
        <pt x="52" y="399" on="0"/>
        <pt x="48" y="459" on="1"/>
        <pt x="176" y="499" on="0"/>
        <pt x="352" y="499" on="0"/>
        <pt x="470" y="417" on="0"/>
        <pt x="470" y="329" on="1"/>
      </contour>
      <contour>
        <pt x="370" y="544" on="1"/>
        <pt x="333" y="505" on="1"/>
        <pt x="220" y="561" on="0"/>
        <pt x="111" y="657" on="1"/>
        <pt x="148" y="710" on="0"/>
        <pt x="211" y="732" on="1"/>
        <pt x="271" y="629" on="0"/>
      </contour>
    </TTGlyph>
    <TTGlyph name="ampersand" xMin="40" yMin="-67" xMax="859" yMax="711">
      <contour>
        <pt x="672" y="323" on="1"/>
        <pt x="672" y="232" on="0"/>
        <pt x="639" y="160" on="1"/>
        <pt x="744" y="98" on="0"/>
        <pt x="859" y="41" on="1"/>
        <pt x="775" y="-67" on="1"/>
        <pt x="680" y="0" on="0"/>
        <pt x="579" y="75" on="1"/>
        <pt x="490" y="-11" on="0"/>
        <pt x="186" y="-11" on="0"/>
        <pt x="40" y="119" on="0"/>
        <pt x="40" y="220" on="1"/>
        <pt x="40" y="304" on="0"/>
        <pt x="122" y="397" on="0"/>
        <pt x="176" y="415" on="1"/>
        <pt x="113" y="491" on="0"/>
        <pt x="113" y="571" on="1"/>
        <pt x="113" y="711" on="0"/>
        <pt x="318" y="711" on="1"/>
        <pt x="383" y="711" on="0"/>
        <pt x="508" y="686" on="0"/>
        <pt x="532" y="677" on="1"/>
        <pt x="529" y="650" on="0"/>
        <pt x="511" y="592" on="0"/>
        <pt x="479" y="554" on="1"/>
        <pt x="374" y="636" on="0"/>
        <pt x="311" y="636" on="1"/>
        <pt x="276" y="636" on="0"/>
        <pt x="234" y="594" on="0"/>
        <pt x="234" y="561" on="1"/>
        <pt x="234" y="464" on="0"/>
        <pt x="425" y="313" on="1"/>
        <pt x="501" y="254" on="0"/>
        <pt x="561" y="212" on="1"/>
        <pt x="567" y="245" on="0"/>
        <pt x="567" y="345" on="0"/>
        <pt x="551" y="394" on="1"/>
        <pt x="437" y="396" on="1"/>
        <pt x="492" y="467" on="1"/>
        <pt x="572" y="461" on="0"/>
        <pt x="611" y="461" on="1"/>
        <pt x="765" y="465" on="1"/>
        <pt x="731" y="394" on="1"/>
        <pt x="668" y="394" on="1"/>
        <pt x="672" y="360" on="0"/>
      </contour>
      <contour>
        <pt x="226" y="359" on="1"/>
        <pt x="179" y="317" on="0"/>
        <pt x="179" y="171" on="0"/>
        <pt x="276" y="67" on="0"/>
        <pt x="443" y="67" on="0"/>
        <pt x="502" y="107" on="1"/>
        <pt x="507" y="110" on="0"/>
        <pt x="516" y="119" on="1"/>
        <pt x="388" y="214" on="0"/>
        <pt x="289" y="294" on="0"/>
      </contour>
    </TTGlyph>
    <TTGlyph name="aring" xMin="45" yMin="-21" xMax="524" yMax="745">
      <contour>
        <pt x="245" y="69" on="1"/>
        <pt x="301" y="69" on="0"/>
        <pt x="338" y="115" on="1"/>
        <pt x="338" y="200" on="1"/>
        <pt x="302" y="213" on="0"/>
        <pt x="215" y="213" on="0"/>
        <pt x="192" y="197" on="1"/>
        <pt x="177" y="178" on="0"/>
        <pt x="177" y="147" on="1"/>
        <pt x="177" y="69" on="0"/>
      </contour>
      <contour>
        <pt x="470" y="172" on="1"/>
        <pt x="470" y="127" on="0"/>
        <pt x="500" y="45" on="0"/>
        <pt x="522" y="31" on="1"/>
        <pt x="524" y="9" on="1"/>
        <pt x="381" y="-21" on="1"/>
        <pt x="365" y="9" on="0"/>
        <pt x="351" y="63" on="1"/>
        <pt x="325" y="35" on="0"/>
        <pt x="293" y="8" on="0"/>
        <pt x="236" y="-18" on="0"/>
        <pt x="204" y="-18" on="1"/>
        <pt x="141" y="-18" on="0"/>
        <pt x="45" y="58" on="0"/>
        <pt x="45" y="130" on="1"/>
        <pt x="45" y="269" on="0"/>
        <pt x="248" y="269" on="1"/>
        <pt x="337" y="265" on="1"/>
        <pt x="337" y="326" on="1"/>
        <pt x="337" y="378" on="0"/>
        <pt x="285" y="442" on="0"/>
        <pt x="231" y="442" on="1"/>
        <pt x="219" y="442" on="0"/>
        <pt x="175" y="413" on="0"/>
        <pt x="102" y="340" on="1"/>
        <pt x="52" y="399" on="0"/>
        <pt x="48" y="459" on="1"/>
        <pt x="176" y="499" on="0"/>
        <pt x="352" y="499" on="0"/>
        <pt x="470" y="417" on="0"/>
        <pt x="470" y="329" on="1"/>
      </contour>
      <contour>
        <pt x="366" y="683" on="0"/>
        <pt x="366" y="593" on="0"/>
        <pt x="334" y="561" on="1"/>
        <pt x="302" y="528" on="0"/>
        <pt x="209" y="528" on="0"/>
        <pt x="150" y="589" on="0"/>
        <pt x="150" y="680" on="0"/>
        <pt x="215" y="744" on="0"/>
        <pt x="260" y="744" on="1"/>
        <pt x="307" y="744" on="0"/>
      </contour>
      <contour>
        <pt x="262" y="594" on="1"/>
        <pt x="281" y="594" on="0"/>
        <pt x="292" y="601" on="1"/>
        <pt x="302" y="613" on="0"/>
        <pt x="302" y="633" on="1"/>
        <pt x="302" y="678" on="0"/>
        <pt x="255" y="678" on="1"/>
        <pt x="236" y="678" on="0"/>
        <pt x="225" y="671" on="1"/>
        <pt x="215" y="661" on="0"/>
        <pt x="215" y="643" on="1"/>
        <pt x="215" y="594" on="0"/>
      </contour>
    </TTGlyph>
    <TTGlyph name="asciicircum" xMin="118" yMin="379" xMax="516" yMax="682">
      <contour>
        <pt x="276" y="682" on="1"/>
        <pt x="364" y="682" on="1"/>
        <pt x="516" y="379" on="1"/>
        <pt x="414" y="379" on="1"/>
        <pt x="318" y="578" on="1"/>
        <pt x="217" y="379" on="1"/>
        <pt x="118" y="379" on="1"/>
      </contour>
    </TTGlyph>
    <TTGlyph name="asciitilde" xMin="80" yMin="206" xMax="592" yMax="350">
      <contour>
        <pt x="440" y="206" on="1"/>
        <pt x="405" y="206" on="0"/>
        <pt x="267" y="259" on="0"/>
        <pt x="185" y="259" on="0"/>
        <pt x="125" y="215" on="1"/>
        <pt x="80" y="302" on="1"/>
        <pt x="168" y="350" on="0"/>
        <pt x="230" y="350" on="1"/>
        <pt x="262" y="350" on="0"/>
        <pt x="408" y="296" on="0"/>
        <pt x="489" y="296" on="0"/>
        <pt x="549" y="337" on="1"/>
        <pt x="592" y="251" on="1"/>
        <pt x="512" y="206" on="0"/>
      </contour>
    </TTGlyph>
    <TTGlyph name="asterisk" xMin="37" yMin="321" xMax="389" yMax="696">
      <contour>
        <pt x="249" y="340" on="1"/>
        <pt x="237" y="394" on="0"/>
        <pt x="213" y="449" on="1"/>
        <pt x="191" y="401" on="0"/>
        <pt x="177" y="340" on="1"/>
        <pt x="162" y="321" on="1"/>
        <pt x="63" y="388" on="1"/>
        <pt x="73" y="409" on="1"/>
        <pt x="126" y="438" on="0"/>
        <pt x="163" y="478" on="1"/>
        <pt x="105" y="469" on="0"/>
        <pt x="59" y="443" on="1"/>
        <pt x="38" y="447" on="1"/>
        <pt x="37" y="567" on="1"/>
        <pt x="60" y="568" on="1"/>
        <pt x="111" y="552" on="0"/>
        <pt x="162" y="545" on="1"/>
        <pt x="100" y="602" on="0"/>
        <pt x="74" y="614" on="1"/>
        <pt x="66" y="636" on="1"/>
        <pt x="150" y="696" on="1"/>
        <pt x="170" y="678" on="1"/>
        <pt x="185" y="621" on="0"/>
        <pt x="213" y="571" on="1"/>
        <pt x="244" y="625" on="0"/>
        <pt x="256" y="678" on="1"/>
        <pt x="276" y="696" on="1"/>
        <pt x="360" y="636" on="1"/>
        <pt x="352" y="614" on="1"/>
        <pt x="324" y="600" on="0"/>
        <pt x="264" y="545" on="1"/>
        <pt x="315" y="552" on="0"/>
        <pt x="366" y="568" on="1"/>
        <pt x="389" y="567" on="1"/>
        <pt x="388" y="447" on="1"/>
        <pt x="366" y="443" on="1"/>
        <pt x="324" y="468" on="0"/>
        <pt x="263" y="478" on="1"/>
        <pt x="306" y="433" on="0"/>
        <pt x="353" y="409" on="1"/>
        <pt x="363" y="388" on="1"/>
        <pt x="264" y="321" on="1"/>
      </contour>
    </TTGlyph>
    <TTGlyph name="at" xMin="35" yMin="-54" xMax="835" yMax="708">
      <contour>
        <pt x="421" y="-54" on="1"/>
        <pt x="253" y="-54" on="0"/>
        <pt x="35" y="135" on="0"/>
        <pt x="35" y="479" on="0"/>
        <pt x="263" y="708" on="0"/>
        <pt x="645" y="708" on="0"/>
        <pt x="835" y="531" on="0"/>
        <pt x="835" y="395" on="1"/>
        <pt x="835" y="278" on="0"/>
        <pt x="682" y="117" on="0"/>
        <pt x="578" y="117" on="1"/>
        <pt x="476" y="117" on="0"/>
        <pt x="476" y="225" on="1"/>
        <pt x="471" y="225" on="1"/>
        <pt x="422" y="173" on="0"/>
        <pt x="330" y="117" on="0"/>
        <pt x="297" y="117" on="1"/>
        <pt x="213" y="117" on="0"/>
        <pt x="213" y="235" on="1"/>
        <pt x="213" y="311" on="0"/>
        <pt x="277" y="453" on="0"/>
        <pt x="418" y="554" on="0"/>
        <pt x="514" y="554" on="1"/>
        <pt x="585" y="554" on="0"/>
        <pt x="644" y="535" on="1"/>
        <pt x="570" y="285" on="1"/>
        <pt x="560" y="251" on="0"/>
        <pt x="560" y="228" on="1"/>
        <pt x="560" y="185" on="0"/>
        <pt x="595" y="187" on="1"/>
        <pt x="656" y="190" on="0"/>
        <pt x="734" y="322" on="0"/>
        <pt x="734" y="448" on="0"/>
        <pt x="693" y="533" on="0"/>
        <pt x="630" y="584" on="0"/>
        <pt x="588" y="601" on="1"/>
        <pt x="515" y="630" on="0"/>
        <pt x="360" y="630" on="0"/>
        <pt x="307" y="612" on="1"/>
        <pt x="151" y="523" on="0"/>
        <pt x="151" y="328" on="1"/>
        <pt x="151" y="172" on="0"/>
        <pt x="311" y="23" on="0"/>
        <pt x="438" y="23" on="1"/>
        <pt x="538" y="23" on="0"/>
        <pt x="647" y="75" on="1"/>
        <pt x="679" y="28" on="1"/>
        <pt x="560" y="-54" on="0"/>
      </contour>
      <contour>
        <pt x="528" y="478" on="1"/>
        <pt x="510" y="485" on="0"/>
        <pt x="447" y="485" on="0"/>
        <pt x="416" y="475" on="1"/>
        <pt x="369" y="417" on="0"/>
        <pt x="346" y="331" on="1"/>
        <pt x="333" y="283" on="0"/>
        <pt x="333" y="208" on="0"/>
        <pt x="346" y="208" on="1"/>
        <pt x="367" y="208" on="0"/>
        <pt x="450" y="286" on="1"/>
        <pt x="483" y="318" on="0"/>
        <pt x="490" y="350" on="1"/>
      </contour>
    </TTGlyph>
    <TTGlyph name="atilde" xMin="45" yMin="-21" xMax="524" yMax="692">
      <contour>
        <pt x="245" y="69" on="1"/>
        <pt x="301" y="69" on="0"/>
        <pt x="338" y="115" on="1"/>
        <pt x="338" y="200" on="1"/>
        <pt x="302" y="213" on="0"/>
        <pt x="215" y="213" on="0"/>
        <pt x="192" y="197" on="1"/>
        <pt x="177" y="178" on="0"/>
        <pt x="177" y="147" on="1"/>
        <pt x="177" y="69" on="0"/>
      </contour>
      <contour>
        <pt x="470" y="172" on="1"/>
        <pt x="470" y="127" on="0"/>
        <pt x="500" y="45" on="0"/>
        <pt x="522" y="31" on="1"/>
        <pt x="524" y="9" on="1"/>
        <pt x="381" y="-21" on="1"/>
        <pt x="365" y="9" on="0"/>
        <pt x="351" y="63" on="1"/>
        <pt x="325" y="35" on="0"/>
        <pt x="293" y="8" on="0"/>
        <pt x="236" y="-18" on="0"/>
        <pt x="204" y="-18" on="1"/>
        <pt x="141" y="-18" on="0"/>
        <pt x="45" y="58" on="0"/>
        <pt x="45" y="130" on="1"/>
        <pt x="45" y="269" on="0"/>
        <pt x="248" y="269" on="1"/>
        <pt x="337" y="265" on="1"/>
        <pt x="337" y="326" on="1"/>
        <pt x="337" y="378" on="0"/>
        <pt x="285" y="442" on="0"/>
        <pt x="231" y="442" on="1"/>
        <pt x="219" y="442" on="0"/>
        <pt x="175" y="413" on="0"/>
        <pt x="102" y="340" on="1"/>
        <pt x="52" y="399" on="0"/>
        <pt x="48" y="459" on="1"/>
        <pt x="176" y="499" on="0"/>
        <pt x="352" y="499" on="0"/>
        <pt x="470" y="417" on="0"/>
        <pt x="470" y="329" on="1"/>
      </contour>
      <contour>
        <pt x="365" y="556" on="1"/>
        <pt x="341" y="556" on="0"/>
        <pt x="222" y="604" on="0"/>
        <pt x="189" y="604" on="0"/>
        <pt x="172" y="600" on="0"/>
        <pt x="161" y="596" on="0"/>
        <pt x="142" y="586" on="0"/>
        <pt x="136" y="582" on="0"/>
        <pt x="115" y="569" on="0"/>
        <pt x="114" y="568" on="1"/>
        <pt x="85" y="593" on="1"/>
        <pt x="111" y="624" on="0"/>
        <pt x="186" y="692" on="0"/>
        <pt x="232" y="692" on="0"/>
        <pt x="347" y="649" on="0"/>
        <pt x="377" y="649" on="0"/>
        <pt x="395" y="652" on="0"/>
        <pt x="418" y="662" on="0"/>
        <pt x="427" y="666" on="0"/>
        <pt x="455" y="682" on="0"/>
        <pt x="456" y="682" on="1"/>
        <pt x="483" y="657" on="1"/>
        <pt x="400" y="556" on="0"/>
      </contour>
    </TTGlyph>
    <TTGlyph name="b" xMin="49" yMin="-19" xMax="582" yMax="746">
      <contour>
        <pt x="223" y="81" on="1"/>
        <pt x="294" y="56" on="0"/>
        <pt x="384" y="56" on="0"/>
        <pt x="397" y="66" on="1"/>
        <pt x="412" y="85" on="0"/>
        <pt x="438" y="200" on="0"/>
        <pt x="438" y="256" on="1"/>
        <pt x="438" y="425" on="0"/>
        <pt x="356" y="425" on="1"/>
        <pt x="303" y="425" on="0"/>
        <pt x="223" y="378" on="1"/>
      </contour>
      <contour>
        <pt x="223" y="642" on="1"/>
        <pt x="223" y="447" on="1"/>
        <pt x="290" y="499" on="0"/>
        <pt x="361" y="499" on="1"/>
        <pt x="464" y="499" on="0"/>
        <pt x="582" y="364" on="0"/>
        <pt x="582" y="266" on="1"/>
        <pt x="582" y="145" on="0"/>
        <pt x="406" y="-19" on="0"/>
        <pt x="285" y="-19" on="1"/>
        <pt x="207" y="-19" on="0"/>
        <pt x="83" y="28" on="1"/>
        <pt x="83" y="50" on="1"/>
        <pt x="94" y="78" on="0"/>
        <pt x="94" y="182" on="1"/>
        <pt x="94" y="570" on="1"/>
        <pt x="94" y="646" on="0"/>
        <pt x="49" y="689" on="1"/>
        <pt x="49" y="711" on="1"/>
        <pt x="220" y="746" on="1"/>
        <pt x="228" y="724" on="1"/>
        <pt x="223" y="697" on="0"/>
      </contour>
    </TTGlyph>
    <TTGlyph name="backslash" xMin="-72" yMin="-189" xMax="356" yMax="731">
      <contour>
        <pt x="356" y="-92" on="1"/>
        <pt x="286" y="-189" on="1"/>
        <pt x="271" y="-174" on="1"/>
        <pt x="245" y="-91" on="0"/>
        <pt x="56" y="351" on="0"/>
        <pt x="-14" y="504" on="0"/>
        <pt x="-72" y="617" on="1"/>
        <pt x="-2" y="731" on="1"/>
        <pt x="14" y="715" on="1"/>
        <pt x="33" y="652" on="0"/>
        <pt x="208" y="227" on="0"/>
        <pt x="248" y="138" on="1"/>
      </contour>
    </TTGlyph>
    <TTGlyph name="bar" xMin="73" yMin="-189" xMax="201" yMax="739">
      <contour>
        <pt x="192" y="580" on="1"/>
        <pt x="192" y="-143" on="1"/>
        <pt x="74" y="-189" on="1"/>
        <pt x="73" y="690" on="1"/>
        <pt x="73" y="695" on="1"/>
        <pt x="201" y="739" on="1"/>
        <pt x="192" y="620" on="0"/>
      </contour>
    </TTGlyph>
    <TTGlyph name="braceleft" xMin="53" yMin="-168" xMax="411" yMax="748">
      <contour>
        <pt x="259" y="104" on="1"/>
        <pt x="259" y="35" on="1"/>
        <pt x="259" y="-79" on="0"/>
        <pt x="280" y="-102" on="1"/>
        <pt x="291" y="-113" on="0"/>
        <pt x="347" y="-113" on="0"/>
        <pt x="403" y="-103" on="1"/>
        <pt x="411" y="-149" on="1"/>
        <pt x="333" y="-168" on="0"/>
        <pt x="248" y="-168" on="0"/>
        <pt x="189" y="-145" on="0"/>
        <pt x="155" y="-109" on="0"/>
        <pt x="146" y="-78" on="1"/>
        <pt x="132" y="-31" on="0"/>
        <pt x="132" y="52" on="1"/>
        <pt x="132" y="134" on="1"/>
        <pt x="132" y="213" on="0"/>
        <pt x="79" y="248" on="1"/>
        <pt x="69" y="254" on="0"/>
        <pt x="53" y="262" on="1"/>
        <pt x="53" y="278" on="1"/>
        <pt x="75" y="292" on="0"/>
        <pt x="104" y="316" on="0"/>
        <pt x="133" y="376" on="0"/>
        <pt x="133" y="415" on="1"/>
        <pt x="133" y="529" on="1"/>
        <pt x="133" y="660" on="0"/>
        <pt x="170" y="704" on="1"/>
        <pt x="185" y="722" on="0"/>
        <pt x="246" y="748" on="0"/>
        <pt x="339" y="748" on="0"/>
        <pt x="410" y="729" on="1"/>
        <pt x="402" y="683" on="1"/>
        <pt x="346" y="693" on="0"/>
        <pt x="276" y="693" on="0"/>
        <pt x="259" y="622" on="0"/>
        <pt x="259" y="550" on="1"/>
        <pt x="259" y="434" on="1"/>
        <pt x="259" y="366" on="0"/>
        <pt x="225" y="326" on="1"/>
        <pt x="201" y="299" on="0"/>
        <pt x="162" y="273" on="1"/>
        <pt x="162" y="267" on="1"/>
        <pt x="259" y="209" on="0"/>
      </contour>
    </TTGlyph>
    <TTGlyph name="braceright" xMin="35" yMin="-168" xMax="393" yMax="748">
      <contour>
        <pt x="187" y="35" on="1"/>
        <pt x="187" y="104" on="1"/>
        <pt x="187" y="209" on="0"/>
        <pt x="284" y="267" on="1"/>
        <pt x="284" y="273" on="1"/>
        <pt x="212" y="321" on="0"/>
        <pt x="196" y="373" on="1"/>
        <pt x="187" y="400" on="0"/>
        <pt x="187" y="434" on="1"/>
        <pt x="187" y="550" on="1"/>
        <pt x="187" y="622" on="0"/>
        <pt x="170" y="693" on="0"/>
        <pt x="100" y="693" on="0"/>
        <pt x="44" y="683" on="1"/>
        <pt x="36" y="729" on="1"/>
        <pt x="107" y="748" on="0"/>
        <pt x="200" y="748" on="0"/>
        <pt x="261" y="722" on="0"/>
        <pt x="292" y="685" on="0"/>
        <pt x="300" y="652" on="1"/>
        <pt x="313" y="605" on="0"/>
        <pt x="313" y="529" on="1"/>
        <pt x="313" y="415" on="1"/>
        <pt x="313" y="376" on="0"/>
        <pt x="342" y="316" on="0"/>
        <pt x="371" y="292" on="0"/>
        <pt x="393" y="278" on="1"/>
        <pt x="393" y="262" on="1"/>
        <pt x="336" y="233" on="0"/>
        <pt x="322" y="188" on="1"/>
        <pt x="314" y="165" on="0"/>
        <pt x="314" y="134" on="1"/>
        <pt x="314" y="52" on="1"/>
        <pt x="314" y="-85" on="0"/>
        <pt x="274" y="-127" on="1"/>
        <pt x="235" y="-168" on="0"/>
        <pt x="156" y="-168" on="1"/>
        <pt x="113" y="-168" on="0"/>
        <pt x="35" y="-149" on="1"/>
        <pt x="43" y="-103" on="1"/>
        <pt x="99" y="-113" on="0"/>
        <pt x="170" y="-113" on="0"/>
        <pt x="187" y="-39" on="0"/>
      </contour>
    </TTGlyph>
    <TTGlyph name="bracketleft" xMin="95" yMin="-178" xMax="410" yMax="760">
      <contour>
        <pt x="228" y="-114" on="1"/>
        <pt x="296" y="-114" on="0"/>
        <pt x="347" y="-95" on="1"/>
        <pt x="366" y="-95" on="1"/>
        <pt x="410" y="-178" on="1"/>
        <pt x="95" y="-174" on="1"/>
        <pt x="95" y="757" on="1"/>
        <pt x="410" y="760" on="1"/>
        <pt x="366" y="678" on="1"/>
        <pt x="347" y="678" on="1"/>
        <pt x="302" y="695" on="0"/>
        <pt x="230" y="695" on="1"/>
        <pt x="215" y="695" on="1"/>
        <pt x="215" y="-34" on="1"/>
        <pt x="215" y="-85" on="0"/>
        <pt x="217" y="-114" on="1"/>
      </contour>
    </TTGlyph>
    <TTGlyph name="bracketright" xMin="95" yMin="-178" xMax="410" yMax="760">
      <contour>
        <pt x="277" y="-114" on="1"/>
        <pt x="288" y="-114" on="1"/>
        <pt x="290" y="-85" on="0"/>
        <pt x="290" y="-34" on="1"/>
        <pt x="290" y="695" on="1"/>
        <pt x="275" y="695" on="1"/>
        <pt x="203" y="695" on="0"/>
        <pt x="158" y="678" on="1"/>
        <pt x="139" y="678" on="1"/>
        <pt x="95" y="760" on="1"/>
        <pt x="410" y="757" on="1"/>
        <pt x="410" y="-174" on="1"/>
        <pt x="95" y="-178" on="1"/>
        <pt x="139" y="-95" on="1"/>
        <pt x="158" y="-95" on="1"/>
        <pt x="209" y="-114" on="0"/>
      </contour>
    </TTGlyph>
    <TTGlyph name="brokenbar" xMin="73" yMin="-189" xMax="201" yMax="739">
      <contour>
        <pt x="192" y="235" on="1"/>
        <pt x="192" y="-143" on="1"/>
        <pt x="74" y="-189" on="1"/>
        <pt x="73" y="235" on="1"/>
      </contour>
      <contour>
        <pt x="192" y="355" on="1"/>
        <pt x="73" y="355" on="1"/>
        <pt x="73" y="695" on="1"/>
        <pt x="201" y="739" on="1"/>
        <pt x="192" y="620" on="0"/>
        <pt x="192" y="580" on="1"/>
      </contour>
    </TTGlyph>
    <TTGlyph name="bullet" xMin="142" yMin="178" xMax="424" yMax="459">
      <contour>
        <pt x="424" y="312" on="0"/>
        <pt x="424" y="256" on="0"/>
        <pt x="419" y="235" on="1"/>
        <pt x="400" y="218" on="1"/>
        <pt x="365" y="196" on="0"/>
        <pt x="258" y="178" on="0"/>
        <pt x="213" y="178" on="0"/>
        <pt x="201" y="180" on="1"/>
        <pt x="179" y="192" on="1"/>
        <pt x="158" y="219" on="0"/>
        <pt x="142" y="322" on="0"/>
        <pt x="142" y="379" on="0"/>
        <pt x="146" y="401" on="1"/>
        <pt x="165" y="419" on="1"/>
        <pt x="200" y="438" on="0"/>
        <pt x="303" y="459" on="0"/>
        <pt x="354" y="459" on="0"/>
        <pt x="369" y="457" on="1"/>
        <pt x="388" y="447" on="1"/>
        <pt x="409" y="416" on="0"/>
      </contour>
    </TTGlyph>
    <TTGlyph name="c" xMin="44" yMin="-18" xMax="505" yMax="499">
      <contour>
        <pt x="188" y="246" on="1"/>
        <pt x="188" y="71" on="0"/>
        <pt x="290" y="71" on="1"/>
        <pt x="362" y="71" on="0"/>
        <pt x="479" y="132" on="1"/>
        <pt x="505" y="91" on="1"/>
        <pt x="465" y="54" on="0"/>
        <pt x="334" y="-18" on="0"/>
        <pt x="288" y="-18" on="1"/>
        <pt x="175" y="-18" on="0"/>
        <pt x="44" y="121" on="0"/>
        <pt x="44" y="348" on="0"/>
        <pt x="210" y="499" on="0"/>
        <pt x="424" y="499" on="0"/>
        <pt x="501" y="448" on="1"/>
        <pt x="467" y="391" on="0"/>
        <pt x="437" y="359" on="1"/>
        <pt x="356" y="421" on="0"/>
        <pt x="282" y="421" on="1"/>
        <pt x="263" y="421" on="0"/>
        <pt x="248" y="418" on="1"/>
        <pt x="222" y="394" on="0"/>
        <pt x="188" y="302" on="0"/>
      </contour>
    </TTGlyph>
    <TTGlyph name="caron" xMin="92" yMin="516" xMax="425" yMax="702">
      <contour>
        <pt x="315" y="526" on="1"/>
        <pt x="215" y="516" on="1"/>
        <pt x="162" y="606" on="0"/>
        <pt x="92" y="663" on="1"/>
        <pt x="130" y="702" on="1"/>
        <pt x="164" y="682" on="0"/>
        <pt x="238" y="618" on="0"/>
        <pt x="256" y="592" on="1"/>
        <pt x="279" y="622" on="0"/>
        <pt x="349" y="685" on="0"/>
        <pt x="381" y="702" on="1"/>
        <pt x="425" y="663" on="1"/>
        <pt x="365" y="619" on="0"/>
      </contour>
    </TTGlyph>
    <TTGlyph name="caron.cap" xMin="92" yMin="730" xMax="425" yMax="907">
      <contour>
        <pt x="315" y="740" on="1"/>
        <pt x="215" y="730" on="1"/>
        <pt x="162" y="816" on="0"/>
        <pt x="92" y="868" on="1"/>
        <pt x="130" y="907" on="1"/>
        <pt x="164" y="887" on="0"/>
        <pt x="238" y="823" on="0"/>
        <pt x="256" y="797" on="1"/>
        <pt x="279" y="827" on="0"/>
        <pt x="349" y="890" on="0"/>
        <pt x="381" y="907" on="1"/>
        <pt x="425" y="868" on="1"/>
        <pt x="365" y="827" on="0"/>
      </contour>
    </TTGlyph>
    <TTGlyph name="ccedilla" xMin="44" yMin="-224" xMax="505" yMax="499">
      <contour>
        <pt x="188" y="246" on="1"/>
        <pt x="188" y="71" on="0"/>
        <pt x="290" y="71" on="1"/>
        <pt x="362" y="71" on="0"/>
        <pt x="479" y="132" on="1"/>
        <pt x="505" y="91" on="1"/>
        <pt x="472" y="60" on="0"/>
        <pt x="361" y="-5" on="0"/>
        <pt x="315" y="-15" on="1"/>
        <pt x="285" y="-63" on="1"/>
        <pt x="295" y="-60" on="0"/>
        <pt x="348" y="-61" on="0"/>
        <pt x="394" y="-102" on="0"/>
        <pt x="394" y="-178" on="0"/>
        <pt x="324" y="-224" on="0"/>
        <pt x="248" y="-224" on="0"/>
        <pt x="176" y="-198" on="0"/>
        <pt x="161" y="-189" on="1"/>
        <pt x="180" y="-148" on="1"/>
        <pt x="212" y="-165" on="0"/>
        <pt x="267" y="-165" on="0"/>
        <pt x="296" y="-147" on="0"/>
        <pt x="296" y="-118" on="0"/>
        <pt x="284" y="-109" on="1"/>
        <pt x="270" y="-105" on="0"/>
        <pt x="234" y="-105" on="0"/>
        <pt x="213" y="-109" on="1"/>
        <pt x="200" y="-90" on="1"/>
        <pt x="237" y="-14" on="1"/>
        <pt x="146" y="1" on="0"/>
        <pt x="44" y="135" on="0"/>
        <pt x="44" y="348" on="0"/>
        <pt x="210" y="499" on="0"/>
        <pt x="424" y="499" on="0"/>
        <pt x="501" y="448" on="1"/>
        <pt x="467" y="391" on="0"/>
        <pt x="437" y="359" on="1"/>
        <pt x="356" y="421" on="0"/>
        <pt x="282" y="421" on="1"/>
        <pt x="263" y="421" on="0"/>
        <pt x="248" y="418" on="1"/>
        <pt x="222" y="394" on="0"/>
        <pt x="188" y="302" on="0"/>
      </contour>
    </TTGlyph>
    <TTGlyph name="cedilla" xMin="243" yMin="-224" xMax="476" yMax="-2">
      <contour>
        <pt x="430" y="-61" on="0"/>
        <pt x="476" y="-102" on="0"/>
        <pt x="476" y="-178" on="0"/>
        <pt x="406" y="-224" on="0"/>
        <pt x="330" y="-224" on="0"/>
        <pt x="258" y="-198" on="0"/>
        <pt x="243" y="-189" on="1"/>
        <pt x="262" y="-148" on="1"/>
        <pt x="294" y="-165" on="0"/>
        <pt x="349" y="-165" on="0"/>
        <pt x="378" y="-147" on="0"/>
        <pt x="378" y="-118" on="0"/>
        <pt x="366" y="-109" on="1"/>
        <pt x="352" y="-105" on="0"/>
        <pt x="316" y="-105" on="0"/>
        <pt x="295" y="-109" on="1"/>
        <pt x="282" y="-90" on="1"/>
        <pt x="325" y="-2" on="1"/>
        <pt x="401" y="-9" on="1"/>
        <pt x="367" y="-63" on="1"/>
        <pt x="377" y="-60" on="0"/>
      </contour>
    </TTGlyph>
    <TTGlyph name="cent" xMin="40" yMin="-131" xMax="501" yMax="610">
      <contour>
        <pt x="168" y="-17" on="0"/>
        <pt x="40" y="122" on="0"/>
        <pt x="40" y="338" on="0"/>
        <pt x="180" y="483" on="0"/>
        <pt x="281" y="496" on="1"/>
        <pt x="281" y="543" on="0"/>
        <pt x="277" y="584" on="1"/>
        <pt x="353" y="610" on="1"/>
        <pt x="358" y="596" on="1"/>
        <pt x="352" y="548" on="0"/>
        <pt x="350" y="497" on="1"/>
        <pt x="436" y="487" on="0"/>
        <pt x="497" y="448" on="1"/>
        <pt x="463" y="391" on="0"/>
        <pt x="433" y="359" on="1"/>
        <pt x="390" y="391" on="0"/>
        <pt x="350" y="407" on="1"/>
        <pt x="350" y="79" on="1"/>
        <pt x="402" y="93" on="0"/>
        <pt x="475" y="132" on="1"/>
        <pt x="501" y="91" on="1"/>
        <pt x="434" y="28" on="0"/>
        <pt x="350" y="-3" on="1"/>
        <pt x="350" y="-80" on="0"/>
        <pt x="354" y="-115" on="1"/>
        <pt x="274" y="-131" on="1"/>
        <pt x="269" y="-117" on="1"/>
        <pt x="277" y="-56" on="0"/>
        <pt x="279" y="-18" on="1"/>
      </contour>
      <contour>
        <pt x="184" y="246" on="1"/>
        <pt x="184" y="75" on="0"/>
        <pt x="281" y="71" on="1"/>
        <pt x="281" y="421" on="1"/>
        <pt x="278" y="421" on="1"/>
        <pt x="259" y="421" on="0"/>
        <pt x="244" y="418" on="1"/>
        <pt x="218" y="394" on="0"/>
        <pt x="184" y="302" on="0"/>
      </contour>
    </TTGlyph>
    <TTGlyph name="circumflex" xMin="87" yMin="516" xMax="412" yMax="703">
      <contour>
        <pt x="207" y="703" on="1"/>
        <pt x="287" y="703" on="1"/>
        <pt x="313" y="650" on="0"/>
        <pt x="362" y="605" on="1"/>
        <pt x="379" y="589" on="0"/>
        <pt x="412" y="561" on="1"/>
        <pt x="370" y="516" on="1"/>
        <pt x="297" y="560" on="0"/>
        <pt x="244" y="619" on="1"/>
        <pt x="198" y="572" on="0"/>
        <pt x="130" y="521" on="1"/>
        <pt x="87" y="565" on="1"/>
        <pt x="174" y="641" on="0"/>
      </contour>
    </TTGlyph>
    <TTGlyph name="circumflex.cap" xMin="89" yMin="716" xMax="414" yMax="903">
      <contour>
        <pt x="209" y="903" on="1"/>
        <pt x="289" y="903" on="1"/>
        <pt x="315" y="850" on="0"/>
        <pt x="364" y="805" on="1"/>
        <pt x="381" y="789" on="0"/>
        <pt x="414" y="761" on="1"/>
        <pt x="372" y="716" on="1"/>
        <pt x="299" y="760" on="0"/>
        <pt x="246" y="819" on="1"/>
        <pt x="200" y="772" on="0"/>
        <pt x="132" y="721" on="1"/>
        <pt x="89" y="765" on="1"/>
        <pt x="176" y="841" on="0"/>
      </contour>
    </TTGlyph>
    <TTGlyph name="colon" xMin="91" yMin="-10" xMax="257" yMax="463">
      <contour>
        <pt x="212" y="462" on="0"/>
        <pt x="223" y="456" on="1"/>
        <pt x="239" y="442" on="0"/>
        <pt x="239" y="391" on="1"/>
        <pt x="239" y="378" on="0"/>
        <pt x="237" y="367" on="1"/>
        <pt x="228" y="359" on="1"/>
        <pt x="173" y="344" on="0"/>
        <pt x="120" y="341" on="1"/>
        <pt x="109" y="346" on="1"/>
        <pt x="92" y="376" on="0"/>
        <pt x="92" y="425" on="1"/>
        <pt x="92" y="431" on="0"/>
        <pt x="92" y="436" on="1"/>
        <pt x="101" y="444" on="1"/>
        <pt x="158" y="462" on="0"/>
        <pt x="207" y="462" on="1"/>
      </contour>
      <contour>
        <pt x="241" y="105" on="1"/>
        <pt x="257" y="91" on="0"/>
        <pt x="257" y="40" on="1"/>
        <pt x="257" y="27" on="0"/>
        <pt x="255" y="16" on="1"/>
        <pt x="246" y="8" on="1"/>
        <pt x="191" y="-7" on="0"/>
        <pt x="138" y="-10" on="1"/>
        <pt x="127" y="-5" on="1"/>
        <pt x="110" y="25" on="0"/>
        <pt x="110" y="74" on="1"/>
        <pt x="110" y="80" on="0"/>
        <pt x="110" y="85" on="1"/>
        <pt x="119" y="93" on="1"/>
        <pt x="176" y="111" on="0"/>
        <pt x="225" y="111" on="1"/>
        <pt x="230" y="111" on="0"/>
      </contour>
    </TTGlyph>
    <TTGlyph name="comma" xMin="32" yMin="-180" xMax="222" yMax="113">
      <contour>
        <pt x="210" y="96" on="1"/>
        <pt x="222" y="72" on="0"/>
        <pt x="222" y="1" on="0"/>
        <pt x="204" y="-54" on="0"/>
        <pt x="182" y="-85" on="1"/>
        <pt x="156" y="-124" on="0"/>
        <pt x="106" y="-180" on="1"/>
        <pt x="32" y="-155" on="1"/>
        <pt x="63" y="-106" on="0"/>
        <pt x="89" y="-34" on="0"/>
        <pt x="89" y="46" on="0"/>
        <pt x="68" y="80" on="1"/>
        <pt x="73" y="94" on="1"/>
        <pt x="123" y="113" on="0"/>
        <pt x="182" y="113" on="1"/>
        <pt x="189" y="113" on="0"/>
        <pt x="195" y="112" on="1"/>
        <pt x="210" y="97" on="0"/>
      </contour>
    </TTGlyph>
    <TTGlyph name="commaaccent" xMin="85" yMin="-236" xMax="221" yMax="-22">
      <contour>
        <pt x="211" y="-30" on="1"/>
        <pt x="221" y="-56" on="0"/>
        <pt x="221" y="-126" on="0"/>
        <pt x="173" y="-196" on="0"/>
        <pt x="128" y="-236" on="1"/>
        <pt x="85" y="-218" on="1"/>
        <pt x="106" y="-177" on="0"/>
        <pt x="117" y="-135" on="0"/>
        <pt x="117" y="-73" on="0"/>
        <pt x="100" y="-43" on="1"/>
        <pt x="102" y="-37" on="0"/>
        <pt x="107" y="-34" on="1"/>
        <pt x="121" y="-29" on="0"/>
        <pt x="177" y="-22" on="0"/>
        <pt x="197" y="-22" on="0"/>
        <pt x="201" y="-23" on="1"/>
      </contour>
    </TTGlyph>
    <TTGlyph name="copyright" xMin="31" yMin="-7" xMax="753" yMax="711">
      <contour>
        <pt x="542" y="711" on="0"/>
        <pt x="753" y="502" on="0"/>
        <pt x="753" y="204" on="0"/>
        <pt x="544" y="-7" on="0"/>
        <pt x="244" y="-7" on="0"/>
        <pt x="31" y="204" on="0"/>
        <pt x="31" y="500" on="0"/>
        <pt x="244" y="711" on="0"/>
      </contour>
      <contour>
        <pt x="508" y="63" on="0"/>
        <pt x="675" y="232" on="0"/>
        <pt x="675" y="470" on="0"/>
        <pt x="511" y="641" on="0"/>
        <pt x="278" y="641" on="0"/>
        <pt x="112" y="471" on="0"/>
        <pt x="112" y="233" on="0"/>
        <pt x="277" y="63" on="0"/>
      </contour>
      <contour>
        <pt x="322" y="309" on="0"/>
        <pt x="359" y="238" on="0"/>
        <pt x="432" y="238" on="0"/>
        <pt x="519" y="268" on="0"/>
        <pt x="535" y="278" on="1"/>
        <pt x="566" y="233" on="1"/>
        <pt x="565" y="233" on="0"/>
        <pt x="546" y="219" on="0"/>
        <pt x="514" y="201" on="1"/>
        <pt x="442" y="160" on="0"/>
        <pt x="393" y="160" on="1"/>
        <pt x="307" y="160" on="0"/>
        <pt x="207" y="268" on="0"/>
        <pt x="207" y="442" on="0"/>
        <pt x="336" y="559" on="0"/>
        <pt x="508" y="559" on="0"/>
        <pt x="562" y="517" on="1"/>
        <pt x="538" y="474" on="0"/>
        <pt x="509" y="447" on="1"/>
        <pt x="438" y="490" on="0"/>
        <pt x="401" y="490" on="1"/>
        <pt x="386" y="490" on="0"/>
        <pt x="369" y="487" on="1"/>
        <pt x="347" y="474" on="0"/>
        <pt x="322" y="404" on="0"/>
      </contour>
    </TTGlyph>
    <TTGlyph name="currency" xMin="75" yMin="119" xMax="581" yMax="579">
      <contour>
        <pt x="445" y="181" on="1"/>
        <pt x="390" y="146" on="0"/>
        <pt x="269" y="146" on="0"/>
        <pt x="214" y="181" on="1"/>
        <pt x="158" y="119" on="1"/>
        <pt x="75" y="153" on="1"/>
        <pt x="155" y="227" on="1"/>
        <pt x="115" y="282" on="0"/>
        <pt x="115" y="412" on="0"/>
        <pt x="157" y="470" on="1"/>
        <pt x="75" y="547" on="1"/>
        <pt x="158" y="578" on="1"/>
        <pt x="214" y="517" on="1"/>
        <pt x="266" y="550" on="0"/>
        <pt x="390" y="550" on="0"/>
        <pt x="442" y="517" on="1"/>
        <pt x="487" y="568" on="1"/>
        <pt x="498" y="579" on="1"/>
        <pt x="581" y="548" on="1"/>
        <pt x="497" y="471" on="1"/>
        <pt x="539" y="416" on="0"/>
        <pt x="539" y="277" on="0"/>
        <pt x="496" y="227" on="1"/>
        <pt x="580" y="150" on="1"/>
        <pt x="499" y="119" on="1"/>
      </contour>
      <contour>
        <pt x="439" y="303" on="0"/>
        <pt x="439" y="399" on="0"/>
        <pt x="375" y="466" on="0"/>
        <pt x="278" y="466" on="0"/>
        <pt x="216" y="399" on="0"/>
        <pt x="216" y="303" on="0"/>
        <pt x="278" y="237" on="0"/>
        <pt x="375" y="237" on="0"/>
      </contour>
    </TTGlyph>
    <TTGlyph name="d" xMin="49" yMin="-21" xMax="588" yMax="746">
      <contour>
        <pt x="289" y="-19" on="1"/>
        <pt x="171" y="-19" on="0"/>
        <pt x="49" y="127" on="0"/>
        <pt x="49" y="346" on="0"/>
        <pt x="204" y="499" on="0"/>
        <pt x="323" y="499" on="1"/>
        <pt x="367" y="499" on="0"/>
        <pt x="408" y="492" on="1"/>
        <pt x="408" y="582" on="1"/>
        <pt x="408" y="648" on="0"/>
        <pt x="363" y="689" on="1"/>
        <pt x="363" y="711" on="1"/>
        <pt x="530" y="746" on="1"/>
        <pt x="540" y="724" on="1"/>
        <pt x="537" y="705" on="0"/>
        <pt x="537" y="648" on="1"/>
        <pt x="537" y="181" on="1"/>
        <pt x="537" y="135" on="0"/>
        <pt x="564" y="55" on="0"/>
        <pt x="586" y="40" on="1"/>
        <pt x="588" y="18" on="1"/>
        <pt x="438" y="-21" on="1"/>
        <pt x="427" y="10" on="0"/>
        <pt x="418" y="47" on="1"/>
        <pt x="352" y="-19" on="0"/>
      </contour>
      <contour>
        <pt x="193" y="250" on="1"/>
        <pt x="193" y="174" on="0"/>
        <pt x="247" y="61" on="0"/>
        <pt x="349" y="61" on="0"/>
        <pt x="408" y="108" on="1"/>
        <pt x="408" y="388" on="1"/>
        <pt x="349" y="426" on="0"/>
        <pt x="279" y="426" on="1"/>
        <pt x="249" y="426" on="0"/>
        <pt x="232" y="413" on="1"/>
        <pt x="193" y="365" on="0"/>
      </contour>
    </TTGlyph>
    <TTGlyph name="degree" xMin="39" yMin="416" xMax="328" yMax="705">
      <contour>
        <pt x="39" y="624" on="0"/>
        <pt x="120" y="705" on="0"/>
        <pt x="247" y="705" on="0"/>
        <pt x="328" y="627" on="0"/>
        <pt x="328" y="500" on="0"/>
        <pt x="249" y="416" on="0"/>
        <pt x="122" y="416" on="0"/>
        <pt x="39" y="496" on="0"/>
      </contour>
      <contour>
        <pt x="189" y="487" on="1"/>
        <pt x="232" y="487" on="0"/>
        <pt x="252" y="507" on="1"/>
        <pt x="260" y="528" on="0"/>
        <pt x="260" y="551" on="1"/>
        <pt x="260" y="634" on="0"/>
        <pt x="177" y="634" on="1"/>
        <pt x="137" y="634" on="0"/>
        <pt x="115" y="614" on="1"/>
        <pt x="108" y="593" on="0"/>
        <pt x="108" y="570" on="1"/>
        <pt x="108" y="487" on="0"/>
      </contour>
    </TTGlyph>
    <TTGlyph name="dieresis" xMin="82" yMin="553" xMax="453" yMax="693">
      <contour>
        <pt x="225" y="676" on="1"/>
        <pt x="232" y="668" on="0"/>
        <pt x="239" y="616" on="0"/>
        <pt x="239" y="588" on="0"/>
        <pt x="238" y="579" on="1"/>
        <pt x="226" y="568" on="1"/>
        <pt x="180" y="556" on="0"/>
        <pt x="135" y="553" on="1"/>
        <pt x="119" y="553" on="1"/>
        <pt x="104" y="558" on="1"/>
        <pt x="82" y="597" on="0"/>
        <pt x="82" y="656" on="1"/>
        <pt x="97" y="667" on="1"/>
        <pt x="147" y="680" on="0"/>
        <pt x="191" y="682" on="1"/>
        <pt x="213" y="682" on="1"/>
      </contour>
      <contour>
        <pt x="439" y="687" on="1"/>
        <pt x="446" y="679" on="0"/>
        <pt x="453" y="627" on="0"/>
        <pt x="453" y="599" on="0"/>
        <pt x="452" y="590" on="1"/>
        <pt x="440" y="579" on="1"/>
        <pt x="394" y="567" on="0"/>
        <pt x="349" y="564" on="1"/>
        <pt x="333" y="564" on="1"/>
        <pt x="318" y="569" on="1"/>
        <pt x="296" y="608" on="0"/>
        <pt x="296" y="667" on="1"/>
        <pt x="311" y="678" on="1"/>
        <pt x="361" y="691" on="0"/>
        <pt x="405" y="693" on="1"/>
        <pt x="427" y="693" on="1"/>
      </contour>
    </TTGlyph>
    <TTGlyph name="dieresis.cap" xMin="82" yMin="746" xMax="453" yMax="887">
      <contour>
        <pt x="227" y="871" on="1"/>
        <pt x="234" y="863" on="0"/>
        <pt x="241" y="810" on="0"/>
        <pt x="241" y="781" on="0"/>
        <pt x="240" y="772" on="1"/>
        <pt x="228" y="761" on="1"/>
        <pt x="183" y="749" on="0"/>
        <pt x="135" y="746" on="1"/>
        <pt x="119" y="746" on="1"/>
        <pt x="104" y="751" on="1"/>
        <pt x="82" y="790" on="0"/>
        <pt x="82" y="851" on="1"/>
        <pt x="97" y="862" on="1"/>
        <pt x="146" y="875" on="0"/>
        <pt x="193" y="877" on="1"/>
        <pt x="215" y="877" on="1"/>
      </contour>
      <contour>
        <pt x="439" y="881" on="1"/>
        <pt x="446" y="873" on="0"/>
        <pt x="453" y="820" on="0"/>
        <pt x="453" y="791" on="0"/>
        <pt x="452" y="782" on="1"/>
        <pt x="440" y="771" on="1"/>
        <pt x="395" y="759" on="0"/>
        <pt x="347" y="756" on="1"/>
        <pt x="331" y="756" on="1"/>
        <pt x="316" y="761" on="1"/>
        <pt x="294" y="800" on="0"/>
        <pt x="294" y="861" on="1"/>
        <pt x="309" y="872" on="1"/>
        <pt x="358" y="885" on="0"/>
        <pt x="405" y="887" on="1"/>
        <pt x="427" y="887" on="1"/>
      </contour>
    </TTGlyph>
    <TTGlyph name="divide" xMin="10" yMin="106" xMax="563" yMax="496">
      <contour>
        <pt x="215" y="413" on="0"/>
        <pt x="215" y="463" on="0"/>
        <pt x="253" y="496" on="0"/>
        <pt x="310" y="496" on="0"/>
        <pt x="348" y="463" on="0"/>
        <pt x="348" y="413" on="0"/>
        <pt x="310" y="381" on="0"/>
        <pt x="252" y="381" on="0"/>
      </contour>
      <contour>
        <pt x="253" y="106" on="0"/>
        <pt x="215" y="139" on="0"/>
        <pt x="215" y="188" on="0"/>
        <pt x="253" y="221" on="0"/>
        <pt x="310" y="221" on="0"/>
        <pt x="348" y="188" on="0"/>
        <pt x="348" y="139" on="0"/>
        <pt x="309" y="106" on="0"/>
      </contour>
      <contour>
        <pt x="563" y="344" on="1"/>
        <pt x="561" y="257" on="1"/>
        <pt x="10" y="257" on="1"/>
        <pt x="11" y="345" on="1"/>
      </contour>
    </TTGlyph>
    <TTGlyph name="dollar" xMin="54" yMin="-131" xMax="561" yMax="818">
      <contour>
        <pt x="561" y="197" on="1"/>
        <pt x="561" y="106" on="0"/>
        <pt x="445" y="2" on="0"/>
        <pt x="345" y="-9" on="1"/>
        <pt x="345" y="-71" on="0"/>
        <pt x="349" y="-115" on="1"/>
        <pt x="269" y="-131" on="1"/>
        <pt x="264" y="-117" on="1"/>
        <pt x="270" y="-75" on="0"/>
        <pt x="274" y="-12" on="1"/>
        <pt x="151" y="-7" on="0"/>
        <pt x="54" y="58" on="1"/>
        <pt x="57" y="129" on="0"/>
        <pt x="110" y="193" on="1"/>
        <pt x="186" y="111" on="0"/>
        <pt x="276" y="82" on="1"/>
        <pt x="276" y="310" on="1"/>
        <pt x="246" y="323" on="0"/>
        <pt x="220" y="334" on="0"/>
        <pt x="166" y="361" on="0"/>
        <pt x="140" y="381" on="0"/>
        <pt x="102" y="416" on="0"/>
        <pt x="93" y="433" on="1"/>
        <pt x="70" y="476" on="0"/>
        <pt x="70" y="526" on="1"/>
        <pt x="70" y="610" on="0"/>
        <pt x="185" y="701" on="0"/>
        <pt x="276" y="710" on="1"/>
        <pt x="274" y="764" on="0"/>
        <pt x="272" y="792" on="1"/>
        <pt x="348" y="818" on="1"/>
        <pt x="353" y="804" on="1"/>
        <pt x="346" y="744" on="0"/>
        <pt x="345" y="711" on="1"/>
        <pt x="444" y="704" on="0"/>
        <pt x="542" y="662" on="1"/>
        <pt x="531" y="588" on="0"/>
        <pt x="491" y="521" on="1"/>
        <pt x="419" y="586" on="0"/>
        <pt x="345" y="612" on="1"/>
        <pt x="345" y="420" on="1"/>
        <pt x="387" y="403" on="0"/>
        <pt x="428" y="385" on="0"/>
        <pt x="498" y="343" on="0"/>
        <pt x="533" y="302" on="0"/>
        <pt x="561" y="236" on="0"/>
      </contour>
      <contour>
        <pt x="429" y="165" on="1"/>
        <pt x="429" y="233" on="0"/>
        <pt x="345" y="278" on="1"/>
        <pt x="345" y="72" on="1"/>
        <pt x="382" y="72" on="0"/>
        <pt x="410" y="87" on="1"/>
        <pt x="429" y="112" on="0"/>
      </contour>
      <contour>
        <pt x="193" y="553" on="1"/>
        <pt x="193" y="492" on="0"/>
        <pt x="276" y="450" on="1"/>
        <pt x="276" y="625" on="1"/>
        <pt x="244" y="625" on="0"/>
        <pt x="211" y="611" on="1"/>
        <pt x="193" y="593" on="0"/>
      </contour>
    </TTGlyph>
    <TTGlyph name="dotaccentcmb" xMin="179" yMin="579" xMax="339" yMax="712">
      <contour>
        <pt x="320" y="705" on="1"/>
        <pt x="330" y="697" on="0"/>
        <pt x="338" y="646" on="0"/>
        <pt x="338" y="618" on="0"/>
        <pt x="336" y="608" on="1"/>
        <pt x="326" y="600" on="1"/>
        <pt x="286" y="587" on="0"/>
        <pt x="209" y="579" on="1"/>
        <pt x="199" y="585" on="1"/>
        <pt x="190" y="600" on="0"/>
        <pt x="180" y="657" on="0"/>
        <pt x="180" y="680" on="0"/>
        <pt x="180" y="683" on="1"/>
        <pt x="190" y="690" on="1"/>
        <pt x="245" y="711" on="0"/>
        <pt x="299" y="711" on="1"/>
        <pt x="303" y="711" on="0"/>
        <pt x="308" y="711" on="1"/>
      </contour>
    </TTGlyph>
    <TTGlyph name="dotaccentcmb.cap" xMin="183" yMin="786" xMax="343" yMax="919">
      <contour>
        <pt x="324" y="912" on="1"/>
        <pt x="334" y="904" on="0"/>
        <pt x="342" y="853" on="0"/>
        <pt x="342" y="825" on="0"/>
        <pt x="340" y="815" on="1"/>
        <pt x="330" y="807" on="1"/>
        <pt x="290" y="794" on="0"/>
        <pt x="213" y="786" on="1"/>
        <pt x="203" y="792" on="1"/>
        <pt x="194" y="807" on="0"/>
        <pt x="184" y="864" on="0"/>
        <pt x="184" y="887" on="0"/>
        <pt x="184" y="890" on="1"/>
        <pt x="194" y="897" on="1"/>
        <pt x="249" y="918" on="0"/>
        <pt x="303" y="918" on="1"/>
        <pt x="307" y="918" on="0"/>
        <pt x="312" y="918" on="1"/>
      </contour>
    </TTGlyph>
    <TTGlyph name="dotlessi" xMin="47" yMin="0" xMax="268" yMax="503">
      <contour>
        <pt x="239" y="393" on="1"/>
        <pt x="239" y="179" on="1"/>
        <pt x="239" y="84" on="0"/>
        <pt x="268" y="22" on="1"/>
        <pt x="268" y="0" on="1"/>
        <pt x="90" y="0" on="1"/>
        <pt x="90" y="22" on="1"/>
        <pt x="107" y="73" on="0"/>
        <pt x="107" y="157" on="1"/>
        <pt x="107" y="305" on="1"/>
        <pt x="107" y="360" on="0"/>
        <pt x="73" y="433" on="0"/>
        <pt x="47" y="447" on="1"/>
        <pt x="47" y="469" on="1"/>
        <pt x="233" y="503" on="1"/>
        <pt x="245" y="483" on="1"/>
        <pt x="239" y="460" on="0"/>
      </contour>
    </TTGlyph>
    <TTGlyph name="dotlessj" xMin="-21" yMin="-250" xMax="217" yMax="503">
      <contour>
        <pt x="211" y="384" on="1"/>
        <pt x="211" y="114" on="1"/>
        <pt x="211" y="-43" on="0"/>
        <pt x="154" y="-122" on="1"/>
        <pt x="132" y="-151" on="0"/>
        <pt x="119" y="-164" on="1"/>
        <pt x="105" y="-178" on="0"/>
        <pt x="27" y="-250" on="1"/>
        <pt x="-21" y="-203" on="1"/>
        <pt x="8" y="-179" on="0"/>
        <pt x="20" y="-164" on="1"/>
        <pt x="53" y="-127" on="0"/>
        <pt x="82" y="7" on="0"/>
        <pt x="82" y="152" on="1"/>
        <pt x="82" y="302" on="1"/>
        <pt x="82" y="357" on="0"/>
        <pt x="41" y="435" on="0"/>
        <pt x="15" y="447" on="1"/>
        <pt x="15" y="469" on="1"/>
        <pt x="205" y="503" on="1"/>
        <pt x="217" y="483" on="1"/>
        <pt x="211" y="456" on="0"/>
      </contour>
    </TTGlyph>
    <TTGlyph name="e" xMin="44" yMin="-19" xMax="500" yMax="499">
      <contour>
        <pt x="269" y="-19" on="1"/>
        <pt x="182" y="-19" on="0"/>
        <pt x="44" y="111" on="0"/>
        <pt x="44" y="332" on="0"/>
        <pt x="190" y="499" on="0"/>
        <pt x="306" y="499" on="1"/>
        <pt x="404" y="499" on="0"/>
        <pt x="500" y="373" on="0"/>
        <pt x="500" y="262" on="1"/>
        <pt x="462" y="223" on="1"/>
        <pt x="188" y="223" on="1"/>
        <pt x="189" y="151" on="0"/>
        <pt x="264" y="73" on="0"/>
        <pt x="369" y="73" on="0"/>
        <pt x="475" y="128" on="1"/>
        <pt x="500" y="90" on="1"/>
        <pt x="481" y="72" on="0"/>
        <pt x="433" y="34" on="0"/>
        <pt x="320" y="-19" on="0"/>
      </contour>
      <contour>
        <pt x="283" y="435" on="1"/>
        <pt x="246" y="435" on="0"/>
        <pt x="224" y="420" on="1"/>
        <pt x="208" y="395" on="0"/>
        <pt x="190" y="313" on="0"/>
        <pt x="189" y="281" on="1"/>
        <pt x="364" y="291" on="1"/>
        <pt x="364" y="435" on="0"/>
      </contour>
    </TTGlyph>
    <TTGlyph name="eacute" xMin="44" yMin="-19" xMax="500" yMax="732">
      <contour>
        <pt x="269" y="-19" on="1"/>
        <pt x="182" y="-19" on="0"/>
        <pt x="44" y="111" on="0"/>
        <pt x="44" y="332" on="0"/>
        <pt x="190" y="499" on="0"/>
        <pt x="306" y="499" on="1"/>
        <pt x="404" y="499" on="0"/>
        <pt x="500" y="373" on="0"/>
        <pt x="500" y="262" on="1"/>
        <pt x="462" y="223" on="1"/>
        <pt x="188" y="223" on="1"/>
        <pt x="189" y="151" on="0"/>
        <pt x="264" y="73" on="0"/>
        <pt x="369" y="73" on="0"/>
        <pt x="475" y="128" on="1"/>
        <pt x="500" y="90" on="1"/>
        <pt x="481" y="72" on="0"/>
        <pt x="433" y="34" on="0"/>
        <pt x="320" y="-19" on="0"/>
      </contour>
      <contour>
        <pt x="283" y="435" on="1"/>
        <pt x="246" y="435" on="0"/>
        <pt x="224" y="420" on="1"/>
        <pt x="208" y="395" on="0"/>
        <pt x="190" y="313" on="0"/>
        <pt x="189" y="281" on="1"/>
        <pt x="364" y="291" on="1"/>
        <pt x="364" y="435" on="0"/>
      </contour>
      <contour>
        <pt x="444" y="658" on="1"/>
        <pt x="335" y="562" on="0"/>
        <pt x="222" y="506" on="1"/>
        <pt x="185" y="545" on="1"/>
        <pt x="285" y="630" on="0"/>
        <pt x="345" y="732" on="1"/>
        <pt x="408" y="710" on="0"/>
      </contour>
    </TTGlyph>
    <TTGlyph name="ecircumflex" xMin="44" yMin="-19" xMax="500" yMax="703">
      <contour>
        <pt x="269" y="-19" on="1"/>
        <pt x="182" y="-19" on="0"/>
        <pt x="44" y="111" on="0"/>
        <pt x="44" y="332" on="0"/>
        <pt x="190" y="499" on="0"/>
        <pt x="306" y="499" on="1"/>
        <pt x="404" y="499" on="0"/>
        <pt x="500" y="373" on="0"/>
        <pt x="500" y="262" on="1"/>
        <pt x="462" y="223" on="1"/>
        <pt x="188" y="223" on="1"/>
        <pt x="189" y="151" on="0"/>
        <pt x="264" y="73" on="0"/>
        <pt x="369" y="73" on="0"/>
        <pt x="475" y="128" on="1"/>
        <pt x="500" y="90" on="1"/>
        <pt x="481" y="72" on="0"/>
        <pt x="433" y="34" on="0"/>
        <pt x="320" y="-19" on="0"/>
      </contour>
      <contour>
        <pt x="283" y="435" on="1"/>
        <pt x="246" y="435" on="0"/>
        <pt x="224" y="420" on="1"/>
        <pt x="208" y="395" on="0"/>
        <pt x="190" y="313" on="0"/>
        <pt x="189" y="281" on="1"/>
        <pt x="364" y="291" on="1"/>
        <pt x="364" y="435" on="0"/>
      </contour>
      <contour>
        <pt x="230" y="703" on="1"/>
        <pt x="310" y="703" on="1"/>
        <pt x="336" y="650" on="0"/>
        <pt x="384" y="605" on="1"/>
        <pt x="402" y="589" on="0"/>
        <pt x="435" y="561" on="1"/>
        <pt x="393" y="516" on="1"/>
        <pt x="320" y="560" on="0"/>
        <pt x="267" y="619" on="1"/>
        <pt x="221" y="572" on="0"/>
        <pt x="153" y="521" on="1"/>
        <pt x="110" y="565" on="1"/>
        <pt x="197" y="641" on="0"/>
      </contour>
    </TTGlyph>
    <TTGlyph name="edieresis" xMin="44" yMin="-19" xMax="500" yMax="693">
      <contour>
        <pt x="269" y="-19" on="1"/>
        <pt x="182" y="-19" on="0"/>
        <pt x="44" y="111" on="0"/>
        <pt x="44" y="332" on="0"/>
        <pt x="190" y="499" on="0"/>
        <pt x="306" y="499" on="1"/>
        <pt x="404" y="499" on="0"/>
        <pt x="500" y="373" on="0"/>
        <pt x="500" y="262" on="1"/>
        <pt x="462" y="223" on="1"/>
        <pt x="188" y="223" on="1"/>
        <pt x="189" y="151" on="0"/>
        <pt x="264" y="73" on="0"/>
        <pt x="369" y="73" on="0"/>
        <pt x="475" y="128" on="1"/>
        <pt x="500" y="90" on="1"/>
        <pt x="481" y="72" on="0"/>
        <pt x="433" y="34" on="0"/>
        <pt x="320" y="-19" on="0"/>
      </contour>
      <contour>
        <pt x="283" y="435" on="1"/>
        <pt x="246" y="435" on="0"/>
        <pt x="224" y="420" on="1"/>
        <pt x="208" y="395" on="0"/>
        <pt x="190" y="313" on="0"/>
        <pt x="189" y="281" on="1"/>
        <pt x="364" y="291" on="1"/>
        <pt x="364" y="435" on="0"/>
      </contour>
      <contour>
        <pt x="233" y="676" on="1"/>
        <pt x="240" y="668" on="0"/>
        <pt x="247" y="616" on="0"/>
        <pt x="247" y="588" on="0"/>
        <pt x="246" y="579" on="1"/>
        <pt x="234" y="568" on="1"/>
        <pt x="188" y="556" on="0"/>
        <pt x="143" y="553" on="1"/>
        <pt x="127" y="553" on="1"/>
        <pt x="112" y="558" on="1"/>
        <pt x="90" y="597" on="0"/>
        <pt x="90" y="656" on="1"/>
        <pt x="105" y="667" on="1"/>
        <pt x="155" y="680" on="0"/>
        <pt x="199" y="682" on="1"/>
        <pt x="221" y="682" on="1"/>
      </contour>
      <contour>
        <pt x="447" y="687" on="1"/>
        <pt x="454" y="679" on="0"/>
        <pt x="461" y="627" on="0"/>
        <pt x="461" y="599" on="0"/>
        <pt x="460" y="590" on="1"/>
        <pt x="448" y="579" on="1"/>
        <pt x="402" y="567" on="0"/>
        <pt x="357" y="564" on="1"/>
        <pt x="341" y="564" on="1"/>
        <pt x="326" y="569" on="1"/>
        <pt x="304" y="608" on="0"/>
        <pt x="304" y="667" on="1"/>
        <pt x="319" y="678" on="1"/>
        <pt x="369" y="691" on="0"/>
        <pt x="413" y="693" on="1"/>
        <pt x="435" y="693" on="1"/>
      </contour>
    </TTGlyph>
    <TTGlyph name="egrave" xMin="44" yMin="-19" xMax="500" yMax="732">
      <contour>
        <pt x="269" y="-19" on="1"/>
        <pt x="182" y="-19" on="0"/>
        <pt x="44" y="111" on="0"/>
        <pt x="44" y="332" on="0"/>
        <pt x="190" y="499" on="0"/>
        <pt x="306" y="499" on="1"/>
        <pt x="404" y="499" on="0"/>
        <pt x="500" y="373" on="0"/>
        <pt x="500" y="262" on="1"/>
        <pt x="462" y="223" on="1"/>
        <pt x="188" y="223" on="1"/>
        <pt x="189" y="151" on="0"/>
        <pt x="264" y="73" on="0"/>
        <pt x="369" y="73" on="0"/>
        <pt x="475" y="128" on="1"/>
        <pt x="500" y="90" on="1"/>
        <pt x="481" y="72" on="0"/>
        <pt x="433" y="34" on="0"/>
        <pt x="320" y="-19" on="0"/>
      </contour>
      <contour>
        <pt x="283" y="435" on="1"/>
        <pt x="246" y="435" on="0"/>
        <pt x="224" y="420" on="1"/>
        <pt x="208" y="395" on="0"/>
        <pt x="190" y="313" on="0"/>
        <pt x="189" y="281" on="1"/>
        <pt x="364" y="291" on="1"/>
        <pt x="364" y="435" on="0"/>
      </contour>
      <contour>
        <pt x="358" y="544" on="1"/>
        <pt x="321" y="505" on="1"/>
        <pt x="208" y="561" on="0"/>
        <pt x="99" y="657" on="1"/>
        <pt x="136" y="710" on="0"/>
        <pt x="199" y="732" on="1"/>
        <pt x="259" y="629" on="0"/>
      </contour>
    </TTGlyph>
    <TTGlyph name="eight" xMin="52" yMin="-11" xMax="584" yMax="712">
      <contour>
        <pt x="551" y="544" on="1"/>
        <pt x="551" y="439" on="0"/>
        <pt x="433" y="367" on="1"/>
        <pt x="515" y="320" on="0"/>
        <pt x="584" y="245" on="0"/>
        <pt x="584" y="185" on="1"/>
        <pt x="584" y="92" on="0"/>
        <pt x="434" y="-11" on="0"/>
        <pt x="204" y="-11" on="0"/>
        <pt x="52" y="90" on="0"/>
        <pt x="52" y="183" on="1"/>
        <pt x="52" y="310" on="0"/>
        <pt x="202" y="365" on="1"/>
        <pt x="146" y="400" on="0"/>
        <pt x="94" y="476" on="0"/>
        <pt x="94" y="530" on="1"/>
        <pt x="94" y="618" on="0"/>
        <pt x="219" y="712" on="0"/>
        <pt x="424" y="712" on="0"/>
        <pt x="551" y="631" on="0"/>
      </contour>
      <contour>
        <pt x="440" y="167" on="1"/>
        <pt x="440" y="210" on="0"/>
        <pt x="372" y="274" on="0"/>
        <pt x="278" y="322" on="1"/>
        <pt x="196" y="285" on="0"/>
        <pt x="196" y="195" on="1"/>
        <pt x="196" y="70" on="0"/>
        <pt x="325" y="70" on="1"/>
        <pt x="376" y="70" on="0"/>
        <pt x="405" y="82" on="1"/>
        <pt x="440" y="106" on="0"/>
      </contour>
      <contour>
        <pt x="225" y="547" on="1"/>
        <pt x="225" y="508" on="0"/>
        <pt x="280" y="449" on="0"/>
        <pt x="360" y="409" on="1"/>
        <pt x="420" y="453" on="0"/>
        <pt x="420" y="538" on="1"/>
        <pt x="420" y="647" on="0"/>
        <pt x="318" y="647" on="1"/>
        <pt x="281" y="647" on="0"/>
        <pt x="255" y="635" on="1"/>
        <pt x="225" y="609" on="0"/>
      </contour>
    </TTGlyph>
    <TTGlyph name="emdash" xMin="1" yMin="227" xMax="947" yMax="328">
      <contour>
        <pt x="51" y="328" on="1"/>
        <pt x="129" y="319" on="0"/>
        <pt x="628" y="319" on="0"/>
        <pt x="830" y="320" on="0"/>
        <pt x="923" y="324" on="0"/>
        <pt x="947" y="324" on="1"/>
        <pt x="911" y="227" on="1"/>
        <pt x="897" y="227" on="1"/>
        <pt x="823" y="236" on="0"/>
        <pt x="245" y="236" on="1"/>
        <pt x="1" y="230" on="1"/>
        <pt x="37" y="328" on="1"/>
      </contour>
    </TTGlyph>
    <TTGlyph name="endash" xMin="0" yMin="227" xMax="572" yMax="328">
      <contour>
        <pt x="49" y="328" on="1"/>
        <pt x="126" y="318" on="0"/>
        <pt x="239" y="318" on="1"/>
        <pt x="433" y="320" on="1"/>
        <pt x="455" y="320" on="0"/>
        <pt x="548" y="324" on="0"/>
        <pt x="572" y="324" on="1"/>
        <pt x="537" y="227" on="1"/>
        <pt x="523" y="227" on="1"/>
        <pt x="449" y="236" on="0"/>
        <pt x="244" y="236" on="1"/>
        <pt x="0" y="230" on="1"/>
        <pt x="35" y="328" on="1"/>
      </contour>
    </TTGlyph>
    <TTGlyph name="equal" xMin="10" yMin="175" xMax="525" yMax="415">
      <contour>
        <pt x="525" y="414" on="1"/>
        <pt x="524" y="327" on="1"/>
        <pt x="10" y="327" on="1"/>
        <pt x="11" y="415" on="1"/>
      </contour>
      <contour>
        <pt x="525" y="262" on="1"/>
        <pt x="524" y="175" on="1"/>
        <pt x="10" y="175" on="1"/>
        <pt x="11" y="263" on="1"/>
      </contour>
    </TTGlyph>
    <TTGlyph name="eth" xMin="44" yMin="-19" xMax="571" yMax="741">
      <contour>
        <pt x="571" y="141" on="0"/>
        <pt x="417" y="-19" on="0"/>
        <pt x="184" y="-19" on="0"/>
        <pt x="51" y="117" on="0"/>
        <pt x="51" y="230" on="1"/>
        <pt x="51" y="375" on="0"/>
        <pt x="166" y="450" on="1"/>
        <pt x="228" y="492" on="0"/>
        <pt x="295" y="492" on="1"/>
        <pt x="264" y="525" on="0"/>
        <pt x="244" y="544" on="1"/>
        <pt x="130" y="502" on="0"/>
        <pt x="85" y="483" on="1"/>
        <pt x="92" y="569" on="1"/>
        <pt x="112" y="575" on="0"/>
        <pt x="181" y="597" on="1"/>
        <pt x="121" y="645" on="0"/>
        <pt x="47" y="681" on="1"/>
        <pt x="44" y="703" on="1"/>
        <pt x="222" y="741" on="1"/>
        <pt x="255" y="689" on="0"/>
        <pt x="300" y="639" on="1"/>
        <pt x="452" y="695" on="1"/>
        <pt x="447" y="613" on="1"/>
        <pt x="414" y="603" on="0"/>
        <pt x="351" y="582" on="1"/>
        <pt x="396" y="537" on="0"/>
        <pt x="462" y="476" on="0"/>
        <pt x="496" y="442" on="1"/>
        <pt x="571" y="367" on="0"/>
      </contour>
      <contour>
        <pt x="427" y="228" on="1"/>
        <pt x="427" y="325" on="0"/>
        <pt x="371" y="434" on="0"/>
        <pt x="301" y="434" on="1"/>
        <pt x="256" y="434" on="0"/>
        <pt x="231" y="412" on="1"/>
        <pt x="215" y="389" on="0"/>
        <pt x="195" y="297" on="0"/>
        <pt x="195" y="254" on="1"/>
        <pt x="195" y="45" on="0"/>
        <pt x="328" y="45" on="1"/>
        <pt x="368" y="45" on="0"/>
        <pt x="393" y="66" on="1"/>
        <pt x="410" y="89" on="0"/>
        <pt x="427" y="184" on="0"/>
      </contour>
    </TTGlyph>
    <TTGlyph name="exclam" xMin="50" yMin="-11" xMax="243" yMax="716">
      <contour>
        <pt x="210" y="197" on="1"/>
        <pt x="101" y="181" on="1"/>
        <pt x="101" y="406" on="0"/>
        <pt x="92" y="583" on="1"/>
        <pt x="86" y="649" on="0"/>
        <pt x="50" y="672" on="1"/>
        <pt x="50" y="689" on="1"/>
        <pt x="222" y="716" on="1"/>
        <pt x="235" y="697" on="1"/>
        <pt x="228" y="657" on="0"/>
        <pt x="210" y="213" on="0"/>
      </contour>
      <contour>
        <pt x="97" y="94" on="1"/>
        <pt x="106" y="102" on="1"/>
        <pt x="162" y="120" on="0"/>
        <pt x="216" y="120" on="1"/>
        <pt x="227" y="114" on="1"/>
        <pt x="236" y="106" on="0"/>
        <pt x="243" y="54" on="0"/>
        <pt x="243" y="26" on="0"/>
        <pt x="241" y="15" on="1"/>
        <pt x="232" y="7" on="1"/>
        <pt x="183" y="-7" on="0"/>
        <pt x="125" y="-11" on="1"/>
        <pt x="125" y="-11" on="0"/>
        <pt x="114" y="-6" on="1"/>
        <pt x="106" y="8" on="0"/>
        <pt x="96" y="63" on="0"/>
        <pt x="96" y="88" on="0"/>
      </contour>
    </TTGlyph>
    <TTGlyph name="exclamdown" xMin="63" yMin="-235" xMax="256" yMax="492">
      <contour>
        <pt x="114" y="302" on="1"/>
        <pt x="223" y="282" on="1"/>
        <pt x="223" y="273" on="0"/>
        <pt x="241" y="-176" on="0"/>
        <pt x="248" y="-216" on="1"/>
        <pt x="235" y="-235" on="1"/>
        <pt x="63" y="-208" on="1"/>
        <pt x="63" y="-191" on="1"/>
        <pt x="99" y="-168" on="0"/>
        <pt x="105" y="-102" on="1"/>
        <pt x="114" y="75" on="0"/>
      </contour>
      <contour>
        <pt x="110" y="387" on="1"/>
        <pt x="109" y="393" on="0"/>
        <pt x="109" y="418" on="0"/>
        <pt x="119" y="473" on="0"/>
        <pt x="127" y="487" on="1"/>
        <pt x="138" y="492" on="1"/>
        <pt x="196" y="488" on="0"/>
        <pt x="245" y="474" on="1"/>
        <pt x="254" y="466" on="1"/>
        <pt x="256" y="455" on="0"/>
        <pt x="256" y="427" on="0"/>
        <pt x="249" y="375" on="0"/>
        <pt x="240" y="367" on="1"/>
        <pt x="229" y="361" on="1"/>
        <pt x="174" y="361" on="0"/>
        <pt x="119" y="379" on="1"/>
      </contour>
    </TTGlyph>
    <TTGlyph name="f" xMin="40" yMin="0" xMax="505" yMax="740">
      <contour>
        <pt x="257" y="208" on="1"/>
        <pt x="257" y="161" on="0"/>
        <pt x="275" y="47" on="0"/>
        <pt x="286" y="22" on="1"/>
        <pt x="286" y="0" on="1"/>
        <pt x="111" y="0" on="1"/>
        <pt x="111" y="22" on="1"/>
        <pt x="128" y="72" on="0"/>
        <pt x="128" y="185" on="1"/>
        <pt x="128" y="411" on="1"/>
        <pt x="69" y="409" on="0"/>
        <pt x="40" y="406" on="1"/>
        <pt x="70" y="490" on="1"/>
        <pt x="128" y="487" on="1"/>
        <pt x="128" y="541" on="1"/>
        <pt x="128" y="628" on="0"/>
        <pt x="216" y="740" on="0"/>
        <pt x="402" y="740" on="0"/>
        <pt x="505" y="697" on="1"/>
        <pt x="471" y="620" on="0"/>
        <pt x="445" y="587" on="1"/>
        <pt x="363" y="657" on="0"/>
        <pt x="307" y="657" on="1"/>
        <pt x="285" y="657" on="0"/>
        <pt x="272" y="649" on="1"/>
        <pt x="257" y="626" on="0"/>
        <pt x="257" y="527" on="1"/>
        <pt x="257" y="486" on="1"/>
        <pt x="301" y="488" on="0"/>
        <pt x="413" y="495" on="1"/>
        <pt x="377" y="397" on="1"/>
        <pt x="312" y="406" on="0"/>
        <pt x="257" y="409" on="1"/>
      </contour>
    </TTGlyph>
    <TTGlyph name="five" xMin="14" yMin="-11" xMax="553" yMax="703">
      <contour>
        <pt x="414" y="213" on="1"/>
        <pt x="414" y="332" on="0"/>
        <pt x="244" y="343" on="1"/>
        <pt x="111" y="352" on="1"/>
        <pt x="86" y="379" on="1"/>
        <pt x="103" y="506" on="0"/>
        <pt x="141" y="698" on="1"/>
        <pt x="495" y="703" on="1"/>
        <pt x="520" y="557" on="1"/>
        <pt x="501" y="557" on="1"/>
        <pt x="469" y="585" on="0"/>
        <pt x="350" y="618" on="0"/>
        <pt x="282" y="618" on="1"/>
        <pt x="230" y="618" on="1"/>
        <pt x="209" y="554" on="0"/>
        <pt x="190" y="430" on="1"/>
        <pt x="302" y="425" on="0"/>
        <pt x="387" y="414" on="0"/>
        <pt x="469" y="387" on="0"/>
        <pt x="494" y="366" on="1"/>
        <pt x="553" y="318" on="0"/>
        <pt x="553" y="125" on="0"/>
        <pt x="400" y="-11" on="0"/>
        <pt x="150" y="-11" on="0"/>
        <pt x="14" y="56" on="1"/>
        <pt x="18" y="77" on="0"/>
        <pt x="56" y="144" on="0"/>
        <pt x="74" y="160" on="1"/>
        <pt x="202" y="68" on="0"/>
        <pt x="300" y="68" on="1"/>
        <pt x="346" y="68" on="0"/>
        <pt x="376" y="81" on="1"/>
        <pt x="394" y="102" on="0"/>
        <pt x="414" y="179" on="0"/>
      </contour>
    </TTGlyph>
    <TTGlyph name="four" xMin="16" yMin="0" xMax="579" yMax="714">
      <contour>
        <pt x="467" y="187" on="1"/>
        <pt x="467" y="97" on="0"/>
        <pt x="479" y="22" on="1"/>
        <pt x="479" y="0" on="1"/>
        <pt x="326" y="0" on="1"/>
        <pt x="326" y="22" on="1"/>
        <pt x="338" y="96" on="0"/>
        <pt x="338" y="177" on="1"/>
        <pt x="338" y="187" on="1"/>
        <pt x="119" y="187" on="0"/>
        <pt x="44" y="186" on="1"/>
        <pt x="16" y="241" on="1"/>
        <pt x="131" y="435" on="0"/>
        <pt x="315" y="699" on="1"/>
        <pt x="470" y="714" on="1"/>
        <pt x="465" y="607" on="0"/>
        <pt x="465" y="274" on="1"/>
        <pt x="579" y="280" on="1"/>
        <pt x="558" y="187" on="1"/>
      </contour>
      <contour>
        <pt x="340" y="272" on="1"/>
        <pt x="341" y="389" on="0"/>
        <pt x="341" y="540" on="0"/>
        <pt x="341" y="586" on="1"/>
        <pt x="199" y="382" on="0"/>
        <pt x="133" y="269" on="1"/>
        <pt x="242" y="269" on="0"/>
      </contour>
    </TTGlyph>
    <TTGlyph name="g" xMin="29" yMin="-235" xMax="595" yMax="499">
      <contour>
        <pt x="66" y="321" on="1"/>
        <pt x="66" y="405" on="0"/>
        <pt x="197" y="499" on="0"/>
        <pt x="299" y="499" on="1"/>
        <pt x="371" y="499" on="0"/>
        <pt x="425" y="472" on="1"/>
        <pt x="491" y="472" on="0"/>
        <pt x="562" y="482" on="1"/>
        <pt x="595" y="412" on="1"/>
        <pt x="494" y="412" on="1"/>
        <pt x="520" y="368" on="0"/>
        <pt x="520" y="321" on="1"/>
        <pt x="520" y="239" on="0"/>
        <pt x="397" y="140" on="0"/>
        <pt x="300" y="140" on="1"/>
        <pt x="263" y="140" on="0"/>
        <pt x="239" y="146" on="1"/>
        <pt x="214" y="125" on="0"/>
        <pt x="214" y="104" on="0"/>
        <pt x="233" y="92" on="0"/>
        <pt x="258" y="86" on="1"/>
        <pt x="284" y="80" on="0"/>
        <pt x="320" y="73" on="1"/>
        <pt x="478" y="44" on="0"/>
        <pt x="567" y="-3" on="0"/>
        <pt x="567" y="-116" on="0"/>
        <pt x="524" y="-157" on="1"/>
        <pt x="444" y="-235" on="0"/>
        <pt x="278" y="-235" on="1"/>
        <pt x="194" y="-235" on="0"/>
        <pt x="118" y="-210" on="1"/>
        <pt x="78" y="-196" on="0"/>
        <pt x="29" y="-140" on="0"/>
        <pt x="29" y="-102" on="1"/>
        <pt x="29" y="-21" on="0"/>
        <pt x="130" y="19" on="1"/>
        <pt x="72" y="45" on="0"/>
        <pt x="72" y="80" on="1"/>
        <pt x="72" y="100" on="0"/>
        <pt x="82" y="110" on="1"/>
        <pt x="113" y="141" on="0"/>
        <pt x="144" y="152" on="1"/>
        <pt x="148" y="154" on="0"/>
        <pt x="168" y="164" on="0"/>
        <pt x="171" y="165" on="1"/>
        <pt x="66" y="215" on="0"/>
      </contour>
      <contour>
        <pt x="214" y="252" on="1"/>
        <pt x="240" y="197" on="0"/>
        <pt x="301" y="197" on="1"/>
        <pt x="344" y="197" on="0"/>
        <pt x="360" y="211" on="1"/>
        <pt x="387" y="244" on="0"/>
        <pt x="387" y="326" on="1"/>
        <pt x="387" y="441" on="0"/>
        <pt x="288" y="441" on="1"/>
        <pt x="251" y="441" on="0"/>
        <pt x="226" y="427" on="1"/>
        <pt x="199" y="388" on="0"/>
        <pt x="199" y="281" on="0"/>
      </contour>
      <contour>
        <pt x="156" y="-27" on="0"/>
        <pt x="156" y="-129" on="0"/>
        <pt x="245" y="-178" on="0"/>
        <pt x="343" y="-178" on="0"/>
        <pt x="412" y="-141" on="0"/>
        <pt x="412" y="-100" on="1"/>
        <pt x="412" y="-77" on="0"/>
        <pt x="395" y="-62" on="0"/>
        <pt x="389" y="-56" on="0"/>
        <pt x="373" y="-49" on="0"/>
        <pt x="364" y="-46" on="0"/>
        <pt x="343" y="-40" on="0"/>
        <pt x="332" y="-37" on="0"/>
        <pt x="306" y="-31" on="0"/>
        <pt x="279" y="-24" on="1"/>
        <pt x="266" y="-20" on="0"/>
        <pt x="193" y="-6" on="1"/>
      </contour>
    </TTGlyph>
    <TTGlyph name="germandbls" xMin="35" yMin="-22" xMax="638" yMax="735">
      <contour>
        <pt x="321" y="303" on="0"/>
        <pt x="300" y="353" on="0"/>
        <pt x="300" y="416" on="0"/>
        <pt x="327" y="471" on="0"/>
        <pt x="353" y="498" on="0"/>
        <pt x="394" y="531" on="0"/>
        <pt x="402" y="538" on="1"/>
        <pt x="425" y="560" on="0"/>
        <pt x="425" y="589" on="1"/>
        <pt x="425" y="651" on="0"/>
        <pt x="329" y="651" on="1"/>
        <pt x="294" y="651" on="0"/>
        <pt x="275" y="639" on="1"/>
        <pt x="256" y="615" on="0"/>
        <pt x="256" y="526" on="1"/>
        <pt x="256" y="-12" on="1"/>
        <pt x="106" y="-12" on="1"/>
        <pt x="106" y="10" on="1"/>
        <pt x="124" y="57" on="0"/>
        <pt x="124" y="168" on="1"/>
        <pt x="124" y="383" on="1"/>
        <pt x="88" y="383" on="0"/>
        <pt x="35" y="380" on="1"/>
        <pt x="69" y="460" on="1"/>
        <pt x="124" y="457" on="1"/>
        <pt x="124" y="491" on="1"/>
        <pt x="124" y="596" on="0"/>
        <pt x="265" y="735" on="0"/>
        <pt x="371" y="735" on="1"/>
        <pt x="375" y="735" on="1"/>
        <pt x="450" y="734" on="0"/>
        <pt x="545" y="667" on="0"/>
        <pt x="545" y="597" on="1"/>
        <pt x="545" y="570" on="0"/>
        <pt x="520" y="525" on="0"/>
        <pt x="497" y="503" on="0"/>
        <pt x="453" y="471" on="0"/>
        <pt x="444" y="462" on="1"/>
        <pt x="416" y="436" on="0"/>
        <pt x="416" y="399" on="1"/>
        <pt x="416" y="367" on="0"/>
        <pt x="442" y="347" on="1"/>
        <pt x="463" y="331" on="0"/>
        <pt x="531" y="297" on="0"/>
        <pt x="568" y="274" on="0"/>
        <pt x="592" y="254" on="1"/>
        <pt x="638" y="213" on="0"/>
        <pt x="638" y="67" on="0"/>
        <pt x="537" y="-20" on="0"/>
        <pt x="452" y="-22" on="1"/>
        <pt x="446" y="-22" on="1"/>
        <pt x="359" y="-22" on="0"/>
        <pt x="295" y="25" on="1"/>
        <pt x="296" y="81" on="0"/>
        <pt x="329" y="139" on="1"/>
        <pt x="352" y="111" on="0"/>
        <pt x="433" y="60" on="0"/>
        <pt x="486" y="60" on="0"/>
        <pt x="498" y="66" on="1"/>
        <pt x="510" y="78" on="0"/>
        <pt x="510" y="135" on="1"/>
        <pt x="510" y="168" on="0"/>
        <pt x="484" y="190" on="1"/>
        <pt x="463" y="206" on="0"/>
        <pt x="398" y="242" on="0"/>
        <pt x="363" y="265" on="0"/>
      </contour>
    </TTGlyph>
    <TTGlyph name="grave" xMin="132" yMin="505" xMax="391" yMax="732">
      <contour>
        <pt x="391" y="544" on="1"/>
        <pt x="354" y="505" on="1"/>
        <pt x="241" y="561" on="0"/>
        <pt x="132" y="657" on="1"/>
        <pt x="169" y="710" on="0"/>
        <pt x="232" y="732" on="1"/>
        <pt x="292" y="629" on="0"/>
      </contour>
    </TTGlyph>
    <TTGlyph name="grave.cap" xMin="116" yMin="751" xMax="399" yMax="918">
      <contour>
        <pt x="399" y="798" on="1"/>
        <pt x="382" y="751" on="1"/>
        <pt x="249" y="762" on="0"/>
        <pt x="116" y="811" on="1"/>
        <pt x="130" y="884" on="0"/>
        <pt x="174" y="918" on="1"/>
        <pt x="220" y="883" on="0"/>
        <pt x="348" y="814" on="0"/>
      </contour>
    </TTGlyph>
    <TTGlyph name="greater" xMin="9" yMin="45" xMax="525" yMax="600">
      <contour>
        <pt x="9" y="45" on="1"/>
        <pt x="9" y="136" on="1"/>
        <pt x="407" y="322" on="1"/>
        <pt x="9" y="508" on="1"/>
        <pt x="9" y="600" on="1"/>
        <pt x="525" y="357" on="1"/>
        <pt x="525" y="287" on="1"/>
      </contour>
    </TTGlyph>
    <TTGlyph name="guillemotleft" xMin="63" yMin="64" xMax="570" yMax="457">
      <contour>
        <pt x="297" y="253" on="1"/>
        <pt x="290" y="276" on="1"/>
        <pt x="338" y="303" on="0"/>
        <pt x="354" y="317" on="1"/>
        <pt x="516" y="457" on="1"/>
        <pt x="563" y="410" on="1"/>
        <pt x="430" y="267" on="1"/>
        <pt x="570" y="118" on="1"/>
        <pt x="517" y="64" on="1"/>
        <pt x="476" y="107" on="0"/>
        <pt x="463" y="117" on="1"/>
        <pt x="335" y="224" on="1"/>
      </contour>
      <contour>
        <pt x="70" y="253" on="1"/>
        <pt x="63" y="276" on="1"/>
        <pt x="111" y="303" on="0"/>
        <pt x="127" y="317" on="1"/>
        <pt x="289" y="457" on="1"/>
        <pt x="336" y="410" on="1"/>
        <pt x="203" y="267" on="1"/>
        <pt x="343" y="118" on="1"/>
        <pt x="290" y="64" on="1"/>
        <pt x="249" y="107" on="0"/>
        <pt x="236" y="117" on="1"/>
        <pt x="108" y="224" on="1"/>
      </contour>
    </TTGlyph>
    <TTGlyph name="guillemotright" xMin="62" yMin="64" xMax="569" yMax="457">
      <contour>
        <pt x="342" y="276" on="1"/>
        <pt x="335" y="253" on="1"/>
        <pt x="297" y="224" on="1"/>
        <pt x="169" y="117" on="1"/>
        <pt x="156" y="107" on="0"/>
        <pt x="115" y="64" on="1"/>
        <pt x="62" y="118" on="1"/>
        <pt x="202" y="267" on="1"/>
        <pt x="69" y="410" on="1"/>
        <pt x="116" y="457" on="1"/>
        <pt x="278" y="317" on="1"/>
        <pt x="294" y="303" on="0"/>
      </contour>
      <contour>
        <pt x="569" y="276" on="1"/>
        <pt x="562" y="253" on="1"/>
        <pt x="524" y="224" on="1"/>
        <pt x="396" y="117" on="1"/>
        <pt x="383" y="107" on="0"/>
        <pt x="342" y="64" on="1"/>
        <pt x="289" y="118" on="1"/>
        <pt x="429" y="267" on="1"/>
        <pt x="296" y="410" on="1"/>
        <pt x="343" y="457" on="1"/>
        <pt x="505" y="317" on="1"/>
        <pt x="521" y="303" on="0"/>
      </contour>
    </TTGlyph>
    <TTGlyph name="guilsinglleft" xMin="57" yMin="56" xMax="342" yMax="452">
      <contour>
        <pt x="64" y="248" on="1"/>
        <pt x="57" y="271" on="1"/>
        <pt x="105" y="298" on="0"/>
        <pt x="121" y="312" on="1"/>
        <pt x="283" y="452" on="1"/>
        <pt x="341" y="399" on="1"/>
        <pt x="313" y="368" on="1"/>
        <pt x="205" y="256" on="1"/>
        <pt x="342" y="114" on="1"/>
        <pt x="281" y="56" on="1"/>
        <pt x="240" y="99" on="0"/>
        <pt x="227" y="109" on="1"/>
      </contour>
    </TTGlyph>
    <TTGlyph name="guilsinglright" xMin="56" yMin="53" xMax="341" yMax="449">
      <contour>
        <pt x="341" y="268" on="1"/>
        <pt x="334" y="245" on="1"/>
        <pt x="171" y="106" on="1"/>
        <pt x="158" y="96" on="0"/>
        <pt x="117" y="53" on="1"/>
        <pt x="56" y="111" on="1"/>
        <pt x="193" y="253" on="1"/>
        <pt x="85" y="365" on="1"/>
        <pt x="57" y="396" on="1"/>
        <pt x="115" y="449" on="1"/>
        <pt x="277" y="309" on="1"/>
        <pt x="293" y="295" on="0"/>
      </contour>
    </TTGlyph>
    <TTGlyph name="h" xMin="50" yMin="0" xMax="592" yMax="746">
      <contour>
        <pt x="224" y="188" on="1"/>
        <pt x="224" y="75" on="0"/>
        <pt x="249" y="22" on="1"/>
        <pt x="249" y="0" on="1"/>
        <pt x="78" y="0" on="1"/>
        <pt x="78" y="22" on="1"/>
        <pt x="95" y="77" on="0"/>
        <pt x="95" y="167" on="1"/>
        <pt x="95" y="560" on="1"/>
        <pt x="95" y="646" on="0"/>
        <pt x="50" y="689" on="1"/>
        <pt x="50" y="711" on="1"/>
        <pt x="215" y="746" on="1"/>
        <pt x="227" y="724" on="1"/>
        <pt x="224" y="696" on="0"/>
        <pt x="224" y="528" on="1"/>
        <pt x="224" y="418" on="1"/>
        <pt x="276" y="459" on="0"/>
        <pt x="352" y="499" on="0"/>
        <pt x="396" y="499" on="1"/>
        <pt x="476" y="499" on="0"/>
        <pt x="562" y="406" on="0"/>
        <pt x="562" y="318" on="1"/>
        <pt x="562" y="191" on="1"/>
        <pt x="562" y="92" on="0"/>
        <pt x="592" y="22" on="1"/>
        <pt x="592" y="0" on="1"/>
        <pt x="416" y="0" on="1"/>
        <pt x="416" y="22" on="1"/>
        <pt x="433" y="69" on="0"/>
        <pt x="433" y="157" on="1"/>
        <pt x="433" y="282" on="1"/>
        <pt x="433" y="341" on="0"/>
        <pt x="402" y="395" on="0"/>
        <pt x="301" y="395" on="0"/>
        <pt x="224" y="353" on="1"/>
      </contour>
    </TTGlyph>
    <TTGlyph name="hbar" xMin="-37" yMin="0" xMax="592" yMax="746">
      <contour>
        <pt x="14" y="618" on="1"/>
        <pt x="203" y="616" on="1"/>
        <pt x="212" y="616" on="0"/>
        <pt x="246" y="617" on="1"/>
        <pt x="348" y="620" on="0"/>
        <pt x="391" y="620" on="1"/>
        <pt x="354" y="534" on="1"/>
        <pt x="340" y="534" on="1"/>
        <pt x="337" y="534" on="0"/>
        <pt x="312" y="536" on="1"/>
        <pt x="237" y="540" on="0"/>
        <pt x="124" y="540" on="1"/>
        <pt x="-37" y="534" on="1"/>
        <pt x="0" y="618" on="1"/>
      </contour>
      <contour>
        <pt x="224" y="188" on="1"/>
        <pt x="224" y="75" on="0"/>
        <pt x="249" y="22" on="1"/>
        <pt x="249" y="0" on="1"/>
        <pt x="78" y="0" on="1"/>
        <pt x="78" y="22" on="1"/>
        <pt x="95" y="77" on="0"/>
        <pt x="95" y="167" on="1"/>
        <pt x="95" y="560" on="1"/>
        <pt x="95" y="646" on="0"/>
        <pt x="50" y="689" on="1"/>
        <pt x="50" y="711" on="1"/>
        <pt x="215" y="746" on="1"/>
        <pt x="227" y="724" on="1"/>
        <pt x="224" y="696" on="0"/>
        <pt x="224" y="528" on="1"/>
        <pt x="224" y="418" on="1"/>
        <pt x="276" y="459" on="0"/>
        <pt x="352" y="499" on="0"/>
        <pt x="396" y="499" on="1"/>
        <pt x="476" y="499" on="0"/>
        <pt x="562" y="406" on="0"/>
        <pt x="562" y="318" on="1"/>
        <pt x="562" y="191" on="1"/>
        <pt x="562" y="92" on="0"/>
        <pt x="592" y="22" on="1"/>
        <pt x="592" y="0" on="1"/>
        <pt x="416" y="0" on="1"/>
        <pt x="416" y="22" on="1"/>
        <pt x="433" y="69" on="0"/>
        <pt x="433" y="157" on="1"/>
        <pt x="433" y="282" on="1"/>
        <pt x="433" y="341" on="0"/>
        <pt x="402" y="395" on="0"/>
        <pt x="301" y="395" on="0"/>
        <pt x="224" y="353" on="1"/>
      </contour>
    </TTGlyph>
    <TTGlyph name="hyphen" xMin="1" yMin="222" xMax="361" yMax="325">
      <contour>
        <pt x="53" y="325" on="1"/>
        <pt x="93" y="316" on="0"/>
        <pt x="140" y="316" on="1"/>
        <pt x="222" y="317" on="1"/>
        <pt x="244" y="317" on="0"/>
        <pt x="337" y="321" on="0"/>
        <pt x="361" y="321" on="1"/>
        <pt x="323" y="222" on="1"/>
        <pt x="309" y="222" on="1"/>
        <pt x="241" y="231" on="0"/>
        <pt x="135" y="231" on="1"/>
        <pt x="1" y="225" on="1"/>
        <pt x="39" y="325" on="1"/>
      </contour>
    </TTGlyph>
</ttFont>
